<svg width="12" height="12" viewBox="0 0 12 12" fill="none" xmlns="http://www.w3.org/2000/svg">
<path d="M4.87768 0.773299L5.43916 0.211822C5.69437 -0.017873 6.0772 -0.017873 6.30689 0.211822L11.2836 5.16302C11.5133 5.41824 11.5133 5.80107 11.2836 6.03076L6.30689 11.0075C6.0772 11.2372 5.69437 11.2372 5.43916 11.0075L4.87768 10.446C4.64799 10.1908 4.64799 9.80797 4.87768 9.55275L7.9658 6.61776H0.641084C0.283781 6.61776 0.0285645 6.36254 0.0285645 6.00524V5.18855C0.0285645 4.85677 0.283781 4.57603 0.641084 4.57603H7.9658L4.87768 1.66656C4.64799 1.41134 4.62246 1.02852 4.87768 0.773299Z" fill="#CCCCCC"/>
</svg>
