<svg width="17" height="32" viewBox="0 0 17 32" fill="none" xmlns="http://www.w3.org/2000/svg">
<path fill-rule="evenodd" clip-rule="evenodd" d="M0.722168 0.599609H8.69417C11.2024 0.599609 13.2548 1.18649 14.6138 2.57701C15.9645 3.93089 16.5402 5.93111 16.5402 8.36161V9.53761C16.5402 11.1458 16.2744 12.5506 15.6734 13.6913C15.3666 14.3017 14.9675 14.8248 14.4821 15.2576C15.1028 15.7163 15.6162 16.3003 16.0131 17.0069C16.6985 18.2273 17.0022 19.7505 17.0022 21.5076V24.0276C17.0022 26.4698 16.3506 28.4954 14.9033 29.9427C13.4777 31.3683 11.4464 31.9996 8.98817 31.9996H0.722168V0.599609ZM13.6212 15.8794C13.3109 15.6829 12.9701 15.5197 12.5991 15.3897C12.5855 15.385 12.5718 15.3803 12.5582 15.3756V15.2916C12.5694 15.2869 12.5805 15.2822 12.5917 15.2775C12.9536 15.1237 13.2809 14.9351 13.5734 14.7119C14.0818 14.3239 14.4854 13.8312 14.7842 13.2336C15.2882 12.2816 15.5402 11.0496 15.5402 9.53761V8.36161C15.5402 6.06561 14.9942 4.37161 13.9022 3.27961C12.8102 2.15961 11.0742 1.59961 8.69417 1.59961H1.72217V30.9996H8.98817C11.2842 30.9996 13.0202 30.4116 14.1962 29.2356C15.4002 28.0316 16.0022 26.2956 16.0022 24.0276V21.5076C16.0022 18.7605 15.2085 16.8844 13.6212 15.8794ZM9.48835 12.1592L9.49906 12.1485C9.69577 11.9518 9.92017 11.483 9.92017 10.4616V8.82361C9.92017 7.839 9.73055 7.35613 9.56024 7.14932L9.54877 7.13539L9.53781 7.12106C9.42509 6.97365 9.18752 6.79961 8.56817 6.79961H7.34217V12.5696H8.14817C8.91286 12.5696 9.28615 12.374 9.47797 12.1702L9.48835 12.1592ZM6.34217 13.5696V5.79961H8.56817C9.38017 5.79961 9.96817 6.03761 10.3322 6.51361C10.7242 6.98961 10.9202 7.75961 10.9202 8.82361V10.4616C10.9202 11.5816 10.6822 12.3796 10.2062 12.8556C9.75817 13.3316 9.07217 13.5696 8.14817 13.5696H6.34217ZM9.9216 19.2335L9.90326 19.2117C9.72752 19.0031 9.3267 18.7696 8.40017 18.7696H7.34217V25.7996H8.98817C9.62236 25.7996 9.91163 25.6415 10.0517 25.4992C10.1977 25.322 10.3822 24.8724 10.3822 23.9016V21.3396C10.3822 20.0414 10.1375 19.4621 9.94116 19.2542L9.9216 19.2335ZM10.7942 26.1696C10.4022 26.5896 9.80017 26.7996 8.98817 26.7996H6.34217V17.7696H8.40017C9.46417 17.7696 10.2202 18.0356 10.6682 18.5676C11.1442 19.0716 11.3822 19.9956 11.3822 21.3396V23.9016C11.3822 24.9656 11.1862 25.7216 10.7942 26.1696Z" fill="#1B997C"/>
</svg>
