<svg width="722" height="435" viewBox="0 0 722 435" fill="none" xmlns="http://www.w3.org/2000/svg">
<g clip-path="url(#clip0_690_867)">
<rect width="721.11" height="434.138" transform="translate(0.554688 0.600586)" fill="#E6F8F3"/>
<rect x="0.554688" y="0.600586" width="721.11" height="434.138" rx="12.2638" fill="#E6F8F3"/>
<path d="M85.103 331.208C85.3777 331.391 85.5379 331.631 85.5837 331.929C85.6295 332.203 85.5608 332.478 85.3777 332.753C85.2174 332.959 85.0114 333.073 84.7596 333.096C84.5078 333.119 84.2674 333.073 84.0385 332.959C83.1686 332.387 82.23 331.94 81.2227 331.62C80.2383 331.299 79.1738 331.139 78.0292 331.139C76.6328 331.139 75.3279 331.391 74.1146 331.894C72.9242 332.375 71.8826 333.085 70.9898 334.023C70.097 334.939 69.3988 336.026 68.8952 337.286C68.4144 338.545 68.174 339.93 68.174 341.44C68.174 342.997 68.4259 344.416 68.9295 345.698C69.4331 346.958 70.1313 348.045 71.0241 348.961C71.9398 349.876 72.9929 350.575 74.1833 351.055C75.3737 351.536 76.6557 351.776 78.0292 351.776C79.1509 351.776 80.204 351.616 81.1884 351.296C82.1956 350.975 83.1342 350.54 84.0041 349.991C84.233 349.853 84.4734 349.808 84.7252 349.853C84.9999 349.876 85.2174 350.002 85.3777 350.231C85.5837 350.483 85.6524 350.758 85.5837 351.055C85.5379 351.33 85.3891 351.547 85.1373 351.708C84.565 352.074 83.8897 352.417 83.1113 352.738C82.333 353.058 81.5089 353.31 80.6389 353.493C79.769 353.699 78.8991 353.802 78.0292 353.802C76.381 353.802 74.8357 353.505 73.3935 352.91C71.9513 352.314 70.6693 351.479 69.5476 350.403C68.4259 349.304 67.5445 347.999 66.9035 346.488C66.2854 344.977 65.9764 343.295 65.9764 341.44C65.9764 339.655 66.2854 338.018 66.9035 336.53C67.5216 335.019 68.3801 333.714 69.4789 332.615C70.5777 331.517 71.8597 330.658 73.3248 330.04C74.7899 329.422 76.3581 329.113 78.0292 329.113C79.3341 329.113 80.5932 329.296 81.8065 329.662C83.0198 330.029 84.1186 330.544 85.103 331.208ZM100.478 332.066L92.1337 352.807C92.0422 353.035 91.9163 353.207 91.756 353.322C91.5958 353.436 91.4126 353.493 91.2066 353.493C90.8861 353.493 90.6457 353.413 90.4855 353.253C90.3252 353.07 90.2337 352.852 90.2108 352.601C90.1879 352.486 90.1993 352.349 90.2451 352.188L99.3105 330.006C99.425 329.754 99.5623 329.582 99.7226 329.491C99.9057 329.376 100.112 329.319 100.341 329.319C100.57 329.319 100.764 329.388 100.924 329.525C101.108 329.639 101.245 329.8 101.336 330.006L110.368 352.085C110.413 352.223 110.436 352.36 110.436 352.498C110.436 352.818 110.333 353.07 110.127 353.253C109.921 353.413 109.681 353.493 109.406 353.493C109.177 353.493 108.971 353.436 108.788 353.322C108.628 353.184 108.502 353.013 108.41 352.807L99.8599 331.929L100.478 332.066ZM94.1254 346.523L94.9838 344.497H105.629L106.041 346.523H94.1254ZM118.296 353.459C117.953 353.459 117.666 353.356 117.437 353.15C117.231 352.944 117.128 352.704 117.128 352.429V330.452C117.128 330.177 117.231 329.937 117.437 329.731C117.644 329.525 117.884 329.422 118.159 329.422H127.43C128.735 329.422 129.902 329.708 130.933 330.28C131.963 330.83 132.764 331.597 133.336 332.581C133.931 333.566 134.229 334.676 134.229 335.912C134.229 336.919 134.046 337.846 133.68 338.693C133.313 339.54 132.798 340.262 132.134 340.857C131.471 341.429 130.727 341.853 129.902 342.127L128.701 341.75C129.548 341.818 130.337 342.093 131.07 342.574C131.802 343.032 132.386 343.672 132.821 344.497C133.279 345.298 133.519 346.271 133.542 347.415C133.565 348.4 133.611 349.167 133.68 349.716C133.771 350.265 133.897 350.678 134.057 350.952C134.218 351.227 134.424 351.444 134.675 351.605C134.904 351.742 135.053 351.937 135.122 352.188C135.213 352.44 135.191 352.681 135.053 352.91C134.962 353.093 134.824 353.23 134.641 353.322C134.481 353.39 134.309 353.425 134.126 353.425C133.943 353.425 133.76 353.379 133.577 353.287C133.256 353.104 132.924 352.818 132.581 352.429C132.26 352.04 131.986 351.467 131.757 350.712C131.551 349.956 131.448 348.903 131.448 347.553C131.448 346.66 131.299 345.927 131.001 345.355C130.727 344.783 130.36 344.348 129.902 344.05C129.467 343.73 128.975 343.512 128.426 343.398C127.899 343.26 127.396 343.192 126.915 343.192H118.914L119.292 342.711V352.429C119.292 352.704 119.2 352.944 119.017 353.15C118.834 353.356 118.594 353.459 118.296 353.459ZM118.914 341.303H127.533C128.311 341.234 129.044 340.983 129.731 340.548C130.417 340.09 130.967 339.472 131.379 338.693C131.814 337.915 132.031 337.011 132.031 335.981C132.031 334.676 131.585 333.6 130.692 332.753C129.822 331.883 128.678 331.448 127.258 331.448H119.051L119.292 330.967V341.784L118.914 341.303ZM152.372 329.422C154.066 329.422 155.542 329.742 156.802 330.383C158.083 331.024 159.137 331.917 159.961 333.062C160.785 334.184 161.391 335.466 161.781 336.908C162.193 338.35 162.399 339.861 162.399 341.44C162.399 343.638 162.032 345.653 161.3 347.484C160.59 349.293 159.491 350.746 158.003 351.845C156.538 352.921 154.661 353.459 152.372 353.459H143.615C143.341 353.459 143.1 353.356 142.894 353.15C142.688 352.944 142.585 352.704 142.585 352.429V330.452C142.585 330.177 142.688 329.937 142.894 329.731C143.1 329.525 143.341 329.422 143.615 329.422H152.372ZM152.028 351.433C153.974 351.433 155.542 350.987 156.733 350.094C157.923 349.201 158.793 347.999 159.343 346.488C159.915 344.954 160.201 343.272 160.201 341.44C160.201 340.113 160.041 338.854 159.72 337.663C159.423 336.45 158.942 335.385 158.278 334.47C157.637 333.531 156.79 332.799 155.737 332.272C154.707 331.723 153.471 331.448 152.028 331.448H144.508L144.749 331.139V351.776L144.543 351.433H152.028ZM182.66 329.422C182.935 329.422 183.175 329.525 183.381 329.731C183.61 329.937 183.724 330.189 183.724 330.486V352.394C183.702 352.692 183.576 352.944 183.347 353.15C183.141 353.356 182.9 353.459 182.626 353.459C182.305 353.459 182.042 353.356 181.836 353.15C181.653 352.944 181.561 352.692 181.561 352.394V330.486C181.561 330.189 181.664 329.937 181.87 329.731C182.076 329.525 182.339 329.422 182.66 329.422ZM198.765 329.422C199.085 329.422 199.337 329.525 199.52 329.731C199.726 329.937 199.829 330.189 199.829 330.486V352.394C199.806 352.692 199.692 352.944 199.486 353.15C199.303 353.356 199.051 353.459 198.73 353.459C198.433 353.459 198.181 353.356 197.975 353.15C197.769 352.944 197.666 352.692 197.666 352.394V330.486C197.666 330.189 197.769 329.937 197.975 329.731C198.204 329.525 198.467 329.422 198.765 329.422ZM182.488 340.17H198.799L198.765 342.162H182.351L182.488 340.17ZM230.156 341.44C230.156 343.249 229.869 344.909 229.297 346.42C228.748 347.908 227.958 349.212 226.928 350.334C225.898 351.433 224.673 352.291 223.253 352.91C221.857 353.505 220.323 353.802 218.652 353.802C216.981 353.802 215.436 353.505 214.016 352.91C212.62 352.291 211.407 351.433 210.377 350.334C209.346 349.212 208.545 347.908 207.973 346.42C207.423 344.909 207.149 343.249 207.149 341.44C207.149 339.632 207.423 337.984 207.973 336.496C208.545 334.985 209.346 333.68 210.377 332.581C211.407 331.459 212.62 330.601 214.016 330.006C215.436 329.388 216.981 329.079 218.652 329.079C220.323 329.079 221.857 329.388 223.253 330.006C224.673 330.601 225.898 331.459 226.928 332.581C227.958 333.68 228.748 334.985 229.297 336.496C229.869 337.984 230.156 339.632 230.156 341.44ZM227.958 341.44C227.958 339.403 227.557 337.617 226.756 336.084C225.978 334.527 224.89 333.314 223.494 332.444C222.097 331.574 220.484 331.139 218.652 331.139C216.844 331.139 215.23 331.574 213.81 332.444C212.414 333.314 211.315 334.527 210.514 336.084C209.736 337.617 209.346 339.403 209.346 341.44C209.346 343.478 209.736 345.275 210.514 346.832C211.315 348.365 212.414 349.567 213.81 350.437C215.23 351.307 216.844 351.742 218.652 351.742C220.484 351.742 222.097 351.307 223.494 350.437C224.89 349.567 225.978 348.365 226.756 346.832C227.557 345.275 227.958 343.478 227.958 341.44ZM250.761 351.433C251.035 351.433 251.276 351.536 251.482 351.742C251.688 351.925 251.791 352.154 251.791 352.429C251.791 352.726 251.688 352.978 251.482 353.184C251.276 353.367 251.035 353.459 250.761 353.459H238.502C238.204 353.459 237.952 353.356 237.746 353.15C237.563 352.944 237.472 352.704 237.472 352.429V330.452C237.472 330.177 237.575 329.937 237.781 329.731C237.987 329.525 238.25 329.422 238.57 329.422C238.845 329.422 239.085 329.525 239.291 329.731C239.52 329.937 239.635 330.177 239.635 330.452V352.017L238.982 351.433H250.761ZM267.987 329.422C269.681 329.422 271.157 329.742 272.416 330.383C273.698 331.024 274.751 331.917 275.575 333.062C276.4 334.184 277.006 335.466 277.395 336.908C277.807 338.35 278.014 339.861 278.014 341.44C278.014 343.638 277.647 345.653 276.915 347.484C276.205 349.293 275.106 350.746 273.618 351.845C272.153 352.921 270.276 353.459 267.987 353.459H259.23C258.956 353.459 258.715 353.356 258.509 353.15C258.303 352.944 258.2 352.704 258.2 352.429V330.452C258.2 330.177 258.303 329.937 258.509 329.731C258.715 329.525 258.956 329.422 259.23 329.422H267.987ZM267.643 351.433C269.589 351.433 271.157 350.987 272.348 350.094C273.538 349.201 274.408 347.999 274.957 346.488C275.53 344.954 275.816 343.272 275.816 341.44C275.816 340.113 275.656 338.854 275.335 337.663C275.038 336.45 274.557 335.385 273.893 334.47C273.252 333.531 272.405 332.799 271.352 332.272C270.322 331.723 269.085 331.448 267.643 331.448H260.123L260.363 331.139V351.776L260.157 351.433H267.643ZM286.364 329.422H298.966C299.241 329.422 299.481 329.525 299.687 329.731C299.893 329.914 299.996 330.155 299.996 330.452C299.996 330.75 299.893 330.99 299.687 331.173C299.481 331.356 299.241 331.448 298.966 331.448H287.154L287.497 330.864V340.513L287.119 340.067H297.421C297.696 340.067 297.936 340.17 298.142 340.376C298.348 340.582 298.451 340.822 298.451 341.097C298.451 341.395 298.348 341.635 298.142 341.818C297.936 342.001 297.696 342.093 297.421 342.093H287.188L287.497 341.75V351.639L287.325 351.433H298.966C299.241 351.433 299.481 351.536 299.687 351.742C299.893 351.948 299.996 352.188 299.996 352.463C299.996 352.761 299.893 353.001 299.687 353.184C299.481 353.367 299.241 353.459 298.966 353.459H286.364C286.089 353.459 285.849 353.356 285.643 353.15C285.437 352.944 285.334 352.704 285.334 352.429V330.452C285.334 330.177 285.437 329.937 285.643 329.731C285.849 329.525 286.089 329.422 286.364 329.422ZM308.471 353.459C308.127 353.459 307.841 353.356 307.612 353.15C307.406 352.944 307.303 352.704 307.303 352.429V330.452C307.303 330.177 307.406 329.937 307.612 329.731C307.818 329.525 308.059 329.422 308.333 329.422H317.605C318.91 329.422 320.077 329.708 321.107 330.28C322.137 330.83 322.939 331.597 323.511 332.581C324.106 333.566 324.404 334.676 324.404 335.912C324.404 336.919 324.221 337.846 323.854 338.693C323.488 339.54 322.973 340.262 322.309 340.857C321.645 341.429 320.901 341.853 320.077 342.127L318.875 341.75C319.722 341.818 320.512 342.093 321.245 342.574C321.977 343.032 322.561 343.672 322.996 344.497C323.454 345.298 323.694 346.271 323.717 347.415C323.74 348.4 323.786 349.167 323.854 349.716C323.946 350.265 324.072 350.678 324.232 350.952C324.392 351.227 324.598 351.444 324.85 351.605C325.079 351.742 325.228 351.937 325.297 352.188C325.388 352.44 325.365 352.681 325.228 352.91C325.136 353.093 324.999 353.23 324.816 353.322C324.656 353.39 324.484 353.425 324.301 353.425C324.118 353.425 323.934 353.379 323.751 353.287C323.431 353.104 323.099 352.818 322.756 352.429C322.435 352.04 322.16 351.467 321.931 350.712C321.725 349.956 321.622 348.903 321.622 347.553C321.622 346.66 321.474 345.927 321.176 345.355C320.901 344.783 320.535 344.348 320.077 344.05C319.642 343.73 319.15 343.512 318.601 343.398C318.074 343.26 317.57 343.192 317.09 343.192H309.089L309.467 342.711V352.429C309.467 352.704 309.375 352.944 309.192 353.15C309.009 353.356 308.768 353.459 308.471 353.459ZM309.089 341.303H317.708C318.486 341.234 319.219 340.983 319.905 340.548C320.592 340.09 321.142 339.472 321.554 338.693C321.989 337.915 322.206 337.011 322.206 335.981C322.206 334.676 321.76 333.6 320.867 332.753C319.997 331.883 318.852 331.448 317.433 331.448H309.226L309.467 330.967V341.784L309.089 341.303Z" fill="#1EC29D" fill-opacity="0.29"/>
<path d="M535.238 301.195C535.329 301.195 535.421 301.215 535.513 301.254C535.617 301.293 535.702 301.359 535.768 301.45L541.183 309.574L540.654 309.554L546.089 301.45C546.233 301.254 546.409 301.169 546.619 301.195C546.776 301.195 546.906 301.254 547.011 301.372C547.129 301.476 547.188 301.614 547.188 301.784V314.342C547.188 314.499 547.129 314.636 547.011 314.754C546.893 314.872 546.749 314.931 546.579 314.931C546.396 314.931 546.246 314.872 546.128 314.754C546.01 314.636 545.951 314.499 545.951 314.342V302.981L546.305 303.02L541.34 310.535C541.301 310.614 541.242 310.679 541.164 310.732C541.085 310.771 540.994 310.784 540.889 310.771C540.797 310.784 540.706 310.771 540.614 310.732C540.536 310.679 540.47 310.614 540.418 310.535L535.434 302.942L535.807 302.687V314.342C535.807 314.499 535.748 314.636 535.63 314.754C535.526 314.872 535.388 314.931 535.218 314.931C535.048 314.931 534.911 314.872 534.806 314.754C534.701 314.636 534.649 314.499 534.649 314.342V301.784C534.649 301.627 534.701 301.49 534.806 301.372C534.924 301.254 535.068 301.195 535.238 301.195ZM552.286 301.195C552.377 301.195 552.469 301.215 552.56 301.254C552.665 301.293 552.75 301.359 552.816 301.45L558.231 309.574L557.701 309.554L563.137 301.45C563.281 301.254 563.457 301.169 563.667 301.195C563.824 301.195 563.954 301.254 564.059 301.372C564.177 301.476 564.236 301.614 564.236 301.784V314.342C564.236 314.499 564.177 314.636 564.059 314.754C563.941 314.872 563.797 314.931 563.627 314.931C563.444 314.931 563.294 314.872 563.176 314.754C563.058 314.636 562.999 314.499 562.999 314.342V302.981L563.353 303.02L558.388 310.535C558.349 310.614 558.29 310.679 558.212 310.732C558.133 310.771 558.042 310.784 557.937 310.771C557.845 310.784 557.754 310.771 557.662 310.732C557.584 310.679 557.518 310.614 557.466 310.535L552.482 302.942L552.855 302.687V314.342C552.855 314.499 552.796 314.636 552.678 314.754C552.574 314.872 552.436 314.931 552.266 314.931C552.096 314.931 551.959 314.872 551.854 314.754C551.749 314.636 551.697 314.499 551.697 314.342V301.784C551.697 301.627 551.749 301.49 551.854 301.372C551.972 301.254 552.116 301.195 552.286 301.195ZM567.607 317.462C567.45 317.462 567.319 317.41 567.214 317.305C567.11 317.2 567.058 317.069 567.058 316.912C567.058 316.821 567.084 316.723 567.136 316.618L575.672 299.724C575.763 299.54 575.855 299.416 575.946 299.351C576.051 299.285 576.175 299.253 576.319 299.253C576.437 299.253 576.548 299.298 576.653 299.39C576.77 299.482 576.829 299.612 576.829 299.782C576.829 299.9 576.803 300.018 576.751 300.136L568.215 317.05C568.124 317.194 568.032 317.298 567.941 317.364C567.849 317.429 567.738 317.462 567.607 317.462ZM587.997 301.117C588.167 301.117 588.304 301.182 588.409 301.313C588.527 301.431 588.585 301.562 588.585 301.705C588.585 301.771 588.572 301.836 588.546 301.902C588.533 301.954 588.507 302.013 588.468 302.078L583.856 308.416L584.092 307.651V314.342C584.092 314.499 584.033 314.636 583.915 314.754C583.798 314.872 583.654 314.931 583.484 314.931C583.314 314.931 583.17 314.872 583.052 314.754C582.947 314.636 582.895 314.499 582.895 314.342V307.788L582.993 308.259L578.5 302.117C578.447 302.052 578.408 301.987 578.382 301.921C578.356 301.843 578.343 301.771 578.343 301.705C578.343 301.535 578.408 301.398 578.539 301.293C578.683 301.176 578.827 301.117 578.971 301.117C579.167 301.117 579.33 301.208 579.461 301.391L583.68 307.141L583.386 307.101L587.487 301.391C587.617 301.208 587.787 301.117 587.997 301.117ZM599.775 301.117C599.945 301.117 600.082 301.182 600.187 301.313C600.305 301.431 600.364 301.562 600.364 301.705C600.364 301.771 600.351 301.836 600.324 301.902C600.311 301.954 600.285 302.013 600.246 302.078L595.635 308.416L595.87 307.651V314.342C595.87 314.499 595.811 314.636 595.694 314.754C595.576 314.872 595.432 314.931 595.262 314.931C595.092 314.931 594.948 314.872 594.83 314.754C594.726 314.636 594.673 314.499 594.673 314.342V307.788L594.771 308.259L590.278 302.117C590.226 302.052 590.186 301.987 590.16 301.921C590.134 301.843 590.121 301.771 590.121 301.705C590.121 301.535 590.186 301.398 590.317 301.293C590.461 301.176 590.605 301.117 590.749 301.117C590.945 301.117 591.109 301.208 591.239 301.391L595.458 307.141L595.164 307.101L599.265 301.391C599.396 301.208 599.566 301.117 599.775 301.117Z" fill="#1EC29D" fill-opacity="0.29"/>
<path d="M588.002 357.889C587.727 357.889 587.498 357.797 587.315 357.614C587.132 357.431 587.04 357.202 587.04 356.927C587.04 356.767 587.086 356.595 587.178 356.412L602.115 326.847C602.275 326.526 602.435 326.309 602.596 326.194C602.779 326.08 602.996 326.022 603.248 326.022C603.454 326.022 603.649 326.103 603.832 326.263C604.038 326.423 604.141 326.652 604.141 326.95C604.141 327.156 604.095 327.362 604.004 327.568L589.066 357.168C588.906 357.419 588.746 357.603 588.586 357.717C588.425 357.831 588.231 357.889 588.002 357.889Z" fill="#1EC29D" fill-opacity="0.29"/>
<circle cx="74.1411" cy="231.16" r="9.81102" fill="#1EC29D" fill-opacity="0.29"/>
<circle cx="101.12" cy="231.16" r="9.81102" fill="#1EC29D" fill-opacity="0.29"/>
<circle cx="130.553" cy="231.16" r="9.81102" fill="#1EC29D" fill-opacity="0.29"/>
<circle cx="157.536" cy="231.16" r="9.81102" fill="#1EC29D" fill-opacity="0.29"/>
<circle cx="240.108" cy="231.16" r="9.81102" fill="#1EC29D" fill-opacity="0.29"/>
<circle cx="267.086" cy="231.16" r="9.81102" fill="#1EC29D" fill-opacity="0.29"/>
<circle cx="296.52" cy="231.16" r="9.81102" fill="#1EC29D" fill-opacity="0.29"/>
<circle cx="323.504" cy="231.16" r="9.81102" fill="#1EC29D" fill-opacity="0.29"/>
<circle cx="406.081" cy="231.16" r="9.81102" fill="#1EC29D" fill-opacity="0.29"/>
<circle cx="433.059" cy="231.16" r="9.81102" fill="#1EC29D" fill-opacity="0.29"/>
<circle cx="462.493" cy="231.16" r="9.81102" fill="#1EC29D" fill-opacity="0.29"/>
<circle cx="489.475" cy="231.16" r="9.81102" fill="#1EC29D" fill-opacity="0.29"/>
<circle cx="572.049" cy="231.16" r="9.81102" fill="#1EC29D" fill-opacity="0.29"/>
<circle cx="599.028" cy="231.16" r="9.81102" fill="#1EC29D" fill-opacity="0.29"/>
<circle cx="628.461" cy="231.16" r="9.81102" fill="#1EC29D" fill-opacity="0.29"/>
<circle cx="655.444" cy="231.16" r="9.81102" fill="#1EC29D" fill-opacity="0.29"/>
<circle cx="542.614" cy="343.987" r="9.81102" fill="#1EC29D" fill-opacity="0.29"/>
<circle cx="569.592" cy="343.987" r="9.81102" fill="#1EC29D" fill-opacity="0.29"/>
<circle cx="616.2" cy="343.987" r="9.81102" fill="#1EC29D" fill-opacity="0.29"/>
<circle cx="643.178" cy="343.987" r="9.81102" fill="#1EC29D" fill-opacity="0.29"/>
<rect x="64.3281" y="106.069" width="95.6574" height="66.2244" rx="12.2638" fill="#1EC29D" fill-opacity="0.29"/>
<rect x="64.3281" y="120.785" width="66.2244" height="39.2441" rx="4.90551" fill="#E6F8F3"/>
</g>
<defs>
<clipPath id="clip0_690_867">
<rect width="721.11" height="434.138" fill="white" transform="translate(0.554688 0.600586)"/>
</clipPath>
</defs>
</svg>
