<svg width="33" height="33" viewBox="0 0 33 33" fill="none" xmlns="http://www.w3.org/2000/svg">
<path d="M29.3069 0.369586L31.7695 2.77527C31.9884 2.98911 31.9909 3.20548 31.7771 3.42438L3.55037 32.3192C3.33653 32.5381 3.12016 32.5406 2.90126 32.3268L0.43864 29.9211C0.21974 29.7072 0.21721 29.4909 0.431048 29.272L28.6578 0.377178C28.8716 0.158278 29.088 0.155747 29.3069 0.369586Z" fill="#1B997C"/>
<path d="M3.83812 1.31685L31.4195 28.2605C31.6384 28.4744 31.6409 28.6907 31.4271 28.9096L29.0214 31.3723C28.8076 31.5912 28.5912 31.5937 28.3723 31.3799L0.790914 4.43618C0.572014 4.22234 0.569483 4.00597 0.783322 3.78707L3.18901 1.32444C3.40285 1.10554 3.61922 1.10301 3.83812 1.31685Z" fill="#1B997C"/>
</svg>
