<svg width="65" height="84" viewBox="0 0 65 84" fill="none" xmlns="http://www.w3.org/2000/svg">
<path d="M59.3264 83.2306C62.1086 83.2306 64.3637 80.978 64.3663 78.1984C64.3714 74.5238 64.3689 70.5819 64.3483 68.3577C64.2789 60.8955 61.8463 54.3024 56.9478 48.6582C54.2042 45.498 50.9411 43.0397 47.0146 41.2063C46.6366 41.0289 46.2097 41.3349 46.2586 41.7515V41.7592C46.6469 44.8294 47.0171 47.9022 47.4388 50.9673C47.4903 51.3402 47.7628 51.7182 48.0225 52.0165C49.406 53.5979 50.9308 55.0713 52.1959 56.7401C54.2299 59.4221 55.7033 62.3817 55.6056 65.884C55.5156 69.1008 52.9776 72.2327 49.8817 73.0016C48.8531 73.2562 48.02 72.8653 47.6986 71.973C47.3823 71.091 47.786 70.2322 48.7297 69.7976C48.8582 69.7385 48.9971 69.6973 49.1282 69.6408C51.5942 68.6045 52.5662 66.8817 52.0236 64.2691C51.1442 60.0264 48.326 57.041 45.3123 54.2073C45.1914 54.0916 44.8392 54.0916 44.6669 54.1816C41.3318 55.8864 38.2255 57.9024 36.0913 61.0832C34.2425 63.8372 34.5947 66.0305 37.1096 68.1185C38.1124 68.9491 38.3027 69.8645 37.6521 70.7105C37.0299 71.5179 36.0296 71.5539 34.9959 70.8031C31.2879 68.1185 30.4522 63.6932 32.9491 59.6175C35.3687 55.6678 39.0767 53.207 43.0855 51.1525C44.096 50.6356 44.3403 50.0571 43.7515 48.5862C42.8463 46.326 42.4606 43.9012 42.6072 41.4686C42.6766 40.3166 41.8846 39.3318 40.7995 39.1364C34.5305 38.0101 28.282 37.9818 22.0695 39.5555C21.7044 39.6481 21.2904 40.0415 21.1361 40.3989C18.6058 46.1794 16.9833 52.2248 15.9162 58.4321C15.767 59.2935 15.8802 59.7101 16.7801 60.0881C20.4058 61.6103 21.9538 66.0228 20.195 69.5328C18.3744 73.1662 13.8693 74.5727 10.4237 72.5362C7.93199 71.0628 6.67201 68.8282 6.88029 65.9354C7.086 63.0477 8.62884 61.0009 11.3288 59.9286C12.0514 59.6406 12.3214 59.2446 12.4834 58.5092C13.3833 54.4053 14.3142 50.3039 15.3196 46.2231C15.5973 45.0994 15.9959 44.0066 16.4227 42.8032C16.5899 42.3352 16.0756 41.9135 15.6513 42.168C6.6823 47.5602 1.34666 55.1716 0.413245 65.614C0.150963 68.5659 0.150963 73.7242 0.179248 78.2215C0.197248 80.9935 2.44979 83.2306 5.21917 83.2306H59.3264Z" fill="#1EC29D"/>
<path d="M50.0997 17.9201C50.0637 27.802 42.0976 35.7502 32.2466 35.7347C22.3596 35.7219 14.3985 27.6786 14.45 17.7556C14.504 7.88913 22.4907 -0.0333227 32.3571 0.000105396C42.1978 0.0335335 50.1357 8.05113 50.0997 17.9201Z" fill="#1EC29D"/>
</svg>
