<svg width="92" height="97" viewBox="0 0 92 97" fill="none" xmlns="http://www.w3.org/2000/svg">
<path d="M58.8236 62.8917C58.1872 61.9833 57.6955 61.4266 57.3195 60.8112C53.8197 54.5697 48.4976 51.6687 41.4401 51.61C36.6965 51.5514 31.8951 51.5221 27.2094 50.8189C18.0115 49.4416 11.3879 40.2112 12.5448 30.8342C13.239 25.208 16.1604 21.1642 21.5113 19.2888C30.3043 16.212 39.0972 16.4757 47.6299 20.1679C55.1213 23.3912 59.3731 29.5156 60.7904 37.4567C62.2945 45.896 61.3978 54.2473 58.7946 62.8917H58.8236Z" fill="#1EC29D"/>
<path d="M15.7248 48C21.4828 54.0824 28.6376 55.134 36.2484 55.0203C39.1559 54.9919 42.0919 55.3898 45.0279 55.3898C52.7242 55.3898 59.1378 66.9008 56.3729 73.1821C54.0925 78.3834 52.2112 84.011 48.7906 88.3881C39.8115 99.9275 25.9296 99.757 16.7225 88.3881C9.93831 80.0319 7.31586 70.1694 8.1425 59.511C8.54157 54.7077 11.7911 51.3254 15.7248 48ZM29.3217 80.6288C29.2932 80.3161 29.2362 80.0035 29.2077 79.6624C28.8656 79.5771 28.495 79.3213 28.1815 79.4635C26.9843 79.9466 25.8156 80.5435 24.6469 81.0835C25.559 82.2204 26.3002 83.8973 27.3833 84.3521C31.2885 85.9153 35.3077 85.0342 39.0989 82.192C39.897 81.5951 40.2961 79.7477 40.8662 78.4971C39.8685 78.2413 38.8423 77.5307 37.9017 77.7865C35.0227 78.5539 32.1722 79.6624 29.3217 80.6572V80.6288ZM18.5753 67.6966C21.3118 67.5545 23.7917 67.5545 26.1006 67.2419C26.8417 67.1282 27.1553 66.1618 27.6684 65.5934C26.6992 65.2807 25.7015 64.7691 24.7324 64.7123C22.8225 64.5702 20.9127 64.5986 19.0599 64.7123C18.1192 64.7691 17.3496 65.2239 16.4945 65.5081C17.1216 66.1618 17.7487 66.8155 18.5753 67.6966ZM38.5288 67.6966C41.2653 67.5545 43.7452 67.5545 46.0541 67.2419C46.7952 67.1282 47.1088 66.1618 47.6219 65.5934C46.6527 65.2807 45.655 64.7691 44.6858 64.7123C42.776 64.5702 40.8662 64.5986 39.0134 64.7123C38.0727 64.7691 37.3031 65.2239 36.4479 65.5081C37.075 66.1618 37.7021 66.8155 38.5288 67.6966Z" fill="#1EC29D"/>
<path d="M12.4133 44.6671C9.51393 49.0583 6.55874 53.5643 3.77084 57.812C-2.33468 49.0296 0.676262 32.412 9.34665 29.0254C10.3782 34.2202 11.4097 39.5011 12.4133 44.6671Z" fill="#1EC29D"/>
<g clip-path="url(#clip0_312_4808)">
<path d="M68.4453 16.2721C68.4453 11.7895 72.2329 8.14599 76.8273 8.16807C81.3544 8.16807 85.0748 11.922 85.0748 16.4488C85.0748 20.9093 81.2648 24.5749 76.6704 24.5528C72.1208 24.5528 68.4453 20.843 68.4453 16.2942V16.2721Z" fill="#1EC29D"/>
<path d="M76.7376 23.7358C80.8614 23.7358 84.268 20.4014 84.2456 16.3825C84.2456 12.2974 80.839 8.96301 76.7152 8.96301M68.4453 16.2721C68.4453 11.7895 72.2329 8.14599 76.8273 8.16807C81.3544 8.16807 85.0748 11.922 85.0748 16.4488C85.0748 20.9093 81.2648 24.5749 76.6704 24.5528C72.1208 24.5528 68.4453 20.843 68.4453 16.2942V16.2721Z" stroke="#1EC29D" stroke-width="0.5"/>
<path d="M68.2211 11.2148C68.0418 11.7889 67.728 11.6785 67.4143 11.5019C66.3385 10.8836 65.2627 10.2874 64.187 9.66907C63.7387 9.40409 63.2681 9.18327 62.8423 8.89621C62.6854 8.7858 62.6854 8.49873 62.6182 8.27791C62.8199 8.25583 63.0664 8.12334 63.2233 8.21167C64.7921 9.07286 66.3609 9.97821 67.9297 10.8615C68.0642 10.9498 68.1539 11.1044 68.2211 11.2148Z" fill="#1EC29D" stroke="#1EC29D" stroke-width="0.5"/>
<path d="M62.9322 24.6184C62.9322 24.6184 62.6408 24.4418 62.6184 24.3314C62.596 24.1768 62.6408 23.956 62.7529 23.8676C63.0218 23.6468 63.3132 23.5143 63.6045 23.3377C64.8372 22.6311 66.0698 21.9244 67.3024 21.262C67.5266 21.1516 67.9972 21.1074 68.0868 21.2399C68.3334 21.5711 67.9972 21.7699 67.7283 21.9465C66.2715 22.7636 64.8372 23.5806 63.3804 24.4197C63.2459 24.4859 63.089 24.5522 62.9097 24.6405L62.9322 24.6184Z" fill="#1EC29D" stroke="#1EC29D" stroke-width="0.5"/>
<path d="M76.3568 3.37585C76.3568 2.55883 76.3344 1.71972 76.3568 0.902689C76.3568 0.681871 76.6033 0.461053 76.7154 0.240234C76.8498 0.461053 77.1188 0.659789 77.1188 0.880607C77.1636 2.58091 77.1412 4.28121 77.1188 5.98151C77.1188 6.18025 76.8723 6.37898 76.7378 6.55564C76.6033 6.3569 76.3568 6.15816 76.3344 5.93735C76.2896 5.09824 76.3344 4.23704 76.3344 3.39794L76.3568 3.37585Z" fill="#1EC29D" stroke="#1EC29D" stroke-width="0.5"/>
<path d="M76.3566 29.2567C76.3566 28.4397 76.3342 27.6006 76.3566 26.7835C76.3566 26.5627 76.6031 26.3419 76.7376 26.1211C76.872 26.3198 77.141 26.5406 77.141 26.7394C77.1858 28.4176 77.1634 30.0958 77.141 31.774C77.141 31.9949 76.9169 32.3923 76.76 32.4144C76.3118 32.4586 76.3342 32.0611 76.3342 31.752C76.3342 30.9349 76.3342 30.0958 76.3342 29.2788L76.3566 29.2567Z" fill="#1EC29D" stroke="#1EC29D" stroke-width="0.5"/>
<path d="M91.1933 8.69682C90.9916 8.78514 90.7675 8.85139 90.5658 8.9618C89.0866 9.80091 87.585 10.6621 86.1058 11.4791C85.9266 11.5675 85.6352 11.4791 85.3887 11.4791C85.5007 11.2583 85.5456 10.9271 85.7248 10.8167C87.204 9.9334 88.6832 9.11637 90.1624 8.25518C90.4985 8.05645 90.7899 7.9902 91.1933 8.69682Z" fill="#1EC29D" stroke="#1EC29D" stroke-width="0.5"/>
<path d="M90.9691 24.3969C90.7226 24.3969 90.4313 24.5294 90.2295 24.441C89.4675 24.0656 88.728 23.6019 87.9884 23.1824C87.2264 22.7407 86.442 22.3433 85.7024 21.8575C85.5231 21.747 85.4783 21.4158 85.3662 21.195C85.6127 21.195 85.9041 21.0846 86.0834 21.1729C87.585 21.9899 89.0641 22.8511 90.5433 23.6903C90.7226 23.8007 90.8571 23.9773 91.014 24.1098C91.014 24.1981 90.9915 24.2865 90.9691 24.3748V24.3969Z" fill="#1EC29D" stroke="#1EC29D" stroke-width="0.5"/>
<path d="M63.6267 16.7357C63.1337 16.7357 62.6182 16.7798 62.1251 16.7357C61.901 16.7136 61.7217 16.4928 61.52 16.3603C61.7217 16.2278 61.901 15.9628 62.1027 15.9628C63.1337 15.9186 64.1422 15.9186 65.1731 15.9628C65.3748 15.9628 65.5541 16.2278 65.7334 16.3603C65.5317 16.4928 65.3524 16.7136 65.1283 16.7357C64.6352 16.7798 64.1422 16.7357 63.6267 16.7357Z" fill="#1EC29D" stroke="#1EC29D" stroke-width="0.5"/>
<path d="M89.8933 15.9396C90.4088 15.9396 90.9467 15.8954 91.4621 15.9396C91.6638 15.9396 91.8207 16.1825 92 16.3149C91.8207 16.4474 91.6638 16.7124 91.4845 16.7124C90.4088 16.7566 89.3554 16.7566 88.2797 16.7124C88.1228 16.7124 87.9435 16.4474 87.7866 16.3149C87.9659 16.1825 88.1228 15.9616 88.3245 15.9616C88.84 15.9175 89.3778 15.9616 89.8933 15.9616V15.9396Z" fill="#1EC29D" stroke="#1EC29D" stroke-width="0.5"/>
<path d="M84.5594 3.72846C84.5146 3.83887 84.4697 3.97136 84.4025 4.08177C83.9094 4.92088 83.4388 5.78207 82.9009 6.62118C82.7889 6.77575 82.4751 6.81991 82.2734 6.93032C82.2734 6.68742 82.1389 6.42244 82.2286 6.24579C82.6992 5.36251 83.2147 4.50132 83.7526 3.64013C83.8422 3.48556 84.0887 3.37515 84.2904 3.35307C84.4473 3.33099 84.649 3.41931 84.8283 3.48556C84.7387 3.57389 84.6714 3.66221 84.5818 3.75054L84.5594 3.72846Z" fill="#1EC29D" stroke="#1EC29D" stroke-width="0.5"/>
<path d="M69.2073 29.4769C69.1177 29.2119 68.9608 28.9469 69.028 28.7923C69.5659 27.7987 70.1486 26.805 70.7537 25.8555C70.8209 25.7451 71.1347 25.723 71.2692 25.7892C71.3588 25.8334 71.4709 26.1204 71.4036 26.2309C70.8434 27.2466 70.2382 28.2403 69.6331 29.234C69.5883 29.3223 69.4538 29.3444 69.1849 29.4769H69.2073Z" fill="#1EC29D" stroke="#1EC29D" stroke-width="0.5"/>
<path d="M84.1334 29.4332C83.9989 29.3228 83.842 29.2344 83.7748 29.1019C83.2369 28.2187 82.7215 27.3354 82.2284 26.4521C82.1388 26.2755 82.2732 26.0105 82.318 25.7676C82.5197 25.8559 82.8111 25.9001 82.9007 26.0546C83.4386 26.9158 83.9765 27.7991 84.4472 28.7045C84.5368 28.8811 84.4023 29.1682 84.3799 29.4111C84.2903 29.4111 84.223 29.4111 84.1334 29.4332Z" fill="#1EC29D" stroke="#1EC29D" stroke-width="0.5"/>
<path d="M69.5884 3.06641C69.6557 3.26514 69.7229 3.46388 69.8125 3.64053C70.3056 4.52381 70.8435 5.36292 71.3141 6.26827C71.4038 6.42284 71.3141 6.68783 71.2917 6.90864C71.0676 6.82032 70.7538 6.82032 70.6418 6.64366C70.0815 5.78247 69.566 4.8992 69.073 3.99384C68.9833 3.81719 69.1178 3.53012 69.1402 3.28722L69.5884 3.08849V3.06641Z" fill="#1EC29D" stroke="#1EC29D" stroke-width="0.5"/>
</g>
<defs>
<clipPath id="clip0_312_4808">
<rect width="30.4799" height="32.1732" fill="white" transform="translate(61.52 0.240234)"/>
</clipPath>
</defs>
</svg>
