<svg width="82" height="82" viewBox="0 0 82 82" fill="none" xmlns="http://www.w3.org/2000/svg">
<path d="M73.3555 81.2115C73.3555 80.8315 73.3555 80.4135 73.3555 79.8435C73.2793 78.8555 73.165 77.8675 73.1268 76.8795C72.9363 70.4195 70.1929 65.4795 64.2869 62.6295C60.3623 60.7295 56.3233 59.0195 52.2844 57.3475C49.8458 56.3595 48.1693 52.3315 49.4648 50.0515C54.4563 41.0835 56.2471 31.3935 56.3233 21.2855C56.3233 16.2695 54.4944 12.2795 49.6553 10.1135C49.0075 9.80952 48.436 9.27752 47.8644 8.82152C44.4352 6.04752 40.5486 4.37552 36.1668 4.33752C26.0694 4.26152 18.1439 11.3295 17.2295 22.8815C16.5055 31.9255 18.7536 40.5135 22.8687 48.4935C24.1261 50.9255 24.1262 52.9395 23.2879 55.2955C22.9068 56.3595 22.2972 56.9295 21.1922 57.3095C15.7435 59.1335 10.4471 61.2995 5.83661 64.8335C3.01697 66.9995 1.11181 69.6595 0.806989 73.2695C0.578369 75.6635 0.273549 78.0195 0.0830332 80.4135C0.0830332 80.7175 0.0449219 80.9835 0.0449219 81.2115H73.4698H73.3555ZM44.9686 64.6055C40.9297 68.0255 32.6232 68.1015 28.508 64.7955C25.2311 62.1735 24.6977 59.1715 26.6029 54.7255C33.2328 57.9555 39.7104 57.9175 46.2641 54.8015C48.6646 57.9175 48.1693 61.9075 44.9305 64.6435L44.9686 64.6055ZM21.9543 37.7015C21.2303 33.2935 22.9069 29.1135 24.3929 24.9715C32.4708 30.5955 40.2057 28.3155 48.3979 24.7815C49.2362 27.6315 50.303 30.4055 50.7984 33.2555C52.0558 40.8175 48.5503 46.9355 43.9017 52.2935C42.7586 53.5855 40.0914 53.8895 38.0719 54.0795C35.9762 54.2695 33.7282 54.0415 31.6706 53.5475C30.337 53.2055 28.9272 52.3315 28.0508 51.2675C24.812 47.3535 22.7925 42.7175 21.9924 37.7775L21.9543 37.7015Z" fill="#1EC29D"/>
<path d="M58.4956 33.9389C58.648 32.6469 58.8004 31.4689 58.991 30.1009C63.1823 31.4689 67.0688 31.3929 70.7648 29.2649C73.394 27.7829 75.261 25.6549 76.4422 22.8809C78.8808 17.1049 76.9757 10.5309 71.7555 6.80694C67.3356 3.65294 59.753 3.08294 53.9994 8.97294C52.9706 8.36494 51.9419 7.75694 50.9131 7.14894C53.7327 2.09494 63.1442 -1.66705 71.184 1.94294C79.7572 5.78094 83.7199 15.6989 80.1001 24.4009C76.6327 32.7229 66.764 37.1309 58.4956 33.9009V33.9389Z" fill="#1EC29D"/>
<path d="M63.8297 20.3357C63.1057 19.6517 61.8483 19.0057 61.8102 18.2837C61.6959 16.0417 60.1718 14.6357 59.2192 12.8877C58.762 12.0137 57.9618 11.2917 57.6951 10.3797C57.4664 9.73369 57.8094 8.89769 57.9237 8.1377C58.6477 8.3657 59.6764 8.3657 60.0956 8.85969C61.2768 10.3417 62.3056 11.9757 63.22 13.6477C64.2488 15.5097 65.6586 16.0797 67.6781 15.5097C68.5545 15.2437 69.5071 14.9777 70.3834 15.0537C71.1455 15.1677 71.8314 15.7757 72.5553 16.1937C72.0219 16.7637 71.6408 17.6377 70.9931 17.8277C69.7357 18.2837 68.3259 18.2457 67.0304 18.6257C66.0016 18.9297 65.1252 19.6137 63.8297 20.2977V20.3357Z" fill="#1EC29D"/>
<path d="M33.9185 46.0229C35.557 45.3009 37.424 45.3009 39.0625 46.0229C39.9388 46.4029 40.7771 46.7829 41.5773 47.2389C41.7297 47.3149 41.8059 47.5429 41.8821 47.8089C42.0726 48.6829 41.463 49.5189 40.5866 49.5949C40.358 49.5949 40.1294 49.5949 39.9769 49.5189C37.6145 48.0369 35.4045 48.0749 33.0422 49.5569C32.9278 49.6329 32.7754 49.6709 32.5849 49.6709C31.7085 49.6709 31.0227 48.8349 31.137 47.9609C31.137 47.6569 31.2513 47.3909 31.4037 47.3149C32.2039 46.8589 33.0422 46.4409 33.9185 46.0609V46.0229Z" fill="#1EC29D"/>
<path d="M30.8325 40.8173C29.4227 41.3873 27.7842 41.3493 26.4125 40.7033C26.222 40.6273 26.0315 40.5133 25.8791 40.3993C25.4599 40.0953 25.1551 39.0313 25.3456 38.5753C25.5742 38.1573 26.4887 37.9673 27.1365 37.8913C28.2033 37.7773 29.2702 37.8153 30.299 37.8913C30.7182 37.9293 31.0992 38.0813 31.5183 38.2333C31.9756 38.4233 32.2042 38.9173 32.0518 39.3733C31.8994 39.8293 31.747 40.2473 31.4421 40.4373C31.2516 40.5513 31.0611 40.6653 30.8325 40.7413V40.8173Z" fill="#1EC29D"/>
<path d="M46.1119 40.665C44.664 41.311 42.9874 41.273 41.5395 40.665C41.2728 40.551 41.0061 40.399 40.7393 40.247C40.3583 40.019 40.1297 38.955 40.3583 38.537C40.5869 38.119 41.4252 37.891 42.0348 37.815C43.1779 37.701 44.3591 37.701 45.5403 37.815C46.1881 37.891 46.9883 38.157 47.2931 38.613C47.5217 38.955 47.1788 40.019 46.7596 40.285C46.5691 40.437 46.3405 40.551 46.1119 40.627V40.665Z" fill="#1EC29D"/>
<path d="M31.1371 33.9772C31.1371 35.4212 30.2226 36.4472 28.7747 36.4852C27.3648 36.5232 26.298 35.4972 26.2599 34.1292C26.2217 32.7612 27.2124 31.6972 28.6604 31.6592C30.1464 31.6592 31.1371 32.5332 31.1752 34.0152L31.1371 33.9772Z" fill="#1EC29D"/>
<path d="M46.1497 34.0532C46.1497 35.4592 45.0828 36.4852 43.673 36.4852C42.2632 36.4852 41.2344 35.4592 41.2344 34.0532C41.2344 32.6092 42.2251 31.6592 43.673 31.6592C45.1209 31.6592 46.1497 32.6472 46.1497 34.0532Z" fill="#1EC29D"/>
</svg>
