<svg width="94" height="83" viewBox="0 0 94 83" fill="none" xmlns="http://www.w3.org/2000/svg">
<path d="M67.7788 68.3711H27.8483C27.8483 71.4489 27.8483 74.4508 27.8483 77.4907C27.8483 80.7966 26.2861 82.6965 23.6571 82.6965C21.0662 82.6965 19.5421 80.7586 19.5421 77.5287C19.5421 74.6028 19.5421 71.6769 19.5421 68.713C19.5421 68.6371 19.504 68.5611 19.3897 68.2571C18.9706 68.2571 18.5133 68.2571 18.0561 68.2571C14.1697 68.1811 10.2834 68.1431 6.4351 68.0671C2.70113 67.9911 0.224517 65.7492 0.148313 62.0633C0.0340082 56.0976 0.0721099 50.1318 0.148313 44.204C0.148313 41.5821 1.48187 39.6822 3.95848 38.7702C6.32079 37.8963 8.41638 38.5422 10.1691 40.3282C12.6076 42.7981 15.0842 45.23 17.5227 47.6999C20.5708 50.7778 24.1905 52.2977 28.5341 52.2597C47.6992 52.2597 66.8644 52.2597 86.0677 52.2597C89.573 52.2597 91.4781 53.5517 92.5069 56.8575C93.3832 59.6694 93.307 62.4813 92.0115 65.1792C91.0209 67.1931 89.3825 68.3711 87.0202 68.3331C83.4386 68.2951 79.8952 68.3331 76.1612 68.3331C76.1612 68.865 76.085 69.321 76.085 69.777C76.085 72.6649 76.085 75.5528 76.085 78.4407C76.085 80.9106 74.3704 82.6585 72.0462 82.6965C69.7601 82.6965 67.9313 81.0245 67.8551 78.5926C67.7788 75.7048 67.8551 72.8169 67.8551 69.929C67.8551 69.435 67.8551 68.979 67.8551 68.4091L67.7788 68.3711Z" fill="#1EC29D"/>
<path d="M50.4805 0.696289C54.062 0.696289 57.6436 0.696289 61.1871 0.696289C64.7305 0.696289 66.7499 2.71021 66.7499 6.24407C66.7499 10.9179 66.7499 15.5537 66.7499 20.2275C66.7499 23.5714 64.7305 25.5853 61.3776 25.5853C54.062 25.5853 46.7084 25.5853 39.3929 25.5853C36.0018 25.5853 33.9443 23.5334 33.9443 20.1515C33.9443 15.4777 33.9443 10.8419 33.9443 6.16807C33.9443 2.9382 36.1161 0.734288 39.3548 0.734288C43.0887 0.734288 46.7846 0.734288 50.5186 0.734288L50.4805 0.696289ZM53.3381 16.5417C53.1095 15.9337 52.9952 15.5917 52.8428 15.2117C52.0045 12.7798 51.1663 10.3479 50.3662 7.87801C50.0995 7.00404 49.566 6.47206 48.6897 6.43406C47.8515 6.43406 47.318 6.92803 46.937 7.688C46.2512 9.16994 45.4892 10.6139 44.7271 12.0958C44.6128 11.9818 44.5747 11.9438 44.5366 11.8678C44.1556 10.8039 43.8127 9.73993 43.4317 8.67597C43.0125 7.53602 41.8695 6.89004 41.1456 7.57401C40.2311 8.40998 39.2405 8.44798 38.1355 8.44798C37.2973 8.44798 36.802 8.94196 36.8401 9.73992C36.8401 10.5759 37.3354 11.1079 38.2117 11.1079C39.2024 11.1079 40.2311 11.1079 41.3742 11.1079C41.6028 11.7538 41.9076 12.5518 42.1743 13.3878C42.5172 14.5657 43.2412 15.3257 44.4604 15.4017C45.7178 15.4777 46.4798 14.7937 46.9751 13.6918C47.3942 12.7798 47.8896 11.8678 48.4611 10.7659C49.2993 13.2358 50.0614 15.5157 50.8234 17.7956C51.1663 18.8216 51.7759 19.5815 52.9571 19.6955C54.1763 19.8095 54.9765 19.2395 55.5099 18.2136C56.5387 16.1617 57.5674 14.1477 58.5961 12.0958C59.1677 10.9559 59.4725 10.8419 60.5774 11.5259C61.5681 12.0958 62.6349 11.9818 63.3208 11.1459C64.0066 10.3479 64.0066 9.24594 63.3208 8.44798C62.6349 7.61201 61.6062 7.46002 60.5393 7.992C60.0821 8.21999 59.5487 8.40998 59.0153 8.40998C57.8341 8.40998 56.9578 8.78997 56.5386 9.96792C56.3481 10.4239 56.0814 10.8799 55.8528 11.3359C55.0146 13.0078 54.1763 14.6797 53.2238 16.5417H53.3381Z" fill="#1EC29D"/>
<path d="M54.2524 48.3844C46.6702 48.3844 39.0879 48.3844 31.5438 48.3844C27.3907 48.3844 24.6474 46.1044 24.0759 42.2666C23.4662 38.3148 26.5144 34.5909 30.5532 34.4009C41.9456 33.8309 52.8427 35.9968 63.3587 40.4047C64.7685 40.9746 66.3688 41.2026 67.8928 41.3166C69.7979 41.4686 71.703 41.3546 73.6462 41.3166C75.7037 41.3166 77.0753 40.1767 77.5707 38.2008C77.7993 37.3268 77.9898 36.4908 78.2184 35.6169C78.7137 33.6029 80.314 32.501 82.1048 32.881C83.9718 33.2989 85.0386 35.0849 84.6195 37.0988C84.1242 39.3787 83.5907 41.6966 82.9811 43.9385C82.0667 47.4724 80.9236 48.3463 77.1896 48.3463C69.5693 48.3463 61.949 48.3463 54.3286 48.3463L54.2524 48.3844Z" fill="#1EC29D"/>
<path d="M16.4177 37.6327C12.6454 37.6327 9.63527 34.6687 9.59717 30.9067C9.59717 27.0687 12.6454 23.9907 16.4177 24.0287C20.1518 24.0287 23.2382 27.1447 23.2001 30.8687C23.2001 34.5927 20.1137 37.6327 16.3796 37.6327H16.4177Z" fill="#1EC29D"/>
</svg>
