<svg width="51" height="51" viewBox="0 0 51 51" fill="none" xmlns="http://www.w3.org/2000/svg">
<path d="M25.9609 50.6953C12.1726 50.6953 0.960938 39.4836 0.960938 25.6953C0.960938 11.907 12.1726 0.695312 25.9609 0.695312C39.7492 0.695312 50.9609 11.907 50.9609 25.6953C50.9609 39.5533 39.7492 50.6953 25.9609 50.6953Z" fill="#F0F0F0"/>
<path d="M22.1305 40.8065H28.189V25.6255H32.4369L32.8547 20.5419H28.2586C28.2586 20.5419 28.2586 18.6617 28.2586 17.6171C28.2586 16.4333 28.4675 15.9458 29.6514 15.9458C30.5567 15.9458 32.9243 15.9458 32.9243 15.9458V10.6533C32.9243 10.6533 29.4424 10.6533 28.7461 10.6533C24.2196 10.6533 22.2001 12.6728 22.2001 16.4333C22.2001 19.7759 22.2001 20.4723 22.2001 20.4723H19.0664V25.6255H22.2001V40.8065H22.1305Z" fill="#3E5C9A"/>
</svg>
