<svg width="17" height="33" viewBox="0 0 17 33" fill="none" xmlns="http://www.w3.org/2000/svg">
<path fill-rule="evenodd" clip-rule="evenodd" d="M2.41126 30.204C1.01389 28.6735 0.385742 26.5653 0.385742 24.0277L0.385742 8.57169C0.385742 6.03804 1.01213 3.93893 2.41495 2.43337C3.83073 0.885356 5.83972 0.179688 8.27374 0.179688C10.7078 0.179688 12.7168 0.885368 14.1326 2.43342C15.5354 3.93897 16.1617 6.03806 16.1617 8.57169V12.0917H9.79374V8.27769C9.79374 7.4243 9.61359 6.97023 9.42428 6.74107C9.2652 6.5485 8.98792 6.37969 8.39974 6.37969C7.81156 6.37969 7.53429 6.5485 7.3752 6.74107C7.1859 6.97023 7.00574 7.4243 7.00574 8.27769V24.3637C7.00574 25.2003 7.18475 25.6416 7.37061 25.8633C7.52815 26.0512 7.80676 26.2197 8.39974 26.2197C8.99273 26.2197 9.27134 26.0512 9.42887 25.8633C9.61474 25.6416 9.79374 25.2003 9.79374 24.3637V19.6097H7.48374V13.4097H16.1617V24.0277C16.1617 26.5653 15.5336 28.6735 14.1362 30.204L14.1288 30.212C12.7113 31.7309 10.7034 32.4197 8.27374 32.4197C5.8441 32.4197 3.83624 31.7308 2.41869 30.212L2.41126 30.204ZM10.7937 18.6097V24.3637C10.7937 26.2677 9.99574 27.2197 8.39974 27.2197C6.80374 27.2197 6.00574 26.2677 6.00574 24.3637V8.27769C6.00574 6.34569 6.80374 5.37969 8.39974 5.37969C9.99574 5.37969 10.7937 6.34569 10.7937 8.27769V11.0917H15.1617V8.57169C15.1617 6.19169 14.5737 4.37169 13.3977 3.11169C12.2217 1.82369 10.5137 1.17969 8.27374 1.17969C6.03374 1.17969 4.32574 1.82369 3.14974 3.11169C1.97374 4.37169 1.38574 6.19169 1.38574 8.57169V24.0277C1.38574 26.4077 1.97374 28.2417 3.14974 29.5297C4.32574 30.7897 6.03374 31.4197 8.27374 31.4197C10.5137 31.4197 12.2217 30.7897 13.3977 29.5297C14.5737 28.2417 15.1617 26.4077 15.1617 24.0277V14.4097H8.48374V18.6097H10.7937Z" fill="#1B997C"/>
</svg>
