<svg width="101" height="72" viewBox="0 0 101 72" fill="none" xmlns="http://www.w3.org/2000/svg">
<path d="M0.757812 71.9615V64.4231H6.57356V62.0842C6.57356 48.3993 6.57356 34.7144 6.57356 21.0295C6.57356 17.3976 7.74137 16.1458 11.136 16.1431C16.6178 16.1403 22.0995 16.1431 27.5786 16.1431H29.1607V18.0208C29.1607 32.2547 29.1607 46.4886 29.1607 60.7226C29.1607 61.2249 29.1529 61.7301 29.1659 62.2324C29.2254 64.4917 29.4947 64.7059 31.5636 64.2364C31.5636 62.6717 31.5636 61.1289 31.5636 59.5861C31.5636 41.3249 31.5636 23.0637 31.5636 4.8026C31.5636 1.27774 32.7599 0.00122009 36.0666 0.00122009C45.6913 0.00122009 55.316 -0.00152512 64.9407 0.00122009C68.079 0.00122009 69.3168 1.32441 69.3168 4.66534C69.3168 23.8434 69.3168 43.0187 69.3142 62.1967C69.3142 62.8721 69.252 63.5446 69.221 64.2172C71.4711 64.7278 71.7197 64.511 71.7197 61.8261C71.7275 47.271 71.7249 32.7187 71.7249 18.1635C71.7249 17.5761 71.7249 16.9886 71.7249 16.2529C72.2738 16.2144 72.7244 16.154 73.1775 16.1513C78.9182 16.1458 84.6588 16.1403 90.3969 16.1513C93.5611 16.1568 94.7678 17.447 94.7678 20.8154C94.7704 34.6376 94.7678 48.4597 94.7678 62.2818V64.3572H100.076V71.9697H0.757812V71.9615ZM50.4816 1.67854C43.6327 1.66482 38.1381 7.42153 38.0733 14.6771C38.0112 21.9162 43.6043 27.8514 50.4739 27.8377C57.2891 27.8212 62.8148 21.9657 62.82 14.754C62.8226 7.53134 57.3124 1.69227 50.4816 1.67854ZM43.5499 64.0553H58.1721V44.7262H43.5499V64.0553ZM90.1923 25.5811H85.2596V30.668H90.1923V25.5811ZM85.244 34.6129V39.7409H90.1613V34.6129H85.244ZM19.9943 43.8917V49.146H24.9581C24.9581 47.5977 24.9918 46.1071 24.9271 44.6219C24.9167 44.3693 24.4972 43.9383 24.2512 43.9246C22.8504 43.856 21.4469 43.8917 19.9943 43.8917ZM90.1639 49.146V43.9932H85.2492V49.146H90.1639ZM24.8468 30.7092V25.5784H19.9762V30.7092H24.8468ZM24.8753 34.6568H19.9995V39.7519H24.8753V34.6568ZM17.0243 25.5921H12.1821V30.679H17.0243V25.5921ZM82.3077 25.5948H77.4604V30.6762H82.3077V25.5948ZM12.1381 39.7382H16.9829V34.6458H12.1381V39.7382ZM77.4371 34.6211V39.7574H82.2896V34.6211H77.4371ZM12.1718 43.9603V49.1295H16.9647V43.9603H12.1718ZM77.4241 43.9521V49.1103H82.2766V43.9521H77.4241Z" fill="#1EC29D"/>
<path d="M43.2197 17.5654V11.2739H47.5415V6.47656H53.2629V11.2184H57.6137V17.5073H53.3112V22.3099H47.5994V17.5654H43.2221H43.2197Z" fill="#1EC29D"/>
</svg>
