<svg width="294" height="56" viewBox="0 0 294 56" fill="none" xmlns="http://www.w3.org/2000/svg">
<path d="M93.3445 2.28418C93.8759 2.28418 94.3242 2.46684 94.6563 2.81557C94.9885 3.1809 95.1545 3.62926 95.1545 4.16064V23.7722C95.1545 24.3534 94.9553 24.835 94.5733 25.2335C94.1914 25.6321 93.6932 25.8147 93.112 25.8147C92.8131 25.8147 92.5308 25.7649 92.2153 25.6653C91.9164 25.5656 91.6839 25.4162 91.5178 25.2501L78.2996 8.46157L79.1797 7.93018V23.9383C79.1797 24.4696 79.0136 24.918 78.6649 25.2833C78.3162 25.6487 77.8678 25.8147 77.3032 25.8147C76.7386 25.8147 76.3235 25.6321 75.9913 25.2833C75.6592 24.918 75.4932 24.4696 75.4932 23.9383V4.3267C75.4932 3.7455 75.6924 3.24732 76.0744 2.86539C76.4563 2.48345 76.9545 2.28418 77.5357 2.28418C77.8512 2.28418 78.1833 2.3506 78.5154 2.46685C78.8476 2.58309 79.0966 2.78236 79.2627 3.01484L92.0824 19.3716L91.5178 19.7702V4.16064C91.5178 3.62926 91.6839 3.1809 92.016 2.81557C92.3481 2.45024 92.7965 2.28418 93.3611 2.28418H93.3445Z" fill="white"/>
<path d="M103.94 2.28418C104.471 2.28418 104.952 2.48345 105.368 2.86539C105.783 3.24732 105.999 3.7455 105.999 4.3267V23.7722C105.999 24.3534 105.783 24.835 105.368 25.2335C104.952 25.6321 104.454 25.8147 103.89 25.8147C103.259 25.8147 102.76 25.6155 102.379 25.2335C101.997 24.835 101.814 24.3534 101.814 23.7722V4.3267C101.814 3.7455 102.013 3.24732 102.412 2.86539C102.81 2.48345 103.325 2.28418 103.956 2.28418H103.94ZM103.84 12.0817H118.852V15.9508H103.84V12.0817ZM118.852 2.28418C119.483 2.28418 119.981 2.48345 120.363 2.86539C120.745 3.26393 120.927 3.7455 120.927 4.3267V23.7722C120.927 24.3534 120.728 24.835 120.346 25.2335C119.964 25.6321 119.433 25.8147 118.785 25.8147C118.254 25.8147 117.772 25.6155 117.357 25.2335C116.942 24.8516 116.726 24.3534 116.726 23.7722V4.3267C116.726 3.7455 116.942 3.24732 117.357 2.86539C117.772 2.48345 118.27 2.28418 118.835 2.28418H118.852Z" fill="white"/>
<path d="M129.645 25.8314C129.014 25.8314 128.516 25.6321 128.134 25.2502C127.752 24.8516 127.569 24.3701 127.569 23.7889V4.34336C127.569 3.76215 127.769 3.26398 128.167 2.88204C128.566 2.50011 129.08 2.30083 129.711 2.30083C130.343 2.30083 130.841 2.50011 131.206 2.88204C131.571 3.26398 131.754 3.76215 131.754 4.34336V23.7889C131.754 24.3701 131.555 24.8516 131.189 25.2502C130.824 25.6487 130.293 25.8314 129.645 25.8314ZM144.175 2.11817C144.707 2.11817 145.155 2.33404 145.504 2.7824C145.852 3.21416 146.018 3.66252 146.018 4.11088C146.018 4.57584 145.819 5.0242 145.421 5.42274L131.322 18.9067L131.156 14.091L142.531 2.88204C143.046 2.36726 143.594 2.10156 144.175 2.10156V2.11817ZM143.777 25.8314C143.146 25.8314 142.647 25.5657 142.266 25.0509L134.494 14.8217L137.549 11.6998L145.587 22.3275C145.902 22.7593 146.052 23.2076 146.052 23.7058C146.052 24.3368 145.819 24.8516 145.338 25.2336C144.873 25.6321 144.341 25.8148 143.76 25.8148L143.777 25.8314Z" fill="white"/>
<path d="M164.302 2.25196C164.617 2.25196 164.949 2.33499 165.298 2.50105C165.647 2.66711 165.913 2.88299 166.095 3.14868L174.265 15.7359L172.588 15.6695L180.958 3.14868C181.389 2.55087 181.937 2.23536 182.602 2.23536C183.133 2.23536 183.614 2.43463 184.046 2.79996C184.478 3.18189 184.677 3.68007 184.677 4.27788V23.7566C184.677 24.3378 184.478 24.8194 184.113 25.2179C183.747 25.6164 183.233 25.7991 182.602 25.7991C181.97 25.7991 181.456 25.5998 181.074 25.2179C180.675 24.8194 180.493 24.3378 180.493 23.7566V7.91457L181.804 8.21348L174.946 18.6752C174.747 18.9243 174.498 19.1402 174.182 19.3062C173.883 19.4889 173.568 19.5719 173.252 19.5387C172.953 19.5553 172.671 19.4889 172.356 19.3062C172.057 19.1235 171.808 18.9077 171.592 18.6752L165.165 8.51238L166.045 6.73555V23.7566C166.045 24.3378 165.863 24.8194 165.514 25.2179C165.149 25.6164 164.684 25.7991 164.103 25.7991C163.521 25.7991 163.09 25.5998 162.724 25.2179C162.359 24.8194 162.193 24.3378 162.193 23.7566V4.27788C162.193 3.71328 162.392 3.23171 162.824 2.83317C163.239 2.43463 163.737 2.21875 164.318 2.21875L164.302 2.25196Z" fill="white"/>
<path d="M199.457 26.1641C197.547 26.1641 195.903 25.7655 194.491 24.9684C193.096 24.1713 192.017 23.092 191.27 21.7137C190.523 20.352 190.141 18.791 190.141 17.064C190.141 15.0381 190.556 13.3277 191.369 11.8996C192.183 10.4715 193.263 9.3755 194.574 8.61163C195.886 7.84776 197.298 7.46582 198.776 7.46582C199.921 7.46582 201.001 7.6983 202.03 8.16327C203.06 8.62823 203.957 9.27586 204.737 10.1062C205.518 10.9365 206.149 11.8664 206.597 12.9458C207.062 14.0251 207.295 15.171 207.295 16.3832C207.278 16.9146 207.062 17.3629 206.663 17.695C206.265 18.0272 205.783 18.1932 205.252 18.1932H192.399L191.386 14.8222H203.741L202.994 15.5031V14.5897C202.944 13.9421 202.711 13.3609 202.296 12.8461C201.881 12.3313 201.366 11.9162 200.752 11.6173C200.137 11.3184 199.473 11.1689 198.776 11.1689C198.078 11.1689 197.48 11.252 196.899 11.4346C196.318 11.6173 195.803 11.9162 195.388 12.348C194.973 12.7797 194.624 13.3443 194.375 14.0584C194.126 14.7724 194.01 15.6857 194.01 16.7817C194.01 17.994 194.259 19.0235 194.774 19.8538C195.272 20.7007 195.936 21.3317 196.733 21.7801C197.53 22.2119 198.377 22.4277 199.274 22.4277C200.104 22.4277 200.768 22.3613 201.267 22.2285C201.765 22.0956 202.163 21.9296 202.462 21.7469C202.761 21.5642 203.043 21.3982 203.292 21.2653C203.691 21.066 204.073 20.9664 204.438 20.9664C204.936 20.9664 205.335 21.1325 205.667 21.4646C205.999 21.7967 206.149 22.1952 206.149 22.6436C206.149 23.2414 205.833 23.806 205.202 24.2876C204.621 24.7858 203.807 25.2175 202.744 25.5828C201.682 25.9482 200.602 26.1308 199.473 26.1308L199.457 26.1641Z" fill="white"/>
<path d="M227.138 0.939463C227.72 0.939463 228.201 1.13873 228.583 1.50406C228.965 1.86939 229.148 2.38417 229.148 2.98199V23.7726C229.148 24.3538 228.948 24.8353 228.583 25.2339C228.218 25.6324 227.72 25.8151 227.138 25.8151C226.557 25.8151 226.076 25.6158 225.694 25.2339C225.312 24.8519 225.129 24.3538 225.129 23.7726V22.1286L225.876 22.4275C225.876 22.7264 225.727 23.0751 225.411 23.4903C225.096 23.9054 224.664 24.3206 224.133 24.7191C223.601 25.1176 222.954 25.4664 222.24 25.7487C221.509 26.031 220.712 26.1638 219.865 26.1638C218.321 26.1638 216.909 25.7653 215.664 24.9682C214.402 24.1711 213.422 23.0751 212.691 21.6636C211.961 20.2687 211.595 18.6579 211.595 16.8313C211.595 15.0047 211.961 13.3773 212.691 11.9658C213.422 10.5709 214.402 9.45828 215.63 8.6612C216.859 7.86412 218.238 7.46557 219.732 7.46557C220.695 7.46557 221.575 7.61503 222.389 7.89733C223.203 8.19623 223.9 8.56156 224.498 9.00992C225.096 9.45828 225.544 9.90664 225.876 10.3716C226.208 10.8366 226.358 11.2185 226.358 11.534L225.146 11.9658V2.94877C225.146 2.36757 225.345 1.86939 225.71 1.48746C226.076 1.10552 226.574 0.90625 227.155 0.90625L227.138 0.939463ZM220.347 22.4773C221.326 22.4773 222.19 22.2282 222.937 21.73C223.684 21.2319 224.249 20.5676 224.664 19.7041C225.079 18.8572 225.295 17.8941 225.295 16.8479C225.295 15.8017 225.096 14.8054 224.664 13.9585C224.232 13.1116 223.668 12.4307 222.937 11.9326C222.19 11.4344 221.326 11.1853 220.347 11.1853C219.367 11.1853 218.536 11.4344 217.789 11.9326C217.042 12.4307 216.477 13.095 216.062 13.9585C215.647 14.822 215.448 15.7685 215.448 16.8479C215.448 17.9273 215.647 18.8572 216.062 19.7041C216.477 20.551 217.059 21.2319 217.789 21.73C218.536 22.2282 219.383 22.4773 220.347 22.4773Z" fill="white"/>
<path d="M236.87 5.63874C236.106 5.63874 235.574 5.52249 235.259 5.27341C234.943 5.02432 234.794 4.59257 234.794 3.96154V3.33052C234.794 2.68289 234.96 2.23453 235.309 2.00205C235.657 1.76956 236.189 1.65332 236.903 1.65332C237.683 1.65332 238.231 1.76956 238.547 2.01865C238.862 2.26774 239.012 2.69949 239.012 3.33052V3.96154C239.012 4.60917 238.846 5.05753 238.514 5.29001C238.182 5.52249 237.634 5.63874 236.87 5.63874ZM238.929 23.7724C238.929 24.3536 238.73 24.8351 238.364 25.2337C237.999 25.6322 237.501 25.8149 236.919 25.8149C236.338 25.8149 235.857 25.6156 235.475 25.2337C235.093 24.8518 234.91 24.3536 234.91 23.7724V9.87324C234.91 9.29203 235.109 8.79386 235.475 8.41192C235.84 8.02998 236.338 7.83071 236.919 7.83071C237.501 7.83071 237.982 8.02998 238.364 8.41192C238.746 8.79386 238.929 9.29203 238.929 9.87324V23.7724Z" fill="white"/>
<path d="M252.644 7.49805C253.923 7.49805 255.036 7.63089 255.999 7.89659C256.962 8.16228 257.693 8.54422 258.224 9.02579C258.755 9.50736 259.021 10.0886 259.021 10.7528C259.021 11.2012 258.888 11.6163 258.623 12.0149C258.357 12.4134 257.958 12.5961 257.443 12.5961C257.078 12.5961 256.779 12.5462 256.547 12.4466C256.314 12.347 256.098 12.2141 255.916 12.0647C255.733 11.9152 255.517 11.7658 255.285 11.6329C255.069 11.5001 254.72 11.4004 254.255 11.3174C253.79 11.2344 253.458 11.2012 253.226 11.2012C252.08 11.2012 251.117 11.4502 250.32 11.9484C249.522 12.4466 248.908 13.1108 248.493 13.9577C248.061 14.8046 247.862 15.7678 247.862 16.8638C247.862 17.9598 248.078 18.9063 248.526 19.7366C248.958 20.5835 249.572 21.2477 250.336 21.7459C251.1 22.2441 251.997 22.4932 253.01 22.4932C253.574 22.4932 254.056 22.46 254.454 22.3935C254.853 22.3271 255.202 22.2275 255.467 22.0946C255.783 21.912 256.065 21.7293 256.314 21.53C256.563 21.3308 256.929 21.2311 257.427 21.2311C258.008 21.2311 258.456 21.4138 258.772 21.7791C259.087 22.1444 259.237 22.6094 259.237 23.1408C259.237 23.6722 258.921 24.2036 258.29 24.6685C257.659 25.1335 256.846 25.4988 255.816 25.7811C254.787 26.0634 253.691 26.1963 252.495 26.1963C250.718 26.1963 249.19 25.7811 247.878 24.9674C246.583 24.1538 245.57 23.0246 244.873 21.6131C244.175 20.2016 243.81 18.624 243.81 16.8638C243.81 15.0205 244.192 13.4097 244.939 11.9982C245.687 10.6033 246.733 9.49076 248.061 8.69367C249.39 7.89659 250.934 7.49805 252.661 7.49805H252.644Z" fill="white"/>
<path d="M278.45 7.49903C279.031 7.49903 279.513 7.6817 279.895 8.06363C280.276 8.44557 280.459 8.94374 280.459 9.54156V23.7728C280.459 24.354 280.26 24.8356 279.895 25.2341C279.529 25.6327 279.031 25.8153 278.45 25.8153C277.869 25.8153 277.387 25.6161 277.005 25.2341C276.623 24.8522 276.441 24.354 276.441 23.7728V22.1288L277.188 22.4277C277.188 22.7266 277.038 23.0754 276.723 23.4905C276.407 23.9057 275.976 24.3208 275.444 24.7193C274.913 25.1179 274.265 25.4666 273.551 25.7489C272.82 26.0312 272.023 26.1641 271.176 26.1641C269.632 26.1641 268.221 25.7655 266.975 24.9684C265.713 24.1713 264.733 23.0754 264.003 21.6639C263.272 20.269 262.907 18.6582 262.907 16.8315C262.907 15.0049 263.272 13.3775 264.003 11.966C264.733 10.5711 265.713 9.45853 266.942 8.66145C268.171 7.86436 269.549 7.46582 271.044 7.46582C272.007 7.46582 272.887 7.61527 273.701 7.89757C274.514 8.19648 275.212 8.56181 275.809 9.01017C276.407 9.45853 276.856 9.90689 277.188 10.3719C277.52 10.8368 277.669 11.2188 277.669 11.5343L276.457 11.966V9.50835C276.457 8.92714 276.656 8.44557 277.022 8.04703C277.387 7.64849 277.885 7.46582 278.466 7.46582L278.45 7.49903ZM271.658 22.4609C272.638 22.4609 273.501 22.2118 274.249 21.7137C274.996 21.2155 275.56 20.5513 275.976 19.6878C276.391 18.8409 276.607 17.8777 276.607 16.8315C276.607 15.7854 276.407 14.789 275.976 13.9421C275.544 13.0952 274.979 12.4144 274.249 11.9162C273.501 11.418 272.638 11.1689 271.658 11.1689C270.678 11.1689 269.848 11.418 269.101 11.9162C268.353 12.4144 267.789 13.0786 267.374 13.9421C266.959 14.8056 266.759 15.7522 266.759 16.8315C266.759 17.9109 266.959 18.8409 267.374 19.6878C267.789 20.5347 268.37 21.2155 269.101 21.7137C269.848 22.2118 270.695 22.4609 271.658 22.4609Z" fill="white"/>
<path d="M290.789 23.7716C290.789 24.3528 290.589 24.8344 290.207 25.2329C289.826 25.6314 289.327 25.8141 288.746 25.8141C288.165 25.8141 287.717 25.6148 287.335 25.2329C286.953 24.8344 286.77 24.3528 286.77 23.7716V2.981C286.77 2.39979 286.969 1.90162 287.351 1.51968C287.733 1.13774 288.231 0.938477 288.813 0.938477C289.394 0.938477 289.875 1.13774 290.241 1.51968C290.606 1.90162 290.789 2.39979 290.789 2.981V23.7716Z" fill="white"/>
<path fill-rule="evenodd" clip-rule="evenodd" d="M9.60107 16.1491C10.531 15.5513 11.0126 14.6048 11.8927 13.8243L15.2471 10.2873C15.6622 9.83889 15.9113 9.50678 16.3099 9.04181C19.4982 5.28888 21.8396 6.40147 24.5962 9.8555L30.0429 15.9C30.4249 16.365 30.6573 16.7303 31.0725 17.1787L38.6614 25.6643C39.143 26.1791 39.3588 26.3119 39.7906 26.8267C41.0858 28.4209 43.9088 30.6129 41.8165 32.7384C40.87 33.7016 39.9234 33.4691 38.4123 33.8676L38.2794 42.785C39.2758 42.5359 41.0692 41.2572 41.9826 40.7092C50.0862 35.8603 58.7877 26.8433 58.7545 16.8134C58.7213 6.61735 53.3908 -3.29637 41.5342 1.4031C38.0802 2.78139 36.8679 3.97702 34.1944 5.77045C33.3309 4.47519 29.2625 1.71861 27.469 1.00456C23.932 -0.406941 21.3082 -0.357122 18.0369 1.32007C13.8854 3.44563 9.61768 9.88871 9.61768 16.1325M42.9291 3.6449C46.9809 1.70201 51.8132 3.3792 53.507 6.1856C55.4665 9.45696 55.1344 16.996 54.0883 18.5072C53.6399 14.7044 52.8262 11.1508 51.0162 8.42739C48.6747 4.89034 46.3665 4.39216 42.9291 3.6449Z" fill="white"/>
<path fill-rule="evenodd" clip-rule="evenodd" d="M33.5469 46.6874C33.0819 45.1098 32.4841 45.9899 31.604 46.2224C29.4618 46.7704 25.9247 45.0268 24.3638 44.1134C18.9503 40.9417 16.6421 44.0802 15.1309 44.8441C11.4776 42.5525 8.40554 36.9397 8.23948 33.6019L6.66192 27.5906C5.36666 19.7526 4.80206 14.6878 4.80206 6.01953H4.33709C4.10461 6.99928 3.88873 7.29818 3.5234 8.1783C-1.37533 19.8024 -1.8403 34.1001 6.47925 44.3293C14.0681 53.6618 24.5299 58.7432 35.7056 52.1175L38.4788 50.2908C39.0102 49.8259 38.9438 50.0417 39.0102 49.2114C34.8587 49.2114 33.6133 50.3407 26.506 49.3111C25.7753 49.2114 24.9616 49.1284 24.48 49.0454C23.6497 48.9125 23.2512 48.7631 22.4873 48.7465C22.9357 48.1487 22.6202 48.1819 25.2439 48.2815C27.4359 48.3646 32.7664 48.6302 33.5635 46.6874" fill="white"/>
<path fill-rule="evenodd" clip-rule="evenodd" d="M16.459 23.4722L16.5088 24.3523L19.8134 24.3191L19.8632 21.7119L19.0163 21.6123L16.459 21.6289V23.4722Z" fill="white"/>
<path fill-rule="evenodd" clip-rule="evenodd" d="M21.8232 24.3191L22.6868 24.3523H24.2975L25.1444 24.3357L25.2108 21.6455L21.8066 21.6289L21.8232 24.3191Z" fill="white"/>
<path fill-rule="evenodd" clip-rule="evenodd" d="M21.8066 28.5193L25.1942 28.5525L25.1776 25.8623L21.8731 25.8457L21.8066 28.5193Z" fill="white"/>
<path fill-rule="evenodd" clip-rule="evenodd" d="M16.459 28.5534L19.8466 28.5368L19.83 25.8965L16.542 25.8301L16.459 28.5534Z" fill="white"/>
<path d="M293.08 35.8125H73.1519V55.0421H293.08V35.8125Z" fill="white"/>
<g opacity="0.86">
<path opacity="0.94" d="M77.9017 41.7393V49.9758H76.5732V41.7393H77.9017Z" fill="#1EC29D"/>
<path opacity="0.94" d="M87.5493 41.7413V50.2601H87.516L81.5711 44.4979L81.6043 49.9612H80.2759V41.4424H80.3423L86.254 47.2711V41.7247H87.5493V41.7413Z" fill="#1EC29D"/>
<path opacity="0.94" d="M97.2309 41.7413V50.2601H97.1977L91.2528 44.4979L91.286 49.9612H89.9575V41.4424H90.0239L95.9356 47.2711V41.7247H97.2309V41.7413Z" fill="#1EC29D"/>
<path opacity="0.94" d="M99.6715 43.7672C100.053 43.1195 100.568 42.6047 101.199 42.2228C101.847 41.8409 102.544 41.6416 103.308 41.6416C104.072 41.6416 104.77 41.8409 105.401 42.2228C106.048 42.6047 106.563 43.1195 106.945 43.7672C107.327 44.4148 107.526 45.1122 107.526 45.8595C107.526 46.6068 107.327 47.3208 106.962 47.9684C106.58 48.6161 106.065 49.1143 105.417 49.4962C104.77 49.8781 104.072 50.0608 103.308 50.0608C102.544 50.0608 101.847 49.8781 101.199 49.4962C100.552 49.1143 100.037 48.6161 99.6715 47.9684C99.2896 47.3208 99.1069 46.6234 99.1069 45.8595C99.1069 45.0956 99.2896 44.3982 99.6715 43.7672ZM100.851 47.3374C101.1 47.7858 101.448 48.1345 101.897 48.4002C102.345 48.6659 102.827 48.7987 103.358 48.7987C103.889 48.7987 104.354 48.6659 104.786 48.4002C105.218 48.1345 105.55 47.7858 105.816 47.3374C106.065 46.8891 106.198 46.3909 106.198 45.8595C106.198 45.3281 106.065 44.8299 105.816 44.3816C105.567 43.9332 105.218 43.5679 104.77 43.3022C104.338 43.0365 103.856 42.9036 103.341 42.9036C102.827 42.9036 102.328 43.0365 101.897 43.3022C101.465 43.5679 101.116 43.9166 100.867 44.3816C100.618 44.8465 100.485 45.3281 100.485 45.8595C100.485 46.3909 100.618 46.8891 100.867 47.3208L100.851 47.3374Z" fill="#1EC29D"/>
<path opacity="0.94" d="M115.547 41.7393L111.861 50.3577L108.174 41.7393H109.752L111.927 47.1528L114.003 41.7393H115.547Z" fill="#1EC29D"/>
<path opacity="0.94" d="M120.379 48.034H117.39L116.593 49.9602H115.298L118.935 41.3916H119.018L122.654 49.9602H121.143L120.379 48.034ZM119.931 46.9048L118.901 44.2976L117.839 46.9048H119.931Z" fill="#1EC29D"/>
<path opacity="0.94" d="M128.434 41.7393V43.0013H126.308V49.9758H124.996V43.0013H122.92V41.7393H128.434Z" fill="#1EC29D"/>
<path opacity="0.94" d="M131.555 41.7393V49.9758H130.227V41.7393H131.555Z" fill="#1EC29D"/>
<path opacity="0.94" d="M140.605 41.7393L136.919 50.3577L133.232 41.7393H134.81L136.985 47.1528L139.061 41.7393H140.605Z" fill="#1EC29D"/>
<path opacity="0.94" d="M147.729 41.7402V43.0023H143.594V45.1943H147.281V46.4563H143.594V48.6981H147.895V49.9602H142.282V41.7236H147.746L147.729 41.7402Z" fill="#1EC29D"/>
<path opacity="0.94" d="M160.284 49.9758H158.956V46.4719H154.904V49.9758H153.575V41.7393H154.904V45.2099H158.956V41.7393H160.284V49.9758Z" fill="#1EC29D"/>
<path opacity="0.94" d="M168.122 41.7402V43.0023H163.987V45.1943H167.674V46.4563H163.987V48.6981H168.288V49.9602H162.675V41.7236H168.139L168.122 41.7402Z" fill="#1EC29D"/>
<path opacity="0.94" d="M174.449 48.034H171.46L170.662 49.9602H169.367L173.004 41.3916H173.087L176.724 49.9602H175.212L174.449 48.034ZM174 46.9048L172.971 44.2976L171.908 46.9048H174Z" fill="#1EC29D"/>
<path opacity="0.94" d="M179.58 41.7393V48.7137H183.648V49.9758H178.268V41.7393H179.597H179.58Z" fill="#1EC29D"/>
<path opacity="0.94" d="M189.527 41.7393V43.0013H187.402V49.9758H186.09V43.0013H184.014V41.7393H189.527Z" fill="#1EC29D"/>
<path opacity="0.94" d="M198.012 49.9758H196.684V46.4719H192.632V49.9758H191.303V41.7393H192.632V45.2099H196.684V41.7393H198.012V49.9758Z" fill="#1EC29D"/>
<path opacity="0.94" d="M205.501 49.8264C205.07 49.9924 204.605 50.0588 204.107 50.0588C203.26 50.0588 202.512 49.8762 201.865 49.4942C201.234 49.1123 200.736 48.6141 200.403 47.9831C200.055 47.3521 199.889 46.6546 199.889 45.9074C199.889 45.0771 200.055 44.3464 200.403 43.6988C200.752 43.0512 201.217 42.5364 201.832 42.171C202.446 41.8057 203.143 41.623 203.924 41.623C204.405 41.623 204.854 41.6895 205.269 41.8223C205.684 41.9552 206.049 42.1046 206.365 42.3039L205.85 43.5327C205.236 43.101 204.621 42.8851 203.99 42.8851C203.509 42.8851 203.06 43.0179 202.645 43.267C202.23 43.5327 201.898 43.8814 201.649 44.3298C201.4 44.7782 201.284 45.2763 201.284 45.8077C201.284 46.3723 201.4 46.8871 201.632 47.3355C201.865 47.7838 202.197 48.1326 202.612 48.3816C203.044 48.6307 203.525 48.7636 204.09 48.7636C204.489 48.7636 204.854 48.6972 205.169 48.5809C205.485 48.4647 205.751 48.2986 205.983 48.116L206.531 49.295C206.282 49.461 205.95 49.6271 205.535 49.7931L205.501 49.8264Z" fill="#1EC29D"/>
<path opacity="0.94" d="M212.609 48.034H209.62L208.823 49.9602H207.527L211.164 41.3916H211.247L214.884 49.9602H213.373L212.609 48.034ZM212.16 46.9048L211.131 44.2976L210.068 46.9048H212.16Z" fill="#1EC29D"/>
<path opacity="0.94" d="M220.912 49.9758L219.052 47.1196H217.724V49.9758H216.396V41.7393H218.72C219.634 41.7393 220.381 41.9717 220.929 42.4367C221.477 42.9017 221.759 43.5493 221.759 44.3796C221.759 44.8778 221.643 45.3593 221.444 45.7911C221.228 46.2229 220.896 46.555 220.431 46.7875L222.44 49.9592H220.912V49.9758ZM217.741 45.8409H218.92C219.451 45.8409 219.833 45.6915 220.065 45.4092C220.298 45.1269 220.414 44.7947 220.414 44.4294C220.414 44.2135 220.364 44.0143 220.281 43.7984C220.198 43.5825 220.032 43.3998 219.816 43.2504C219.6 43.1009 219.318 43.0179 218.953 43.0179H217.724V45.8575L217.741 45.8409Z" fill="#1EC29D"/>
<path opacity="0.94" d="M229.563 41.7402V43.0023H225.429V45.1943H229.115V46.4563H225.429V48.6981H229.729V49.9602H224.117V41.7236H229.58L229.563 41.7402Z" fill="#1EC29D"/>
<path opacity="0.94" d="M237.85 42.8528C237.435 42.8528 237.119 42.9359 236.887 43.1185C236.654 43.3012 236.538 43.5503 236.538 43.8658C236.538 44.1813 236.688 44.4304 236.986 44.6463C237.285 44.8622 237.7 45.0614 238.232 45.2607C238.647 45.4102 238.996 45.5762 239.278 45.7589C239.56 45.9415 239.809 46.1906 239.992 46.5061C240.175 46.8217 240.274 47.2202 240.274 47.7018C240.274 48.1335 240.158 48.5321 239.942 48.8974C239.726 49.2461 239.411 49.5284 238.996 49.7443C238.581 49.9602 238.099 50.0598 237.518 50.0598C237.02 50.0598 236.538 49.9768 236.056 49.8273C235.575 49.6779 235.143 49.462 234.761 49.1963L235.342 48.1667C235.625 48.3826 235.957 48.5487 236.339 48.6981C236.721 48.831 237.069 48.914 237.402 48.914C237.8 48.914 238.149 48.8144 238.448 48.6317C238.747 48.4324 238.896 48.1501 238.896 47.735C238.896 47.4195 238.763 47.1538 238.514 46.9379C238.265 46.722 237.9 46.5394 237.451 46.3567C236.986 46.1906 236.588 46.008 236.289 45.8419C235.973 45.6758 235.708 45.4268 235.492 45.1278C235.276 44.8289 235.16 44.447 235.16 43.982C235.16 43.3178 235.392 42.7698 235.841 42.3547C236.289 41.9395 236.903 41.7236 237.651 41.6904C238.199 41.6904 238.664 41.7569 239.079 41.8731C239.494 41.9893 239.876 42.172 240.225 42.4045L239.726 43.4174C239.012 43.0521 238.381 42.8694 237.833 42.8694L237.85 42.8528Z" fill="#1EC29D"/>
<path opacity="0.94" d="M247.581 41.7402V43.0023H243.447V45.1943H247.133V46.4563H243.447V48.6981H247.748V49.9602H242.135V41.7236H247.598L247.581 41.7402Z" fill="#1EC29D"/>
<path opacity="0.94" d="M254.19 49.9758L252.33 47.1196H251.002V49.9758H249.673V41.7393H251.998C252.911 41.7393 253.659 41.9717 254.207 42.4367C254.755 42.9017 255.037 43.5493 255.037 44.3796C255.037 44.8778 254.921 45.3593 254.722 45.7911C254.506 46.2229 254.174 46.555 253.709 46.7875L255.718 49.9592H254.19V49.9758ZM251.018 45.8409H252.197C252.729 45.8409 253.111 45.6915 253.343 45.4092C253.576 45.1269 253.692 44.7947 253.692 44.4294C253.692 44.2135 253.642 44.0143 253.559 43.7984C253.476 43.5825 253.31 43.3998 253.094 43.2504C252.878 43.1009 252.596 43.0179 252.231 43.0179H251.002V45.8575L251.018 45.8409Z" fill="#1EC29D"/>
<path opacity="0.94" d="M263.705 41.7393L260.019 50.3577L256.332 41.7393H257.91L260.085 47.1528L262.161 41.7393H263.705Z" fill="#1EC29D"/>
<path opacity="0.94" d="M266.694 41.7393V49.9758H265.365V41.7393H266.694Z" fill="#1EC29D"/>
<path opacity="0.94" d="M274.184 49.8264C273.752 49.9924 273.287 50.0588 272.789 50.0588C271.942 50.0588 271.195 49.8762 270.547 49.4942C269.916 49.1123 269.418 48.6141 269.086 47.9831C268.737 47.3521 268.571 46.6546 268.571 45.9074C268.571 45.0771 268.737 44.3464 269.086 43.6988C269.434 43.0512 269.899 42.5364 270.514 42.171C271.128 41.8057 271.826 41.623 272.606 41.623C273.088 41.623 273.536 41.6895 273.951 41.8223C274.366 41.9552 274.732 42.1046 275.047 42.3039L274.532 43.5327C273.918 43.101 273.303 42.8851 272.672 42.8851C272.191 42.8851 271.743 43.0179 271.327 43.267C270.912 43.5327 270.58 43.8814 270.331 44.3298C270.082 44.7782 269.966 45.2763 269.966 45.8077C269.966 46.3723 270.082 46.8871 270.314 47.3355C270.547 47.7838 270.879 48.1326 271.294 48.3816C271.726 48.6307 272.208 48.7636 272.772 48.7636C273.171 48.7636 273.536 48.6972 273.851 48.5809C274.167 48.4647 274.433 48.2986 274.665 48.116L275.213 49.295C274.964 49.461 274.632 49.6271 274.217 49.7931L274.184 49.8264Z" fill="#1EC29D"/>
<path opacity="0.94" d="M282.52 41.7402V43.0023H278.385V45.1943H282.072V46.4563H278.385V48.6981H282.686V49.9602H277.073V41.7236H282.537L282.52 41.7402Z" fill="#1EC29D"/>
<path opacity="0.94" d="M287.053 42.8528C286.638 42.8528 286.322 42.9359 286.09 43.1185C285.857 43.3012 285.741 43.5503 285.741 43.8658C285.741 44.1813 285.891 44.4304 286.19 44.6463C286.488 44.8622 286.904 45.0614 287.435 45.2607C287.85 45.4102 288.199 45.5762 288.481 45.7589C288.763 45.9415 289.013 46.1906 289.195 46.5061C289.378 46.8217 289.478 47.2202 289.478 47.7018C289.478 48.1335 289.361 48.5321 289.145 48.8974C288.93 49.2461 288.614 49.5284 288.199 49.7443C287.784 49.9602 287.302 50.0598 286.721 50.0598C286.223 50.0598 285.741 49.9768 285.26 49.8273C284.778 49.6779 284.346 49.462 283.964 49.1963L284.546 48.1667C284.828 48.3826 285.16 48.5487 285.542 48.6981C285.924 48.831 286.273 48.914 286.605 48.914C287.003 48.914 287.352 48.8144 287.651 48.6317C287.95 48.4324 288.099 48.1501 288.099 47.735C288.099 47.4195 287.966 47.1538 287.717 46.9379C287.468 46.722 287.103 46.5394 286.655 46.3567C286.19 46.1906 285.791 46.008 285.492 45.8419C285.177 45.6758 284.911 45.4268 284.695 45.1278C284.479 44.8289 284.363 44.447 284.363 43.982C284.363 43.3178 284.595 42.7698 285.044 42.3547C285.492 41.9395 286.107 41.7236 286.854 41.6904C287.402 41.6904 287.867 41.7569 288.282 41.8731C288.697 41.9893 289.079 42.172 289.428 42.4045L288.93 43.4174C288.215 43.0521 287.584 42.8694 287.036 42.8694L287.053 42.8528Z" fill="#1EC29D"/>
</g>
</svg>
