<svg width="74" height="83" viewBox="0 0 74 83" fill="none" xmlns="http://www.w3.org/2000/svg">
<path d="M54.8933 22.005C56.2714 22.005 57.305 22.005 58.3768 22.005C60.6353 22.0817 62.09 23.4235 62.2048 25.6854C62.2814 27.1805 62.2048 28.6757 62.2048 30.1708C62.2048 31.781 61.4009 32.8927 60.0228 33.7362C62.1282 43.1288 59.1424 51.2179 53.5918 58.5403C51.027 61.9523 49.7255 65.6327 50.2232 69.8881C50.4528 71.8817 50.8356 73.8752 51.2567 75.8687C51.563 77.4789 52.0223 79.0507 52.4051 80.6609C52.7879 82.271 52.252 82.9611 50.606 82.9994C42.9882 82.9994 35.3322 82.9994 27.7145 82.9994C26.2599 82.9994 25.8388 82.1944 25.5708 81.0059C25.0349 78.744 24.499 76.4821 23.8482 74.2969C23.1209 71.9583 21.8959 71.0766 19.4843 71.0766C17.1875 71.0766 14.8524 71.3066 12.5556 71.3833C7.84717 71.5366 6.27769 70.0798 5.85661 65.326C5.70349 63.6775 5.47381 62.0673 5.24413 60.4572C4.89961 58.1953 3.67465 56.4701 1.72237 55.2433C-0.306471 53.9399 -0.459591 52.5597 1.07161 50.7195C1.49269 50.2212 1.99033 49.7228 2.41141 49.1861C4.66993 46.5408 5.78005 43.5505 5.43553 39.9851C4.93789 35.0396 4.97617 30.1325 7.42609 25.5703C10.833 19.283 16.2688 15.6027 22.9678 13.6858C30.1261 11.6156 37.2845 12.0373 44.2515 14.6442C44.7108 14.8359 45.2468 14.7976 45.7827 14.7976C47.6967 14.7976 49.649 14.7209 51.563 14.7976C53.3238 14.8743 54.6636 16.1394 54.855 17.8646C54.9699 19.168 54.855 20.4715 54.855 22.005H54.8933ZM60.4822 28.0239C60.4822 27.4872 60.4822 26.9505 60.4822 26.4138C60.4439 24.3052 59.7932 23.6535 57.6878 23.6151C56.9222 23.6151 56.1566 23.6151 55.3527 23.6151C53.4004 23.6151 53.2473 23.4235 53.209 21.4299C53.209 20.5098 53.209 19.5897 53.209 18.6697C53.1324 17.1745 52.4434 16.4461 50.9505 16.3694C49.5724 16.2927 48.156 16.2927 46.7397 16.3694C45.3999 16.4461 44.596 17.1745 44.5577 18.5546C44.5577 19.7048 44.5194 20.8932 44.5577 22.0433C44.5577 23.1551 44.0601 23.6151 42.9882 23.5768C41.9164 23.5768 40.8446 23.5768 39.811 23.5768C38.0501 23.6535 37.3994 24.3052 37.3228 26.0687C37.2845 27.3339 37.2845 28.599 37.3228 29.8258C37.3994 31.5509 38.1267 32.2793 39.811 32.356C40.9211 32.3944 42.0312 32.3944 43.1414 32.356C44.1366 32.356 44.5577 32.8161 44.5194 33.7362C44.5194 34.8863 44.5194 36.0747 44.5194 37.2248C44.596 38.72 45.285 39.4867 46.7397 39.6018C48.1178 39.6784 49.5341 39.6784 50.9505 39.6018C52.4051 39.5251 53.0942 38.7583 53.209 37.2632C53.2856 36.2664 53.2473 35.2313 53.209 34.2345C53.1707 32.9311 53.6301 32.1643 55.0464 32.356C55.391 32.3944 55.7355 32.356 56.0417 32.356C60.2142 32.356 60.4439 32.126 60.4439 27.9472L60.4822 28.0239Z" fill="#1EC29D"/>
<path d="M59.9083 10.5044C59.1427 13.3413 58.4919 13.763 55.2381 13.6097C53.5155 13.533 52.7499 12.6896 52.4054 10.6194C49.6492 10.006 49.3047 9.46928 49.343 6.09561C49.343 4.25543 50.1086 3.52702 52.3288 3.10531C52.9796 0.421709 53.5155 0 56.2717 0C58.6068 0 59.2575 0.575058 59.8317 3.02864C62.3582 3.56536 62.9707 4.40878 62.8941 7.20739C62.8176 9.35427 62.052 10.1594 59.87 10.5044H59.9083ZM58.1091 4.71547C58.1091 4.25543 58.0326 3.87206 58.0708 3.52702C58.1857 2.10855 57.5349 1.68684 56.1951 1.68684C54.817 1.68684 54.0514 1.99353 54.2428 3.52702C54.396 4.60046 53.8983 5.06051 52.8265 4.90716C51.4101 4.71547 50.989 5.36721 51.0273 6.70901C51.0273 8.01247 51.1804 8.93256 52.7882 8.70254C53.9749 8.51085 54.396 9.08591 54.2428 10.1977C54.0514 11.6162 54.7405 11.9229 56.0037 11.8845C57.9943 11.8079 57.9943 11.8462 58.0326 9.81432C58.0326 9.50762 58.1091 9.16259 58.1474 8.89423C61.2098 8.31917 61.1332 8.31917 61.2098 6.594C61.3246 4.10208 59.3341 5.21386 58.1091 4.71547Z" fill="#1EC29D"/>
<path d="M67.3345 22.3511C66.1095 22.5044 65.0377 22.1594 64.5401 20.6643C64.4635 20.4342 64.2338 20.2042 64.0041 20.0509C61.4394 18.5557 61.4394 15.5654 64.0041 14.0703C64.2338 13.9553 64.4635 13.7252 64.5401 13.4569C65.0377 12.0384 66.1478 11.6934 67.5259 11.6934C68.9423 11.6934 70.1289 11.9617 70.55 13.5335C70.5883 13.7252 70.818 13.9169 71.0094 14.0319C73.689 15.6804 73.689 18.479 71.0094 20.0509C70.818 20.1659 70.6649 20.3576 70.55 20.5492C69.861 21.7505 68.7891 22.3511 67.3345 22.3511ZM69.0188 18.6324C69.7844 18.2874 71.0859 18.9391 71.1625 17.2139C71.2391 15.3737 69.9758 15.7571 69.0571 15.5654C68.7126 14.6837 69.3251 13.3802 67.6025 13.3419C65.8033 13.3035 66.2244 14.6453 66.033 15.6038C65.076 15.8338 63.7745 15.3354 63.8127 17.0989C63.8127 18.8624 65.1143 18.364 66.1095 18.6324C66.1095 19.6675 65.8799 20.7793 67.5642 20.7793C69.2868 20.7793 68.7126 19.4758 69.0188 18.6707V18.6324Z" fill="#1EC29D"/>
</svg>
