<svg width="538" height="419" viewBox="0 0 538 419" fill="none" xmlns="http://www.w3.org/2000/svg">
<path d="M136.116 138.899L112.238 209.766L145.072 230.018L144.481 319.356L237.605 370.573L427.432 333.053V237.762L451.31 232.399L434.604 144.852L237.002 199.641L136.116 138.899Z" fill="#1EC29D"/>
<path d="M235.589 370.574L234.98 197.458L434.448 141.969L451.311 230.634L427.208 236.066V332.574L235.589 370.574Z" fill="#1EC29D"/>
<path d="M135.254 138.743L311.621 99.0098L431.366 144.978L235.734 197.203L135.254 138.743Z" fill="#1B997C"/>
<path d="M149.062 229.929L221.429 266.177L230.378 204.873L228.558 284.655L149.062 229.929Z" fill="#1B997C"/>
<path d="M242.652 204.873L246.84 306.134L426.764 253.702V236.821L263.581 281.427L242.652 204.873Z" fill="#1B997C"/>
<path d="M205.981 178.229L222.372 146.955C222.372 146.955 203.76 101.367 202.762 86.9618C202.762 86.9618 233.652 74.5678 271.533 80.7301L318.661 31.501L337.837 90.9505L388.407 125.3L338.072 171.211L238.634 197.201L205.981 178.229Z" fill="#76D0BC"/>
<path d="M205.801 180.143C205.801 180.143 214.906 158.947 220.805 147.49C220.805 147.49 203.521 107.39 202.762 87.6787C202.762 87.6787 228.335 73.5325 268.735 81.4941L211.018 90.5898L226.358 147.946L210.873 183.393L205.801 180.143Z" fill="white"/>
<path d="M250.324 99.0098C250.324 99.0098 256.263 128.73 281.009 109.291" stroke="#1EC29D" stroke-width="3.06852" stroke-miterlimit="10" stroke-linecap="round"/>
<path d="M294.816 111.283C294.816 111.283 299.865 146.408 320.899 123.434" stroke="#1EC29D" stroke-width="3.06852" stroke-miterlimit="10" stroke-linecap="round"/>
<path d="M261.066 148.77C261.066 148.77 282.515 128.794 288.683 157.311" stroke="#1EC29D" stroke-width="3.06852" stroke-miterlimit="10" stroke-linecap="round"/>
<path d="M340.764 94.4062L388.408 126.752L338.703 172.913L317.832 178.791L368.375 126.007L340.764 94.4062Z" fill="#1EC29D"/>
<path d="M167.473 376.006C214.165 383.463 273.932 379.734 406.54 243.659C455.099 176.553 329.963 127.214 329.963 225.018C329.963 299.58 567.161 243.659 505.527 59.1182" stroke="#16836A" stroke-width="3.06852" stroke-dasharray="12.27 12.27"/>
<path d="M537.231 36.0987L443.641 0.816406L468.052 66.1616L496.688 56.8726L503.322 71.3924L499.098 55.9988L466.704 26.9591L514.179 51.7912L537.231 36.0987Z" fill="#76D0BC"/>
<path d="M14.0475 77.5287C20.8263 77.5287 26.3216 72.0334 26.3216 65.2546C26.3216 58.4758 20.8263 52.9805 14.0475 52.9805C7.26874 52.9805 1.77344 58.4758 1.77344 65.2546C1.77344 72.0334 7.26874 77.5287 14.0475 77.5287Z" stroke="#1EC29D" stroke-width="3.06852" stroke-miterlimit="10"/>
<path d="M14.0481 209.475C16.5901 209.475 18.6509 206.728 18.6509 203.338C18.6509 199.949 16.5901 197.201 14.0481 197.201C11.5061 197.201 9.44531 199.949 9.44531 203.338C9.44531 206.728 11.5061 209.475 14.0481 209.475Z" stroke="#1EC29D" stroke-width="3.06852" stroke-miterlimit="10"/>
<path d="M137.554 418.135C140.519 418.135 142.923 415.388 142.923 411.998C142.923 408.609 140.519 405.861 137.554 405.861C134.588 405.861 132.184 408.609 132.184 411.998C132.184 415.388 134.588 418.135 137.554 418.135Z" stroke="#9DCB3B" stroke-width="1.53426" stroke-miterlimit="10"/>
</svg>
