<svg width="17" height="33" viewBox="0 0 17 33" fill="none" xmlns="http://www.w3.org/2000/svg">
<path fill-rule="evenodd" clip-rule="evenodd" d="M8.40023 32.4197C5.93917 32.4197 3.90532 31.7149 2.4617 30.1706C1.03331 28.6425 0.38623 26.5467 0.38623 24.0277L0.38623 8.57169C0.38623 6.05272 1.03331 3.95685 2.4617 2.4288C3.90532 0.884472 5.93917 0.179688 8.40023 0.179688C10.8613 0.179688 12.8951 0.884472 14.3388 2.4288C15.7672 3.95685 16.4142 6.05272 16.4142 8.57169V24.0277C16.4142 26.5467 15.7672 28.6425 14.3388 30.1706C12.8951 31.7149 10.8613 32.4197 8.40023 32.4197ZM9.42477 25.8583C9.61408 25.6291 9.79423 25.1751 9.79423 24.3217V8.27769C9.79423 7.4243 9.61408 6.97023 9.42477 6.74107C9.26569 6.5485 8.98841 6.37969 8.40023 6.37969C7.81205 6.37969 7.53478 6.5485 7.37569 6.74107C7.18639 6.97023 7.00623 7.4243 7.00623 8.27769V24.3217C7.00623 25.1751 7.18639 25.6291 7.37569 25.8583C7.53478 26.0509 7.81205 26.2197 8.40023 26.2197C8.98841 26.2197 9.26569 26.0509 9.42477 25.8583ZM3.19223 29.4877C4.39623 30.7757 6.13223 31.4197 8.40023 31.4197C10.6682 31.4197 12.4042 30.7757 13.6082 29.4877C14.8122 28.1997 15.4142 26.3797 15.4142 24.0277V8.57169C15.4142 6.21969 14.8122 4.39969 13.6082 3.11169C12.4042 1.82369 10.6682 1.17969 8.40023 1.17969C6.13223 1.17969 4.39623 1.82369 3.19223 3.11169C1.98823 4.39969 1.38623 6.21969 1.38623 8.57169V24.0277C1.38623 26.3797 1.98823 28.1997 3.19223 29.4877ZM10.7942 24.3217C10.7942 26.2537 9.99623 27.2197 8.40023 27.2197C6.80423 27.2197 6.00623 26.2537 6.00623 24.3217V8.27769C6.00623 6.34569 6.80423 5.37969 8.40023 5.37969C9.99623 5.37969 10.7942 6.34569 10.7942 8.27769V24.3217Z" fill="#1B997C"/>
</svg>
