<svg width="17" height="32" viewBox="0 0 17 32" fill="none" xmlns="http://www.w3.org/2000/svg">
<path fill-rule="evenodd" clip-rule="evenodd" d="M0.722168 0.599609H8.52617C10.9951 0.599609 13.0255 1.26534 14.4238 2.76589C15.8044 4.24749 16.4142 6.33724 16.4142 8.86561V11.7636C16.4142 14.292 15.8044 16.3817 14.4238 17.8633C13.0255 19.3639 10.9951 20.0296 8.52617 20.0296H7.34217V31.9996H0.722168V0.599609ZM6.34217 19.0296H8.52617C10.8222 19.0296 12.5442 18.4136 13.6922 17.1816C14.8402 15.9496 15.4142 14.1436 15.4142 11.7636V8.86561C15.4142 6.48561 14.8402 4.67961 13.6922 3.44761C12.5442 2.21561 10.8222 1.59961 8.52617 1.59961H1.72217V30.9996H6.34217V19.0296ZM9.46254 13.5308L9.47511 13.5173C9.60365 13.3796 9.79417 12.9872 9.79417 12.0576V8.57161C9.79417 7.64204 9.60365 7.24965 9.47511 7.11193L9.46254 7.09846L9.45048 7.08454C9.33808 6.95484 9.10183 6.79961 8.52617 6.79961H7.34217V13.8296H8.52617C9.10183 13.8296 9.33808 13.6744 9.45048 13.5447L9.46254 13.5308ZM6.34217 14.8296V5.79961H8.52617C9.28217 5.79961 9.84217 6.00961 10.2062 6.42961C10.5982 6.84961 10.7942 7.56361 10.7942 8.57161V12.0576C10.7942 13.0656 10.5982 13.7796 10.2062 14.1996C9.84217 14.6196 9.28217 14.8296 8.52617 14.8296H6.34217Z" fill="#1B997C"/>
</svg>
