<svg width="97" height="58" viewBox="0 0 97 58" fill="none" xmlns="http://www.w3.org/2000/svg">
<g clip-path="url(#clip0_219_1238)">
<path d="M39.0413 49.1724C36.902 55.0054 33.3816 57.7292 28.1185 57.6666C23.1945 57.6065 19.5937 54.6975 17.6628 49.1098C16.0533 49.1098 14.391 49.1148 12.7312 49.1098C10.2981 49.0998 9.23844 48.0308 9.23342 45.5799C9.2284 43.0464 9.23342 40.5104 9.23342 37.8417C7.12168 37.8417 5.12545 37.8793 3.12921 37.8292C1.43932 37.7841 0.208939 36.5499 0.196384 35.0028C0.183829 33.4607 1.41421 32.2365 3.09155 32.1363C3.42551 32.1163 3.76198 32.1288 4.09594 32.1288C11.7544 32.1288 19.4104 32.1288 27.0689 32.1288C27.4029 32.1288 27.7394 32.1313 28.0733 32.1288C29.9942 32.1088 31.2799 31.0123 31.3 29.3775C31.32 27.7503 30.0168 26.5887 28.121 26.5812C24.1888 26.5686 20.2541 26.5761 16.3219 26.5761C12.1788 26.5761 8.03568 26.5761 3.89506 26.5761C1.56989 26.5761 0.221494 25.5397 0.198895 23.7472C0.178807 21.9573 1.55232 20.8633 3.83731 20.8633C9.11038 20.8633 14.3834 20.8758 19.654 20.8432C20.2968 20.8382 21.0074 20.7156 21.5674 20.4201C22.6496 19.8494 23.1167 18.4925 22.7902 17.2708C22.4437 15.9765 21.4795 15.4883 20.2391 15.4833C15.6791 15.4633 11.1167 15.4758 6.55671 15.4508C5.93901 15.4483 5.28364 15.4032 4.71616 15.1929C3.57868 14.7673 2.83041 13.3679 3.02375 12.2639C3.25476 10.9295 4.30687 9.95318 5.69042 9.84052C6.27297 9.79296 6.86054 9.8255 7.44811 9.823C7.98797 9.823 8.52532 9.823 9.23593 9.823C9.23593 7.93539 9.23342 6.11788 9.23593 4.29787C9.23844 1.82445 10.2504 0.810547 12.7413 0.810547C29.143 0.810547 45.5473 0.810547 61.949 0.810547C62.3207 0.810547 62.6923 0.810547 63.2497 0.810547C63.2497 1.31875 63.2497 1.75936 63.2497 2.19746C63.2497 7.11926 63.2472 12.0436 63.2497 16.9654C63.2497 19.4463 64.3596 20.5578 66.8329 20.5603C73.6954 20.5653 80.5579 20.4827 87.4205 20.5954C91.0162 20.653 94.067 22.0649 95.7343 25.4396C96.3018 26.5912 96.5579 28.0006 96.5805 29.2974C96.6709 34.8025 96.6257 40.3101 96.6157 45.8177C96.6107 47.9857 95.4707 49.0848 93.2535 49.1048C91.9151 49.1173 90.5768 49.1148 89.2359 49.1223C89.1556 49.1223 89.0752 49.1573 88.9572 49.1824C87.1568 54.6975 83.5259 57.8343 77.4895 57.6366C72.922 57.4889 69.487 54.5198 67.5686 49.1674H39.0413V49.1724ZM83.4129 46.8692C83.3928 44.0127 81.0601 41.7246 78.2127 41.7646C75.3602 41.8047 73.0175 44.1579 73.0476 46.9543C73.0777 49.7281 75.4933 52.0964 78.2955 52.0989C81.0878 52.0989 83.4305 49.7081 83.4129 46.8692ZM23.187 46.8742C23.1694 49.7031 25.4644 52.0388 28.3194 52.0964C31.0715 52.1515 33.5222 49.7407 33.5548 46.9468C33.585 44.1479 31.2121 41.7646 28.3947 41.7646C25.5146 41.7646 23.2071 44.0278 23.1895 46.8742H23.187Z" fill="#1EC29D"/>
<path d="M84.2294 14.7969H69.043V1.57617C74.3512 1.82902 82.1378 8.58836 84.2294 14.7969Z" fill="#1EC29D"/>
</g>
<defs>
<clipPath id="clip0_219_1238">
<rect width="96.4394" height="56.8561" fill="white" transform="translate(0.197266 0.810547)"/>
</clipPath>
</defs>
</svg>
