<svg width="42" height="44" viewBox="0 0 42 44" fill="none" xmlns="http://www.w3.org/2000/svg">
<path d="M21.0427 0.391113H21.1118C22.46 0.391113 23.7045 0.982516 24.5341 2.02616L33.2109 12.3235C33.6603 12.8453 34.1443 13.4019 34.6283 13.9585C37.7049 17.4721 41.231 21.438 41.231 26.1344V38.5885C41.1964 41.3716 38.984 43.6328 36.2876 43.6328H5.62487C4.34582 43.6328 3.10133 43.111 2.20253 42.1717C1.2346 41.1976 0.716064 39.9105 0.716064 38.519V26.03C0.785202 21.3684 4.34581 17.3677 7.45703 13.8541C7.94099 13.3323 8.39039 12.7757 8.83979 12.2887L17.5512 2.02616C18.4154 1.0173 19.6945 0.460691 21.0427 0.460691V0.391113ZM36.2876 38.4494L36.1147 26.0648C36.1147 23.3513 33.2801 20.1508 30.7911 17.333C30.2726 16.7416 29.7886 16.1849 29.3046 15.6283L21.0081 5.78328L12.7115 15.5588C12.2621 16.1154 11.7436 16.6372 11.2596 17.2286C8.73609 20.0812 5.86685 23.3165 5.83228 26.03V38.4494H36.2876Z" fill="white"/>
<path d="M6.41996 40.0487C5.17548 40.0487 4.17297 38.9703 4.17297 37.6831V25.8203C4.24211 21.7153 8.42497 17.7147 11.2942 14.3402L19.5562 4.59954C20.2821 3.72984 21.7686 3.72984 22.46 4.59954L30.722 14.375C33.5566 17.7147 37.7395 21.7501 37.7395 25.8899V37.6831C37.7395 39.005 36.7024 40.0487 35.4579 40.0487H6.35083H6.41996Z" fill="#35373D"/>
</svg>
