<svg width="60" height="38" viewBox="0 0 60 38" fill="none" xmlns="http://www.w3.org/2000/svg">
<path d="M27.2691 34.4004H6.21643C6.21643 35.1633 6.21643 35.8822 6.21643 36.5864C6.21643 37.3053 5.879 37.628 5.18947 37.628C4.05982 37.628 2.93017 37.6427 1.80051 37.628C1.00829 37.628 0.773556 37.3493 0.773556 36.5277C0.773556 33.1975 0.714873 29.8525 0.802898 26.5222C0.83224 25.5539 1.155 24.5563 1.56578 23.6614C3.04753 20.4045 4.63198 17.1769 6.17242 13.9493C6.96464 12.2915 8.31436 11.4993 10.1042 11.4993C14.4908 11.4846 18.8774 11.4846 23.2639 11.4993C25.1565 11.4993 26.5355 12.3942 27.3571 14.1254C28.8389 17.2209 30.3059 20.3311 31.8024 23.412C32.3892 24.6297 32.712 25.8914 32.6973 27.2704C32.6679 30.2926 32.6973 33.3295 32.6973 36.3517C32.6973 37.4373 32.4772 37.6427 31.3769 37.6427C30.4233 37.6427 29.4844 37.6427 28.5308 37.6427C27.4598 37.6427 27.2691 37.4373 27.2544 36.3957C27.2544 35.7648 27.2544 35.1193 27.2544 34.4151L27.2691 34.4004ZM5.20415 23.5H28.2227C27.005 20.962 25.8313 18.5119 24.6577 16.0619C24.2616 15.255 23.616 14.8296 22.7064 14.8149C22.1636 14.8149 21.6355 14.7562 21.0927 14.7415C18.1878 14.7415 15.2977 14.8442 12.3929 14.6975C10.2509 14.5948 8.93054 15.2844 8.12364 17.3236C7.30207 19.4069 6.21643 21.3874 5.20415 23.4854V23.5ZM27.5625 31.2022C28.9269 31.2022 30.0565 30.0579 30.0419 28.6935C30.0419 27.3878 28.8682 26.2728 27.5331 26.2728C26.1981 26.2728 25.0978 27.4171 25.1125 28.7522C25.1271 30.1019 26.2274 31.2022 27.5625 31.2022ZM8.32903 28.7082C8.32903 27.3878 7.19938 26.2875 5.84966 26.2728C4.54396 26.2728 3.38496 27.4318 3.39963 28.7375C3.4143 30.0872 4.52929 31.2022 5.84966 31.2022C7.22872 31.2022 8.3437 30.0872 8.32903 28.7082Z" fill="#1EC29D"/>
<path d="M33.7095 24.7777C35.7194 23.8241 36.3502 22.6064 35.6167 21.1393C34.9271 19.7456 33.6214 19.4815 31.7582 20.3764C31.2301 19.2761 30.6873 18.1758 30.1738 17.0608C30.1004 16.9141 30.1885 16.606 30.3058 16.4593C32.7852 13.5545 35.2499 10.635 37.8026 7.77417C38.8589 6.58584 40.2673 6.2484 41.8078 6.64451C46.0183 7.71548 50.2288 8.81581 54.454 9.88678C56.3319 10.3562 57.4029 11.5739 57.755 13.4225C58.4592 17.1782 59.1927 20.9192 59.7942 24.6896C59.9409 25.6139 59.7942 26.6409 59.5741 27.5651C58.8699 30.47 58.063 33.3601 57.2855 36.2503C57.0067 37.2919 56.728 37.4532 55.6864 37.1745C54.6887 36.9251 53.7058 36.6464 52.7229 36.3823C51.9746 36.1769 51.7839 35.8248 51.9746 35.0619C52.0627 34.7392 52.1507 34.4164 52.2534 34.1083C52.3414 33.7855 52.4441 33.4775 52.5762 33.052C51.5785 32.7733 50.6103 32.5092 49.6273 32.2451C44.6392 30.9101 39.6365 29.5604 34.6337 28.2547C34.0322 28.0933 33.8122 27.8439 33.8415 27.213C33.8708 26.4061 33.7682 25.5846 33.7241 24.763L33.7095 24.7777ZM56.3466 23.0905C56.3612 22.8851 56.3906 22.7824 56.3759 22.6944C55.9064 20.1857 55.437 17.6623 54.9528 15.1536C54.7474 14.0826 54.1166 13.4078 53.0163 13.1144C49.3926 12.1314 45.7689 11.1044 42.1452 10.1068C41.0596 9.81341 40.1206 10.1068 39.3871 10.9724C38.991 11.4419 38.5802 11.8967 38.1694 12.3661C36.8344 13.9213 35.4993 15.4617 34.0762 17.1195C41.5584 19.1294 48.9231 21.11 56.3319 23.0905H56.3466ZM54.41 25.4819C52.9869 25.4819 51.96 26.4941 51.9453 27.9612C51.9306 29.2669 53.0896 30.4259 54.3953 30.4113C55.701 30.4113 56.8454 29.2523 56.8454 27.9466C56.8454 26.6262 55.7157 25.4819 54.41 25.4819Z" fill="#1EC29D"/>
<path d="M30.1296 11.7066C29.9536 10.3129 29.7628 8.93382 29.5868 7.5401C29.3374 5.69157 29.088 3.84306 28.8679 1.97986C28.8092 1.46638 28.5598 0.74751 29.2053 0.55679C29.8509 0.366069 30.5991 0.48343 31.2886 0.586126C31.4353 0.615468 31.5967 1.2023 31.5673 1.52506C31.4646 2.77208 31.2739 4.0191 31.1272 5.25145C30.8631 7.40806 30.5844 9.56466 30.3203 11.7066C30.2616 11.7066 30.203 11.692 30.1443 11.6773L30.1296 11.7066Z" fill="#1EC29D"/>
<path d="M32.1987 11.2084C33.167 8.90506 34.15 6.60174 35.1036 4.29842C35.3089 3.79961 35.617 3.71159 36.0572 3.97566C36.2625 4.09303 36.4679 4.18106 36.6733 4.28376C37.1575 4.51849 37.2308 4.87059 36.9227 5.28138C35.397 7.30595 33.8565 9.31585 32.3308 11.3257C32.2868 11.2964 32.2427 11.2524 32.1987 11.2231V11.2084Z" fill="#1EC29D"/>
<path d="M28.1348 11.9718C26.6238 9.97662 25.098 7.99605 23.6162 5.98615C23.1908 5.41399 23.3668 5.1059 24.2031 4.65111C24.8486 4.31368 25.1567 4.4017 25.4501 5.1059C26.257 6.98377 27.0345 8.8763 27.8268 10.7542C27.9881 11.1209 28.1348 11.5024 28.2816 11.8691C28.2375 11.8985 28.1935 11.9278 28.1348 11.9572V11.9718Z" fill="#1EC29D"/>
</svg>
