<svg width="43" height="42" viewBox="0 0 43 42" fill="none" xmlns="http://www.w3.org/2000/svg">
<path d="M23.2717 25.4911C26.5131 25.6523 29.7355 25.131 32.882 26.0029C38.2464 27.4815 42.047 32.4383 42.0943 38.0017C42.1038 39.3191 42.0943 40.627 42.0943 42.0012H35.1283C35.1283 41.044 35.1472 40.1152 35.1093 39.1769C35.1093 38.9494 34.8913 38.7314 34.7776 38.5135C34.6449 38.7314 34.408 38.94 34.3985 39.1579C34.3606 40.0868 34.3795 41.025 34.3795 42.0012H23.2622V25.4817L23.2717 25.4911Z" fill="#1EC29D"/>
<path d="M8.73314 41.9809C8.73314 41.0332 8.76157 40.1612 8.71418 39.2798C8.70471 39.0144 8.4962 38.7585 8.38247 38.5026C8.2403 38.7775 7.9844 39.0334 7.96545 39.3177C7.90858 40.1896 7.94649 41.0616 7.94649 41.9904H1.19839C-0.299083 32.7686 5.12214 25.8215 13.6141 25.5087C15.5192 25.4424 17.4336 25.4992 19.405 25.4992V41.9809H8.73314Z" fill="#1EC29D"/>
<path d="M23.2339 23.3951V19.0638C24.0584 18.5709 24.8167 18.1634 25.518 17.6705C25.6886 17.5568 25.6602 17.1587 25.7265 16.8934C25.4896 16.9597 25.2337 16.9976 25.0252 17.1114C24.466 17.4241 23.9352 17.7653 23.2434 18.1918V8.45824C24.6745 7.89906 26.0488 7.33039 27.4514 6.82808C27.641 6.76173 27.9822 6.95129 28.1812 7.10293C31.1004 9.41548 32.3798 12.4483 31.6311 16.0972C30.8729 19.8125 28.5035 22.1724 24.8167 23.1392C24.3333 23.2624 23.831 23.3098 23.2339 23.4045V23.3951ZM26.0867 12.4104C25.5464 12.6853 25.0631 12.8748 24.6366 13.1592C24.4944 13.2539 24.5134 13.5667 24.4565 13.7847C24.6555 13.7847 24.9114 13.87 25.0346 13.7752C25.7644 13.1971 26.4468 13.235 27.1671 13.8131C27.2809 13.8984 27.5367 13.8037 27.7358 13.7942C27.6884 13.5951 27.7073 13.3108 27.5841 13.2255C27.1292 12.9317 26.6364 12.7042 26.0961 12.4104H26.0867Z" fill="#1EC29D"/>
<path d="M19.4237 8.23047V17.8124C18.5044 18.2958 17.6704 18.6938 16.8837 19.1772C16.6942 19.2909 16.6752 19.67 16.5804 19.9354C16.8458 19.8785 17.1301 19.8596 17.3671 19.7458C17.9926 19.4426 18.5992 19.0919 19.3953 18.6559V23.3284C17.822 23.4042 16.3624 22.9777 15.0451 22.1816C11.7563 20.1818 10.2209 17.2248 10.5905 13.3768C10.6474 12.7513 11.0834 12.0879 11.5194 11.5856C13.5855 9.2351 16.353 8.46741 19.4332 8.23047H19.4237ZM15.699 14.1635C16.2772 13.8602 16.77 13.6327 17.2249 13.3389C17.3387 13.2631 17.3102 12.9598 17.3481 12.7703C17.1586 12.7608 16.8932 12.666 16.7889 12.7513C16.0402 13.3768 15.3294 13.3295 14.5806 12.7513C14.4764 12.666 14.211 12.7892 14.0215 12.8177C14.0499 12.9883 14.0215 13.2442 14.1257 13.3105C14.6091 13.6138 15.1209 13.8697 15.6895 14.173L15.699 14.1635Z" fill="#1EC29D"/>
<path d="M19.386 0.751667C19.4144 0.960176 19.4618 1.11182 19.4618 1.26346C19.4618 3.27273 19.4618 5.282 19.4618 7.39552C15.9645 7.70828 12.7706 8.65604 10.5054 11.5373C9.74719 10.0019 10.2874 6.0876 11.529 4.25841C13.4056 1.48145 16.2868 0.931741 19.386 0.742188V0.751667Z" fill="#1EC29D"/>
<path d="M23.2339 7.35848V0.818886C25.6602 0.610377 28.077 0.401868 30.4843 0.193359C30.2095 4.15503 27.025 7.1405 23.2339 7.35848Z" fill="#1EC29D"/>
<path d="M28.5232 6.05035C29.1013 5.30162 29.7458 4.45811 30.4471 3.5293C31.7645 5.68073 32.191 7.96485 32.0204 10.3532C30.8641 8.93157 29.7079 7.50992 28.5137 6.05035H28.5232Z" fill="#1EC29D"/>
</svg>
