<svg width="37" height="55" viewBox="0 0 37 55" fill="none" xmlns="http://www.w3.org/2000/svg">
<path d="M0.853516 20.2066C0.853516 15.1201 0.853516 10.0213 0.853516 4.93484C0.853516 2.90762 1.61526 1.3227 3.49505 0.450376C4.07251 0.180079 4.76053 0.0203552 5.4117 0.0203552C13.4592 -0.00421726 21.5189 -0.0042152 29.5664 0.00807103C32.0482 0.00807103 34.0263 1.98615 34.0755 4.46797C34.1 5.91775 34.0878 7.35523 34.0755 8.80501C34.0755 9.77562 33.4734 10.0828 32.5643 9.72647C31.8517 9.44389 31.0899 9.24731 30.3282 9.13673C29.6647 9.03844 29.3576 8.719 29.2838 8.10469C28.9521 5.54916 27.7112 4.4434 25.1557 4.4434C20.02 4.4434 14.8721 4.4434 9.73645 4.4434C7.1072 4.4434 5.66972 5.89317 5.66972 8.53471C5.66972 12.2943 5.66972 16.0662 5.66972 19.8258C5.66972 22.4304 7.11949 23.8802 9.6996 23.8802C13.8032 23.8802 17.8945 23.8802 21.9981 23.8802C22.6247 23.8802 23.0547 24.0645 23.4356 24.5805C25.6103 27.4801 29.0258 28.6104 32.5151 27.6029C33.6577 27.2712 34.1 27.6029 34.1 28.8193C34.1 31.1168 34.1 33.4143 34.1 35.7118C34.1 38.5377 32.1711 40.5035 29.333 40.5035C21.4452 40.5158 13.5575 40.5035 5.66972 40.5035C2.78245 40.5035 0.890375 38.55 0.890375 35.5767C0.878089 30.4656 0.890375 25.3423 0.890375 20.2312L0.853516 20.2066ZM17.5013 27.5169C16.8625 27.5169 16.2236 27.4924 15.5847 27.5169C13.582 27.5906 12.0708 29.1018 12.034 31.0308C11.9971 33.0457 13.4346 34.6552 15.4373 34.7535C16.7887 34.8272 18.1402 34.8272 19.4917 34.7535C21.4698 34.6552 22.9441 33.0334 22.9073 31.0922C22.8827 29.1018 21.3715 27.5784 19.3443 27.5046C18.73 27.4801 18.1157 27.5046 17.5013 27.5046V27.5169Z" fill="#1EC29D"/>
<path d="M30.0948 26.165C27.6007 26.0545 25.6349 24.9856 24.4186 22.774C23.19 20.5379 23.276 18.2773 24.6643 16.1272C25.4629 14.8986 26.2984 13.6945 27.1584 12.5028C28.7311 10.3281 31.4955 10.3649 33.0435 12.5765C33.8421 13.7191 34.653 14.8494 35.427 16.0166C36.8277 18.1544 36.9628 20.4151 35.7956 22.6635C34.6162 24.9364 32.6381 26.0299 30.0948 26.165Z" fill="#1EC29D"/>
<path d="M16.5677 47.6545C13.9139 47.5685 12.5255 45.701 12.6852 43.3789C12.7467 42.5926 12.9924 42.3223 13.791 42.3223C16.2483 42.3223 18.7178 42.3223 21.175 42.3223C21.9368 42.3223 22.2194 42.6417 22.2685 43.4034C22.4159 45.7255 20.8924 47.6053 18.4352 47.6422C18.4352 47.8879 18.3983 48.1337 18.3983 48.3917C18.3983 49.952 18.3983 51.5124 18.3983 53.0727C18.3983 53.2816 18.3983 53.5027 18.3615 53.7116C18.2632 54.2276 17.956 54.5962 17.3909 54.5471C16.838 54.4979 16.5677 54.1416 16.5677 53.5765C16.5677 52.0652 16.5677 50.5417 16.5677 49.0305C16.5677 48.5882 16.5677 48.1459 16.5677 47.6545Z" fill="#1EC29D"/>
<path d="M17.4399 32.9712C16.8256 32.9712 16.2113 32.9835 15.597 32.9712C14.6878 32.9343 13.9506 32.2709 13.8523 31.4231C13.7295 30.4402 14.2455 29.5187 15.2284 29.4327C16.7028 29.2976 18.2017 29.3099 19.676 29.4327C20.6098 29.5065 21.1995 30.4402 21.1012 31.3248C21.0029 32.2586 20.2535 32.9589 19.2951 32.9835C18.6808 32.9958 18.0665 32.9835 17.4522 32.9835L17.4399 32.9712Z" fill="#1EC29D"/>
</svg>
