<svg width="58" height="42" viewBox="0 0 58 42" fill="none" xmlns="http://www.w3.org/2000/svg">
<path d="M25.0826 23.5912C24.7632 23.0875 24.5175 22.7066 24.2963 22.3258C21.7285 17.8659 19.1607 13.406 16.5929 8.94607C15.6837 7.36114 15.1062 7.37343 14.1848 8.95835C12.477 11.8825 10.7569 14.8066 9.11055 17.7676C8.68053 18.5416 8.16451 18.8242 7.31676 18.7628C6.44444 18.7013 5.54755 18.6399 4.68751 18.7628C3.13945 18.9962 2.53742 18.2345 1.97226 16.9075C-1.24674 9.30237 2.93058 2.5818 8.77882 0.591434C14.5902 -1.38665 21.5811 1.77091 23.9646 7.47172C24.0137 7.57001 24.1243 7.64373 24.2226 7.74202C25.7952 2.2255 33.9164 -1.6078 39.863 0.677438C45.3549 2.79067 48.8811 9.21636 47.075 14.1063C42.5045 13.3814 38.4132 14.5732 34.7028 17.571C34.0024 16.3915 33.3513 15.2735 32.6755 14.18C31.9384 12.9882 31.2995 12.9882 30.5869 14.1923C28.9897 16.9444 27.4047 19.6965 25.8075 22.4486C25.611 22.7926 25.3775 23.1244 25.0704 23.5912H25.0826Z" fill="#1EC29D"/>
<path d="M24.2101 41.6505C16.482 35.7162 9.33146 29.524 3.81494 21.1693C5.41215 21.1693 6.72678 21.1202 8.01683 21.1816C9.07344 21.2431 9.71233 20.8499 10.2284 19.9284C11.6413 17.3606 13.1402 14.8419 14.6022 12.311C14.8234 11.9301 15.0691 11.5492 15.3886 11.0332C17.1701 14.0925 18.841 16.9674 20.5242 19.8547C21.63 21.7714 22.7234 23.7003 23.8415 25.617C24.8735 27.3985 25.3404 27.3985 26.3356 25.6538C28.0434 22.6805 29.7512 19.7073 31.4712 16.734C33.0684 17.9872 33.2282 18.8964 32.2575 20.4076C29.3949 24.8552 29.014 29.5731 31.0166 34.4262C31.4467 35.4705 31.2501 35.9865 30.4515 36.6008C28.3751 38.2226 26.3479 39.9058 24.2101 41.6382V41.6505Z" fill="#1EC29D"/>
<path d="M44.5563 15.668C51.6946 15.6926 57.4937 21.504 57.4814 28.63C57.4814 35.8052 51.6086 41.6043 44.3966 41.5674C37.2337 41.5428 31.496 35.7683 31.5083 28.5932C31.5083 21.3689 37.3074 15.6435 44.5686 15.668H44.5563ZM55.2944 27.3031C55.3313 22.7572 50.0114 17.4741 45.7726 17.8181C45.318 18.6045 44.9494 19.7962 44.5563 19.8085C43.2048 19.8454 44.0894 18.3956 43.5611 17.7813C38.6712 17.7076 33.3635 22.9538 33.7567 27.2785C34.5799 27.8437 35.1819 28.2614 35.7839 28.6669C35.145 29.0477 34.5062 29.4286 33.6953 29.9078C33.3758 34.2202 38.8801 39.6999 43.3154 39.4419C43.7577 38.6556 44.1017 37.4761 44.4949 37.4638C45.8463 37.3901 44.974 38.8767 45.5392 39.4542C50.6134 39.233 55.5156 34.2571 55.2699 29.9815C54.4836 29.4286 53.8815 29.0109 53.2795 28.5932C53.8692 28.2123 54.4713 27.8314 55.2822 27.3031H55.2944Z" fill="#1EC29D"/>
<path d="M49.8758 24.1688C49.6424 24.4883 49.495 24.7832 49.2738 25.0166C47.9837 26.3189 46.706 27.6458 45.3545 28.8868C45.0596 29.1571 44.4576 29.071 43.9907 29.1571C44.0767 28.6902 44.0153 28.0882 44.2856 27.7933C45.5511 26.4049 46.8903 25.078 48.254 23.788C48.4998 23.5545 48.9789 23.4931 49.3475 23.5054C49.5195 23.5054 49.6792 23.9108 49.8881 24.1811L49.8758 24.1688Z" fill="#1EC29D"/>
</svg>
