<svg width="85" height="82" viewBox="0 0 85 82" fill="none" xmlns="http://www.w3.org/2000/svg">
<path d="M33.1369 56.3706C25.9354 53.0775 19.3055 49.199 13.5138 44.0032C9.24624 40.1612 5.66454 35.807 3.34024 30.6113C0.93974 25.2325 -0.165245 19.7075 1.47319 13.8897C3.87369 5.40078 12.4088 -1.25859 22.7348 0.497729C28.0311 1.41248 32.1844 4.19332 35.1183 8.54752C36.3376 10.377 37.3283 10.3404 38.5857 8.54752C42.7771 2.54677 48.645 -0.380426 56.1132 0.387963C63.6576 1.15635 68.7253 5.40078 71.5069 12.0602C74.136 18.3536 73.1834 24.5739 70.3638 30.5747C69.1826 33.136 67.4298 35.4411 65.9057 37.8195C65.6771 38.1488 65.3723 38.4415 64.9912 38.8806C64.0386 37.4536 63.1623 36.1363 62.2859 34.8191C58.5137 29.1477 51.1979 29.2208 47.4256 34.8923C42.7008 42.0273 37.938 49.1624 33.0988 56.4072L33.1369 56.3706ZM27.4596 22.3785C27.612 22.7078 27.7263 22.8908 27.7644 23.0371C29.479 27.3182 31.1937 31.5992 32.9083 35.8802C33.3275 36.9779 34.0895 37.6731 35.3469 37.6365C36.5662 37.6365 37.2521 36.9779 37.7093 35.9168C38.8143 33.1726 39.9955 30.4649 41.1386 27.7572C42.2055 25.2325 43.2343 22.7078 44.4155 19.927C45.4824 22.3053 46.3969 24.4276 47.4256 26.5498C47.6543 27.0254 48.3401 27.6109 48.8355 27.6109C52.3791 27.7207 55.8846 27.6841 59.4282 27.6475C60.3807 27.6475 60.9142 27.0986 60.9142 26.2205C60.9142 25.4155 60.4188 24.9032 59.5044 24.8301C59.1614 24.8301 58.7804 24.8301 58.4375 24.8301C55.8846 24.8301 53.3316 24.8301 50.7787 24.8301C50.0929 24.8301 49.7499 24.6471 49.4832 23.9885C48.6449 21.976 47.6924 20.0002 46.816 17.9877C46.3588 16.89 45.5967 16.1948 44.3774 16.1582C43.1581 16.1582 42.3579 16.89 41.9388 17.9511C40.4528 21.5004 39.0048 25.0862 37.5188 28.6354C36.833 30.2819 36.1471 31.8919 35.3469 33.7946C35.0802 33.0994 34.8897 32.7335 34.7373 32.3676C33.137 28.3793 31.5366 24.391 29.8982 20.4027C29.5171 19.4879 28.8694 18.9025 27.8406 18.7927C26.7356 18.6829 25.9735 19.122 25.402 20.0368C24.5637 21.3906 23.7636 22.781 22.811 24.0617C22.5443 24.4276 21.9346 24.7569 21.4393 24.7935C20.1056 24.9032 18.772 24.7935 17.4384 24.8301C16.2953 24.8301 15.7238 25.3789 15.7238 26.2571C15.7238 27.1352 16.2953 27.6475 17.4765 27.6475C19.2293 27.6475 21.0201 27.6475 22.7729 27.6475C23.7636 27.6475 24.3732 27.2816 24.8305 26.4766C25.6306 25.1228 26.4689 23.8421 27.3834 22.3419L27.4596 22.3785Z" fill="#1EC29D"/>
<path d="M54.8938 81.1783C46.8159 81.1783 38.738 81.1783 30.6601 81.1783C28.3739 81.1783 26.6212 80.3734 25.4781 78.4707C24.335 76.5314 24.5255 74.5921 25.7448 72.6895C33.8608 60.505 41.9768 48.284 50.1309 36.0995C52.5314 32.5137 57.1418 32.5137 59.5423 36.0995C67.6964 48.284 75.8124 60.4684 83.9665 72.6895C85.1858 74.5556 85.3763 76.4948 84.2713 78.4707C83.1663 80.41 81.4136 81.2149 79.1274 81.2149C71.0495 81.2149 62.9716 81.2149 54.8938 81.2149V81.1783ZM59.3899 53.7359C59.3899 50.9916 59.3899 48.2474 59.3899 45.5031C59.3899 44.8811 59.3518 44.2225 59.1232 43.6371C58.3993 41.6246 56.2655 40.4171 54.246 40.783C51.9979 41.1855 50.3976 42.9052 50.3976 45.1006C50.3976 50.7355 50.3976 56.4069 50.3976 62.0418C50.3976 64.7494 52.2646 66.7253 54.8176 66.7619C57.5229 66.7619 59.3899 64.9324 59.428 62.115C59.428 59.3341 59.428 56.5533 59.428 53.7725L59.3899 53.7359ZM54.9319 78.2877C57.4086 78.2877 59.3899 76.3485 59.3518 73.9701C59.3518 71.5552 57.2943 69.6159 54.7794 69.6525C52.3408 69.6525 50.3214 71.6649 50.3214 74.0067C50.3214 76.4216 52.3789 78.3243 54.8938 78.3243L54.9319 78.2877Z" fill="#1EC29D"/>
<path d="M53.4082 53.6267C53.4082 50.9191 53.4082 48.2114 53.4082 45.5038C53.4082 44.2231 53.9035 43.6377 54.9323 43.6377C55.8849 43.6377 56.4565 44.2963 56.4565 45.5404C56.4565 50.9923 56.4565 56.4442 56.4565 61.8961C56.4565 62.0058 56.4565 62.1156 56.4565 62.2254C56.3421 63.2499 55.7325 63.8719 54.818 63.7988C53.7511 63.7256 53.4082 63.0304 53.4082 62.079C53.4082 59.2616 53.4082 56.4442 53.4082 53.6267Z" fill="#1EC29D"/>
<path d="M54.7413 72.5801C55.6939 72.5801 56.4178 73.2387 56.4178 73.9705C56.4178 74.7023 55.6939 75.4341 54.9318 75.4341C54.1698 75.4341 53.4458 74.7389 53.4458 74.0071C53.4458 73.0923 53.9792 72.6533 54.7413 72.5801Z" fill="#1EC29D"/>
</svg>
