<svg width="47" height="46" viewBox="0 0 47 46" fill="none" xmlns="http://www.w3.org/2000/svg">
<path d="M18.255 31.3568C14.3971 29.5261 10.8218 27.3515 7.7257 24.4519C5.42818 22.3141 3.51153 19.8692 2.27062 16.9696C0.980564 13.9718 0.390828 10.8757 1.27544 7.6321C2.56549 2.88962 7.13597 -0.833111 12.6893 0.162074C15.5397 0.665809 17.7513 2.21387 19.3239 4.65883C19.9751 5.67859 20.5034 5.65402 21.1914 4.64654C23.4398 1.30469 26.5973 -0.341662 30.5904 0.0883563C34.6325 0.518374 37.3601 2.87733 38.859 6.60006C40.2719 10.1139 39.7559 13.5909 38.257 16.9328C37.6181 18.358 36.672 19.648 35.8612 20.9872C35.7506 21.1838 35.5786 21.3312 35.382 21.577C34.866 20.7784 34.3991 20.0412 33.9199 19.304C31.8927 16.1342 27.9734 16.171 25.9585 19.3409C23.4275 23.3339 20.872 27.3023 18.2796 31.3568H18.255ZM15.2203 12.3746C15.3063 12.5589 15.3554 12.6572 15.3923 12.7555C16.3138 15.139 17.2352 17.5348 18.1567 19.9183C18.3901 20.5203 18.7833 20.9135 19.4591 20.9012C20.1102 20.9012 20.4911 20.5326 20.7245 19.9429C21.3266 18.4194 21.9409 16.9082 22.5552 15.3847C23.1203 13.9718 23.6855 12.5589 24.3121 10.9985C24.8773 12.3131 25.3687 13.5172 25.9216 14.6844C26.0445 14.9547 26.4253 15.2741 26.6833 15.2741C28.5754 15.3233 30.4675 15.311 32.3596 15.2987C32.8633 15.2987 33.1582 15.0038 33.1459 14.5124C33.1459 14.0578 32.8756 13.7752 32.3964 13.7383C32.2121 13.7261 32.0156 13.7383 31.8313 13.7383C30.4675 13.7383 29.0914 13.7261 27.7277 13.7383C27.3591 13.7383 27.1748 13.6278 27.0274 13.2715C26.5728 12.1411 26.0568 11.0354 25.6022 9.90505C25.3564 9.30302 24.951 8.89758 24.2998 8.88529C23.6486 8.88529 23.2309 9.29074 22.9852 9.89276C22.1989 11.8831 21.4003 13.8735 20.6017 15.8516C20.2331 16.7608 19.8645 17.6822 19.4345 18.7388C19.287 18.358 19.201 18.1491 19.115 17.9402C18.255 15.7041 17.395 13.4803 16.5226 11.2442C16.3261 10.7282 15.9698 10.4088 15.4169 10.3474C14.8271 10.2859 14.4094 10.5439 14.1145 11.0354C13.66 11.7971 13.2299 12.5589 12.7262 13.296C12.5788 13.5049 12.2593 13.6892 12.0013 13.7015C11.2887 13.7629 10.5761 13.7015 9.85122 13.7261C9.2492 13.7383 8.92976 14.0332 8.92976 14.5247C8.92976 15.0284 9.24919 15.2864 9.8635 15.2987C10.8095 15.2987 11.7556 15.2864 12.7016 15.2987C13.2299 15.311 13.5617 15.0898 13.8197 14.6475C14.2374 13.8981 14.7043 13.1732 15.1957 12.35L15.2203 12.3746Z" fill="#1EC29D"/>
<path d="M29.9392 45.2263C25.6022 45.2263 21.2774 45.214 16.9404 45.2263C15.7117 45.2263 14.7657 44.784 14.176 43.7151C13.5617 42.6216 13.66 41.5404 14.3234 40.4961C18.685 33.6895 23.0343 26.8706 27.4082 20.0641C28.686 18.0614 31.1678 18.0614 32.4456 20.0518C36.8195 26.8584 41.1811 33.6649 45.5304 40.4838C46.1939 41.5158 46.2922 42.6093 45.6901 43.7028C45.1004 44.784 44.1544 45.2385 42.9257 45.2263C38.5887 45.214 34.2639 45.2263 29.9269 45.2263H29.9392ZM32.3473 29.9053C32.3473 28.3696 32.3473 26.8338 32.3473 25.298C32.3473 24.9417 32.3227 24.5731 32.1999 24.2537C31.8067 23.1356 30.6641 22.4599 29.5706 22.6565C28.3543 22.8776 27.5065 23.8482 27.5065 25.0769C27.5065 28.2344 27.5065 31.3797 27.5065 34.5372C27.5065 36.0485 28.5017 37.1542 29.8778 37.1665C31.3275 37.1911 32.335 36.1467 32.3473 34.5741C32.3596 33.0138 32.3473 31.4657 32.3473 29.9053ZM29.9638 43.6168C31.2907 43.6168 32.3473 42.5356 32.335 41.2087C32.335 39.8572 31.2415 38.776 29.8901 38.7883C28.5877 38.8006 27.5065 39.9063 27.5065 41.2087C27.5065 42.5479 28.6123 43.6291 29.9638 43.6168Z" fill="#1EC29D"/>
<path d="M29.1402 29.8336C29.1402 28.3224 29.1402 26.8112 29.1402 25.3C29.1402 24.5873 29.4105 24.2556 29.9511 24.2679C30.4671 24.2679 30.762 24.6488 30.762 25.3245C30.762 28.3715 30.762 31.4185 30.762 34.4655C30.762 34.5269 30.762 34.5883 30.762 34.6498C30.7006 35.2272 30.3811 35.5589 29.8897 35.5221C29.3122 35.4729 29.1279 35.0921 29.1279 34.5638C29.1279 32.9911 29.1279 31.4062 29.1279 29.8336H29.1402Z" fill="#1EC29D"/>
<path d="M29.8404 40.4121C30.3564 40.4121 30.7373 40.7807 30.7495 41.1984C30.7495 41.6039 30.3564 42.0093 29.951 42.0216C29.5332 42.0216 29.1523 41.6407 29.1523 41.2107C29.1523 40.707 29.4472 40.4613 29.8527 40.4121H29.8404Z" fill="#1EC29D"/>
</svg>
