<svg width="17" height="33" viewBox="0 0 17 33" fill="none" xmlns="http://www.w3.org/2000/svg">
<path fill-rule="evenodd" clip-rule="evenodd" d="M2.89931 30.1951C1.53507 28.6644 0.923828 26.5597 0.923828 24.0277V21.3477H7.29183V24.3637C7.29183 25.2003 7.47083 25.6416 7.6567 25.8633C7.81423 26.0512 8.09284 26.2197 8.68583 26.2197C9.27839 26.2197 9.5508 26.0566 9.69725 25.8892L9.69998 25.8861C9.88373 25.6778 10.0798 25.2164 10.0798 24.2797C10.0798 23.2043 9.8372 22.3107 9.38463 21.564L9.37782 21.5528C8.90009 20.7406 7.96087 19.691 6.4753 18.398L6.47019 18.3935C4.52918 16.6809 3.10525 15.0824 2.27025 13.5979L2.26596 13.5903C1.42128 12.0574 1.00783 10.3488 1.00783 8.48769C1.00783 6.00246 1.63798 3.93483 3.03705 2.43336C4.45283 0.885351 6.46181 0.179688 8.89583 0.179688C11.3013 0.179688 13.2784 0.885807 14.6408 2.44676C16.0076 3.95227 16.6158 6.04625 16.6158 8.57169V10.7897H10.2478V8.27769C10.2478 7.35718 10.061 6.92796 9.90725 6.75219L9.8974 6.74094L9.8879 6.72939C9.72844 6.53576 9.46916 6.37969 8.93783 6.37969C8.37975 6.37969 8.12403 6.5401 7.97826 6.71768C7.80146 6.93305 7.62783 7.36714 7.62783 8.19369C7.62783 9.06842 7.85435 9.88052 8.31736 10.648C8.829 11.4484 9.7909 12.4902 11.274 13.7811C13.2465 15.4963 14.6803 17.1168 15.4912 18.645C16.3091 20.1864 16.6998 21.9632 16.6998 23.9437C16.6998 26.5088 16.0577 28.6345 14.6284 30.1662C13.2103 31.7166 11.1853 32.4197 8.72783 32.4197C6.29962 32.4197 4.2989 31.7313 2.90663 30.2032L2.89931 30.1951ZM10.6178 14.5357C9.10583 13.2197 8.05583 12.0997 7.46783 11.1757C6.90783 10.2517 6.62783 9.25769 6.62783 8.19369C6.62783 6.31769 7.39783 5.37969 8.93783 5.37969C9.69383 5.37969 10.2678 5.61769 10.6598 6.09369C11.0518 6.54169 11.2478 7.26969 11.2478 8.27769V9.78969H15.6158V8.57169C15.6158 6.19169 15.0418 4.37169 13.8938 3.11169C12.7738 1.82369 11.1078 1.17969 8.89583 1.17969C6.65583 1.17969 4.94783 1.82369 3.77183 3.11169C2.59583 4.37169 2.00783 6.16369 2.00783 8.48769C2.00783 10.1957 2.38583 11.7357 3.14183 13.1077C3.89783 14.4517 5.22783 15.9637 7.13183 17.6437C8.64383 18.9597 9.67983 20.0937 10.2398 21.0457C10.7998 21.9697 11.0798 23.0477 11.0798 24.2797C11.0798 25.3157 10.8698 26.0717 10.4498 26.5477C10.0578 26.9957 9.46983 27.2197 8.68583 27.2197C7.08983 27.2197 6.29183 26.2677 6.29183 24.3637V22.3477H1.92383V24.0277C1.92383 26.4077 2.49783 28.2417 3.64583 29.5297C4.79383 30.7897 6.48783 31.4197 8.72783 31.4197C10.9958 31.4197 12.7178 30.7757 13.8938 29.4877C15.0978 28.1997 15.6998 26.3517 15.6998 23.9437C15.6998 22.0957 15.3358 20.4857 14.6078 19.1137C13.8798 17.7417 12.5498 16.2157 10.6178 14.5357Z" fill="#1B997C"/>
</svg>
