<svg width="65" height="64" viewBox="0 0 65 64" fill="none" xmlns="http://www.w3.org/2000/svg">
<g clip-path="url(#clip0_219_1234)">
<path d="M32.5536 0.324219C25.5709 0.331901 18.8764 3.10897 13.9387 8.04621C9.00097 12.9835 6.22323 19.6777 6.21484 26.6603C6.21484 33.4423 11.4662 44.0559 21.8239 58.2056C23.0569 59.8948 24.6714 61.2691 26.5359 62.2165C28.4004 63.1639 30.4622 63.6577 32.5536 63.6577C34.645 63.6577 36.7068 63.1639 38.5713 62.2165C40.4358 61.2691 42.0503 59.8948 43.2833 58.2056C53.641 44.0559 58.8923 33.4423 58.8923 26.6603C58.884 19.6777 56.1062 12.9835 51.1685 8.04621C46.2308 3.10897 39.5362 0.331901 32.5536 0.324219ZM32.5536 37.1578C30.4659 37.1578 28.4251 36.5388 26.6892 35.3789C24.9534 34.219 23.6005 32.5705 22.8015 30.6417C22.0026 28.7129 21.7936 26.5906 22.2009 24.543C22.6081 22.4954 23.6135 20.6146 25.0897 19.1384C26.5659 17.6621 28.4467 16.6568 30.4943 16.2495C32.5419 15.8423 34.6643 16.0513 36.593 16.8502C38.5218 17.6491 40.1704 19.0021 41.3302 20.7379C42.4901 22.4738 43.1091 24.5146 43.1091 26.6023C43.1091 29.4018 41.997 32.0866 40.0175 34.0662C38.0379 36.0457 35.3531 37.1578 32.5536 37.1578Z" fill="#1EC29D"/>
</g>
<defs>
<clipPath id="clip0_219_1234">
<rect width="63.3333" height="63.3333" fill="white" transform="translate(0.886719 0.212891)"/>
</clipPath>
</defs>
</svg>
