<svg width="82" height="83" viewBox="0 0 82 83" fill="none" xmlns="http://www.w3.org/2000/svg">
<path d="M78.8383 62.1163C78.8383 64.4579 78.696 66.835 78.8739 69.1411C79.0517 71.057 78.1979 71.9794 76.5971 72.7954C67.4898 77.4431 57.9913 80.8846 47.8168 82.2327C31.9503 84.3615 16.8309 82.1263 2.49414 74.8887C0.893258 74.0726 0.359632 73.1147 0.395207 71.3408C0.501933 66.7286 0.395207 62.0808 0.430782 57.4686C0.430782 54.7367 0.715383 54.5239 3.52582 54.3465C8.79093 54.0272 13.807 55.3399 18.8587 56.5462C29.4956 59.0652 40.2749 60.5198 51.1253 58.2137C55.8924 57.1848 60.4815 55.3044 65.213 54.0981C68.9484 53.1757 72.755 52.608 76.5615 52.0404C78.1624 51.792 79.0517 52.5371 78.9094 54.4529C78.7316 57.0074 78.8739 59.5618 78.8739 62.1163H78.8383Z" fill="#1EC29D"/>
<path d="M64.2526 46.0443C64.9641 47.8892 65.64 49.6276 66.4582 51.6854C64.0035 52.5724 61.62 53.4594 59.2365 54.2754C47.8169 58.2845 36.2194 58.4264 24.4796 55.9429C20.9577 55.1978 17.4713 54.4173 13.9494 53.7432C12.3129 53.4239 11.7793 52.7143 12.2418 51.0468C13.9138 45.0509 18.254 42.0352 23.9815 40.5806C24.8353 40.3677 25.7247 40.1903 26.6141 39.9774C28.9265 39.4807 30.7408 39.6581 32.6619 41.6449C36.9665 46.0798 43.1565 45.7959 47.5678 41.2547C48.8485 39.942 50.0225 39.3743 51.7301 39.9065C54.6828 40.8289 57.6356 41.7514 60.5172 42.7803C61.2287 43.0286 61.7979 43.7382 63.0074 44.6961C60.6239 45.6895 58.7384 46.5765 56.7818 47.1796C56.2837 47.3215 55.4299 46.5055 54.8251 46.0088C52.8329 44.3413 50.2715 44.4123 48.4928 46.2217C46.7496 48.0311 46.7496 50.7275 48.4928 52.5369C50.8407 54.9495 54.9674 54.0625 56.0703 50.763C56.4972 49.5212 57.1375 49.06 58.2048 48.6697C60.1258 47.9247 61.9757 47.0377 64.2526 46.0798V46.0443Z" fill="#1EC29D"/>
<path d="M29.2112 37.7062C25.7248 38.5222 22.4875 37.7062 19.2857 36.9966C18.8232 36.8902 18.2185 36.0742 18.1473 35.5065C16.9022 26.8497 17.1156 18.1574 17.7916 9.46512C17.7916 9.25224 17.8627 9.07485 17.8983 8.86198C18.5742 4.35618 18.5742 4.24974 23.2346 3.71756C33.9427 2.44033 44.6508 2.54677 55.3589 3.68209C57.1732 3.85948 58.1693 4.56905 57.9914 6.69778C57.778 9.78442 57.9203 12.9065 57.9558 16.0287C57.9558 17.9445 58.5606 19.5056 60.3394 20.57C60.8019 20.8538 61.2999 21.6343 61.2643 22.1665C61.0509 26.6368 60.7307 31.1071 60.3394 35.5774C60.3038 36.1451 59.5567 36.9966 58.9875 37.103C56.2838 37.5997 53.5445 37.8836 50.4851 38.2738C51.41 35.3291 52.1927 32.8811 52.9398 30.433C54.4695 25.6079 55.7146 20.7473 54.6829 15.6029C52.9753 7.26543 45.1132 4.60453 38.3184 5.38506C35.1878 5.73985 32.3774 6.73325 30.563 9.53607C30.3851 9.8199 30.065 9.9973 29.7448 10.1392C24.5153 12.4453 22.5586 15.8868 23.6615 21.4569C24.1595 23.9404 25.1556 26.3175 25.9383 28.7301C26.4363 30.2202 27.0055 31.7103 27.5391 33.1649C28.0728 34.6195 28.642 36.1096 29.2467 37.7062H29.2112Z" fill="#1EC29D"/>
<path d="M51.8017 26.6018C51.5527 26.318 51.2325 26.0341 51.0191 25.7148C49.2403 23.1958 46.7857 22.167 43.7262 22.1315C41.3427 22.096 38.8524 22.0605 36.54 21.4929C32.5912 20.4995 30.2077 15.497 31.5239 11.7007C32.271 9.50106 33.9075 7.93999 36.1487 7.72712C39.137 7.44329 42.2676 7.19494 45.1492 7.79808C49.7384 8.72053 52.4777 12.02 52.9401 16.5968C53.2603 19.8963 52.7978 23.2668 52.6555 26.6018C52.3709 26.6018 52.0863 26.6018 51.8017 26.6373V26.6018Z" fill="#1EC29D"/>
<path d="M59.7343 11.1323C61.6554 10.7066 63.612 10.7775 64.786 9.8551C65.8888 8.96813 66.209 7.05228 66.8493 5.59766C67.0984 5.59766 67.3474 5.59766 67.5964 5.59766C68.0589 6.6975 68.5214 7.76186 68.9127 8.8617C69.4107 10.2808 69.6953 11.8064 70.3357 13.1546C71.4385 15.5317 73.4307 15.6381 74.996 13.5449C75.4585 12.9418 75.921 12.2677 76.0633 11.5581C76.3123 10.3163 77.0594 10.1035 78.1622 10.1035C82.8225 10.1389 81.8976 9.78414 81.9687 13.7932C81.9687 14.3609 81.9687 14.8931 81.9687 15.4607C81.9687 18.441 81.2928 19.115 78.3045 19.115C73.324 19.115 68.3435 19.115 63.3274 19.115C60.4102 19.115 59.6987 18.3345 59.6987 15.3898C59.6987 13.9352 59.6987 12.516 59.6987 11.0969L59.7343 11.1323Z" fill="#1EC29D"/>
<path d="M59.7341 8.61408C59.7341 6.69823 59.6985 4.85334 59.7341 3.00844C59.8052 1.44738 60.7657 0.560412 62.2599 0.524933C67.9875 0.453976 73.7507 0.418497 79.4782 0.595891C80.2965 0.595891 81.5772 1.66025 81.7551 2.44078C82.1464 4.00185 81.9685 5.7403 81.8974 7.37233C81.8974 7.72711 81.2926 8.22381 80.8657 8.33025C80.2253 8.50764 79.4782 8.47217 78.8023 8.36573C76.3476 8.01094 74.7112 8.64956 74.1776 11.3459C74.0708 11.9846 73.1815 12.4813 72.6834 13.0489C72.2921 12.4458 71.7229 11.9136 71.4739 11.275C70.9402 9.85583 70.6201 8.36573 70.1576 6.94658C69.6951 5.52743 68.948 3.89541 67.3471 4.14376C66.2443 4.32116 64.8569 5.52743 64.43 6.59179C63.5406 8.89791 62.1888 9.43009 59.7341 8.61408Z" fill="#1EC29D"/>
<path d="M28.8908 12.4463C29.4956 14.575 30.0648 16.6328 30.634 18.726C30.7051 18.9744 30.7051 19.3292 30.5628 19.5066C29.2465 21.2805 27.8947 23.0189 26.5428 24.7929C24.1593 20.3935 25.191 12.8011 28.9264 12.4463H28.8908Z" fill="#1EC29D"/>
<path d="M65.213 44.6607C64.8928 44.3059 64.6082 43.9511 64.2524 43.5254C70.1579 37.8488 71.8299 30.7885 71.7944 23.1251C71.7944 22.7704 71.6876 22.3801 71.7944 22.0963C71.9722 21.6705 72.328 21.3157 72.6126 20.9609C72.8972 21.3512 73.4308 21.7769 73.4308 22.1317C73.2885 25.0765 73.3952 28.0922 72.7905 30.9659C71.7588 36.1458 69.731 40.9355 65.213 44.6607Z" fill="#1EC29D"/>
<path d="M51.6944 52.0745C50.1291 52.0391 49.0263 50.8328 49.0619 49.2362C49.0619 47.6752 50.3426 46.5044 51.8723 46.5398C53.402 46.5753 54.5404 47.8171 54.5049 49.4136C54.4693 51.0456 53.3309 52.181 51.73 52.11L51.6944 52.0745Z" fill="#1EC29D"/>
</svg>
