<svg width="160" height="160" viewBox="0 0 160 160" fill="none" xmlns="http://www.w3.org/2000/svg">
<g clip-path="url(#clip0_7_9769)">
<path d="M60 80C82.0914 80 100 62.0914 100 40C100 17.9086 82.0914 0 60 0C37.9086 0 20 17.9086 20 40C20 62.0914 37.9086 80 60 80Z" fill="white"/>
<path d="M60 93.3311C44.093 93.3505 28.843 99.6781 17.595 110.926C6.34705 122.174 0.0194064 137.424 0 153.331C0 155.099 0.702379 156.795 1.95262 158.045C3.20286 159.295 4.89856 159.998 6.66667 159.998H113.333C115.101 159.998 116.797 159.295 118.047 158.045C119.298 156.795 120 155.099 120 153.331C119.981 137.424 113.653 122.174 102.405 110.926C91.157 99.6781 75.907 93.3505 60 93.3311V93.3311Z" fill="white"/>
<path d="M146.666 52.5C142.956 52.6848 139.47 54.3318 136.971 57.0805C134.472 59.8291 133.164 63.4557 133.332 67.1667C133.501 63.4557 132.193 59.8291 129.694 57.0805C127.195 54.3318 123.709 52.6848 119.999 52.5C116.289 52.6848 112.803 54.3318 110.304 57.0805C107.806 59.8291 106.497 63.4557 106.666 67.1667C106.666 78.7 121.706 92.2133 129.199 98.2267C130.372 99.1658 131.83 99.6775 133.332 99.6775C134.835 99.6775 136.293 99.1658 137.466 98.2267C144.959 92.2267 159.999 78.7 159.999 67.1667C160.168 63.4557 158.859 59.8291 156.361 57.0805C153.862 54.3318 150.376 52.6848 146.666 52.5V52.5Z" fill="white"/>
</g>
<defs>
<clipPath id="clip0_7_9769">
<rect width="160" height="160" fill="white"/>
</clipPath>
</defs>
</svg>
