<svg width="40" height="49" viewBox="0 0 40 49" fill="none" xmlns="http://www.w3.org/2000/svg">
<path d="M5.48291 17.8164H33.1849V21.4074V37.3104L28.0549 45.5184L17.7949 48.0834L10.0999 44.4924L5.48291 37.3104V17.8164Z" fill="#1EC29D"/>
<path d="M29.6752 6.54901C27.6414 9.53683 25.8195 12.2005 23.8563 15.1178H30.6638C30.2542 16.5131 29.887 17.711 29.6328 18.5989C27.7967 18.6976 26.1584 18.754 24.5201 18.8949C20.8904 19.205 17.303 18.7681 13.7156 18.2325C13.3202 18.1761 12.9247 18.1198 12.5151 18.1057C10.0718 17.9506 9.69042 18.3171 8.97012 20.6425C8.70178 21.5022 8.13684 22.3619 7.48716 22.9961C6.1878 24.2504 5.55224 25.688 5.60873 27.4778C5.69347 30.0569 5.53811 32.6783 5.87707 35.2292C6.78098 42.0082 12.8541 47.4765 19.2238 47.3215C24.7602 47.1805 28.4464 44.1081 30.9604 39.4432C32.1185 37.2869 32.5846 34.9333 32.5705 32.481C32.5422 29.3523 32.74 26.1953 32.4858 23.0807C32.3586 21.5586 32.9377 20.6566 33.771 19.6419C34.9997 18.162 36.172 16.6399 37.5843 14.8642C37.6832 15.5407 37.7538 15.9071 37.7821 16.2735C38.008 19.4727 37.4996 22.5874 36.6381 25.6739C36.5392 26.0121 36.6945 26.5758 36.9488 26.8295C37.9515 27.8584 38.0928 28.9999 37.3584 30.2965C36.7652 31.3394 36.2991 32.4387 35.7342 33.4957C35.5364 33.8763 35.3104 34.44 34.9856 34.5246C33.7851 34.8346 33.7992 35.8212 33.545 36.695C31.9632 42.276 28.6724 46.3913 23.023 48.1953C18.221 49.7314 13.8427 48.5899 10.0294 45.3907C7.11994 42.9525 5.25564 39.8237 4.47885 36.0749C4.33761 35.4125 4.19638 34.9051 3.40546 34.6232C2.95351 34.4682 2.65692 33.7917 2.38858 33.2984C1.86601 32.3542 1.45642 31.3254 0.891478 30.4093C0.0723154 29.0422 0.185305 27.957 1.30106 26.7732C1.55528 26.5054 1.61178 25.9416 1.56941 25.547C1.31519 22.7988 0.919725 20.0506 0.736119 17.3023C0.609008 15.3856 0.99035 13.5535 2.38858 12.0314C3.15125 11.1999 2.81228 10.2697 2.19085 9.43817C1.54117 8.55028 1.59766 8.19794 2.57218 7.78923C9.80341 4.68866 17.2606 3.15248 25.0992 4.99873C26.5962 5.35106 28.0227 5.99936 29.6611 6.57719L29.6752 6.54901ZM4.11163 33.0025C4.11163 31.3113 4.18226 29.8455 4.05515 28.3939C4.0269 28.1402 3.16536 27.7738 2.71341 27.802C2.07785 27.8443 1.6259 28.3939 1.95074 29.0563C2.57218 30.3247 3.3066 31.5368 4.11163 33.0025ZM34.0676 33.0025C34.8867 31.5368 35.5647 30.367 36.1861 29.1831C36.5392 28.5207 36.2426 28.0275 35.5929 27.8161C34.9856 27.6188 34.1664 27.5765 34.0958 28.3657C33.9546 29.8173 34.0535 31.2831 34.0535 33.0025H34.0676Z" fill="#1EC29D"/>
<path d="M25.5939 28.9114C26.2577 29.2215 26.7803 29.3624 27.1475 29.6584C27.3876 29.8557 27.5853 30.3912 27.4865 30.6167C27.3735 30.8704 26.8085 31.1382 26.5543 31.0677C25.4103 30.7013 24.2946 30.2644 23.207 29.757C22.5432 29.447 22.4303 28.7846 23.0658 28.3759C24.1674 27.6712 25.3397 27.0793 26.5261 26.5296C26.752 26.431 27.3029 26.6846 27.4723 26.9383C27.5995 27.1215 27.4724 27.6712 27.2605 27.8544C26.8368 28.2349 26.3001 28.4745 25.5939 28.8973V28.9114Z" fill="white"/>
<path d="M12.5999 28.9265C11.9644 28.56 11.4559 28.3768 11.1311 28.0245C10.8768 27.7426 10.8345 27.2494 10.7074 26.8547C11.0887 26.7702 11.5548 26.5024 11.8372 26.6292C12.8965 27.0943 13.9275 27.6581 14.9303 28.2641C15.7495 28.7574 15.6788 29.4902 14.7749 29.8848C13.8145 30.3076 12.8259 30.7304 11.8231 31.0123C11.4983 31.111 11.0463 30.7727 10.6509 30.6318C10.8486 30.2654 10.9898 29.8285 11.2864 29.5607C11.5689 29.2929 12.0209 29.1943 12.5999 28.9406V28.9265Z" fill="white"/>
<path d="M19.0682 38.1977C20.1275 38.4796 21.215 38.6769 22.2178 39.0574C22.5426 39.1842 22.6697 39.8184 22.8816 40.2131C22.4437 40.3117 21.9353 40.6077 21.5822 40.4808C19.8874 39.8466 18.2491 39.8607 16.5542 40.4808C16.2012 40.6077 15.6927 40.2976 15.2549 40.1849C15.4809 39.7902 15.6221 39.1701 15.9611 39.0433C16.9356 38.6628 17.9807 38.4655 19.0682 38.1836V38.1977Z" fill="white"/>
<path d="M35.7016 0.455237C34.9107 3.42896 34.1198 6.38859 33.2865 9.54553H39.8539C36.436 13.83 33.23 17.8607 30.0381 21.8773C29.9674 21.8351 29.8827 21.8069 29.8121 21.7646C30.5183 19.3405 31.2386 16.9164 32.0154 14.2669H26.4083C26.3377 14.1541 26.2671 14.0273 26.1965 13.9145C29.2754 9.4046 32.3543 4.89468 35.4332 0.384766C35.5321 0.412953 35.631 0.441147 35.7157 0.469334L35.7016 0.455237Z" fill="#1EC29D"/>
</svg>
