<svg width="62" height="57" viewBox="0 0 62 57" fill="none" xmlns="http://www.w3.org/2000/svg">
<path d="M3.13923 10.992H1.21187V10H4.85352C4.09807 11.3327 3.3523 12.6453 2.5678 14.018H4.62107V15H0.853516C1.61865 13.6673 2.35473 12.3647 3.13923 10.992Z" fill="#1EC29D"/>
<path d="M5.84402 18C5.38833 18.7265 4.96111 19.4017 4.50541 20.1368H5.54972V21H2.85352C3.29972 20.2906 3.71744 19.6068 4.15415 18.9145C4.09719 18.8889 4.06871 18.8632 4.04022 18.8632C3.46428 18.8291 3.2206 18.5442 3.30921 18.0085H5.85352L5.84402 18Z" fill="#1EC29D"/>
<path d="M16.4155 28C19.8224 31.6013 24.0557 32.224 28.5589 32.1567C30.2792 32.1398 32.0164 32.3754 33.7536 32.3754C38.3073 32.3754 42.1021 39.191 40.4661 42.9102C39.1169 45.9898 38.0037 49.3219 35.9798 51.9135C30.6671 58.7459 22.4535 58.6449 17.0058 51.9135C12.9918 46.949 11.4401 41.1095 11.9461 34.8156C12.1653 31.9715 14.088 29.9521 16.4324 28H16.4155ZM28.2047 50.0118C28.2553 50.1465 28.3059 50.2811 28.3565 50.3989C28.5589 50.3989 28.795 50.4999 28.9805 50.4157C29.6383 50.1465 30.2792 49.8267 30.9201 49.507C30.2961 49.0863 29.7058 48.43 29.0311 48.3122C26.6025 47.8914 24.3424 48.5141 22.3692 49.9445C21.9475 50.2474 21.88 51.0384 21.6608 51.6106C22.268 51.661 22.9257 51.8966 23.4654 51.7284C25.0845 51.2403 26.6531 50.584 28.2216 49.995L28.2047 50.0118ZM18.4057 41.2441C19.9573 40.5542 21.3741 40.0325 22.639 39.2752C23.0438 39.0396 23.0775 38.1813 23.2799 37.5923C22.6727 37.5418 22.0318 37.3567 21.4753 37.4913C20.3621 37.7943 19.2658 38.215 18.237 38.7198C17.7142 38.9723 17.3263 39.5108 16.8878 39.9147C17.3431 40.3186 17.7985 40.7056 18.4057 41.2441ZM34.6306 41.1936C35.2715 40.7224 35.8955 40.47 36.0979 40.0325C36.216 39.7632 35.7775 38.9723 35.4233 38.804C34.074 38.1813 32.6573 37.6596 31.2237 37.2389C30.8189 37.1211 30.0431 37.3399 29.8576 37.6428C29.672 37.9457 29.8913 38.8376 30.178 39.0059C31.5779 39.7969 33.0789 40.4364 34.6306 41.1768V41.1936Z" fill="#1EC29D"/>
<path d="M42.2611 37C41.8853 36.4635 41.5949 36.1348 41.3729 35.7713C39.306 32.0854 36.1631 30.3722 31.9952 30.3376C29.1939 30.303 26.3584 30.2857 23.5912 29.8703C18.1594 29.057 14.2478 23.6059 14.931 18.0683C15.341 14.7458 17.0662 12.3577 20.2262 11.2502C25.4189 9.43313 30.6116 9.58888 35.6506 11.7693C40.0747 13.6729 42.5856 17.2896 43.4226 21.9793C44.3108 26.9631 43.7813 31.895 42.244 37H42.2611Z" fill="#1EC29D"/>
<path d="M14.8535 26.2373C13.1413 28.8305 11.3961 31.4915 9.74965 34C6.14402 28.8136 7.92214 19 13.0425 17C13.6516 20.0678 14.2608 23.1864 14.8535 26.2373Z" fill="#1EC29D"/>
<g clip-path="url(#clip0_312_4692)">
<path d="M47.9434 9.46756C47.9434 6.82034 50.1801 4.66866 52.8934 4.6817C55.5669 4.6817 57.7639 6.89858 57.7639 9.57189C57.7639 12.2061 55.5139 14.3708 52.8007 14.3577C50.1139 14.3577 47.9434 12.1669 47.9434 9.4806V9.46756Z" fill="#1EC29D"/>
<path d="M52.8404 13.8752C55.2757 13.8752 57.2875 11.9061 57.2742 9.53276C57.2742 7.12027 55.2625 5.15116 52.8272 5.15116M47.9434 9.46756C47.9434 6.82034 50.1801 4.66866 52.8934 4.6817C55.5669 4.6817 57.7639 6.89858 57.7639 9.57189C57.7639 12.2061 55.5139 14.3708 52.8007 14.3577C50.1139 14.3577 47.9434 12.1669 47.9434 9.4806V9.46756Z" stroke="#1EC29D" stroke-width="0.5"/>
<path d="M47.8108 6.48069C47.7049 6.81975 47.5196 6.75454 47.3343 6.65022C46.699 6.28509 46.0637 5.93299 45.4284 5.56786C45.1637 5.41137 44.8858 5.28097 44.6343 5.11144C44.5417 5.04624 44.5417 4.87671 44.502 4.74631C44.6211 4.73327 44.7667 4.65502 44.8593 4.70719C45.7858 5.21577 46.7122 5.75043 47.6387 6.27205C47.7181 6.32421 47.7711 6.41549 47.8108 6.48069Z" fill="#1EC29D" stroke="#1EC29D" stroke-width="0.5"/>
<path d="M44.6871 14.397C44.6871 14.397 44.5151 14.2926 44.5018 14.2274C44.4886 14.1362 44.5151 14.0057 44.5813 13.9536C44.7401 13.8232 44.9121 13.7449 45.0842 13.6406C45.8121 13.2233 46.5401 12.806 47.268 12.4148C47.4004 12.3496 47.6783 12.3235 47.7313 12.4018C47.8768 12.5974 47.6783 12.7147 47.5195 12.8191C46.6592 13.3016 45.8121 13.7841 44.9518 14.2796C44.8724 14.3187 44.7798 14.3578 44.6739 14.41L44.6871 14.397Z" fill="#1EC29D" stroke="#1EC29D" stroke-width="0.5"/>
<path d="M52.6153 1.85175C52.6153 1.36925 52.6021 0.873713 52.6153 0.391215C52.6153 0.26081 52.7609 0.130405 52.8271 0C52.9065 0.130405 53.0653 0.247769 53.0653 0.378174C53.0918 1.38229 53.0786 2.38641 53.0653 3.39053C53.0653 3.50789 52.9197 3.62526 52.8403 3.72958C52.7609 3.61222 52.6153 3.49485 52.6021 3.36445C52.5756 2.86891 52.6021 2.36033 52.6021 1.86479L52.6153 1.85175Z" fill="#1EC29D" stroke="#1EC29D" stroke-width="0.5"/>
<path d="M52.6154 17.135C52.6154 16.6525 52.6022 16.1569 52.6154 15.6744C52.6154 15.544 52.761 15.4136 52.8404 15.2832C52.9198 15.4006 53.0786 15.531 53.0786 15.6483C53.1051 16.6394 53.0919 17.6305 53.0786 18.6216C53.0786 18.752 52.9463 18.9867 52.8536 18.9997C52.5889 19.0258 52.6022 18.7911 52.6022 18.6085C52.6022 18.126 52.6022 17.6305 52.6022 17.148L52.6154 17.135Z" fill="#1EC29D" stroke="#1EC29D" stroke-width="0.5"/>
<path d="M61.3772 4.99429C61.258 5.04645 61.1257 5.08558 61.0066 5.15078C60.133 5.64632 59.2463 6.1549 58.3727 6.6374C58.2669 6.68956 58.0948 6.6374 57.9492 6.6374C58.0154 6.50699 58.0419 6.31138 58.1477 6.24618C59.0213 5.72456 59.8948 5.24206 60.7683 4.73348C60.9669 4.61612 61.1389 4.577 61.3772 4.99429Z" fill="#1EC29D" stroke="#1EC29D" stroke-width="0.5"/>
<path d="M61.2449 14.2659C61.0993 14.2659 60.9272 14.3442 60.8081 14.292C60.3581 14.0703 59.9213 13.7965 59.4846 13.5487C59.0346 13.2879 58.5713 13.0532 58.1346 12.7663C58.0287 12.7011 58.0022 12.5055 57.936 12.3751C58.0816 12.3751 58.2537 12.3099 58.3596 12.362C59.2463 12.8445 60.1199 13.3531 60.9934 13.8486C61.0993 13.9138 61.1787 14.0182 61.2713 14.0964C61.2713 14.1486 61.2581 14.2007 61.2449 14.2529V14.2659Z" fill="#1EC29D" stroke="#1EC29D" stroke-width="0.5"/>
<path d="M45.0976 9.7416C44.8065 9.7416 44.502 9.76768 44.2109 9.7416C44.0785 9.72856 43.9726 9.59816 43.8535 9.51992C43.9726 9.44167 44.0785 9.28519 44.1976 9.28519C44.8065 9.2591 45.402 9.2591 46.0109 9.28519C46.13 9.28519 46.2359 9.44167 46.3418 9.51992C46.2226 9.59816 46.1168 9.72856 45.9844 9.7416C45.6932 9.76768 45.402 9.7416 45.0976 9.7416Z" fill="#1EC29D" stroke="#1EC29D" stroke-width="0.5"/>
<path d="M60.6094 9.27136C60.9138 9.27136 61.2314 9.24528 61.5358 9.27136C61.6549 9.27136 61.7476 9.4148 61.8535 9.49305C61.7476 9.57129 61.6549 9.72777 61.5491 9.72777C60.9138 9.75386 60.2917 9.75386 59.6564 9.72777C59.5638 9.72777 59.4579 9.57129 59.3652 9.49305C59.4711 9.4148 59.5638 9.2844 59.6829 9.2844C59.9873 9.25832 60.3049 9.2844 60.6094 9.2844V9.27136Z" fill="#1EC29D" stroke="#1EC29D" stroke-width="0.5"/>
<path d="M57.4596 2.05967C57.4331 2.12487 57.4067 2.20311 57.367 2.26832C57.0758 2.76386 56.7978 3.27243 56.4802 3.76797C56.414 3.85926 56.2287 3.88534 56.1096 3.95054C56.1096 3.80709 56.0302 3.65061 56.0831 3.54628C56.3611 3.02466 56.6655 2.51609 56.9831 2.00751C57.0361 1.91622 57.1817 1.85102 57.3008 1.83798C57.3934 1.82494 57.5126 1.8771 57.6184 1.91622C57.5655 1.96838 57.5258 2.02055 57.4728 2.07271L57.4596 2.05967Z" fill="#1EC29D" stroke="#1EC29D" stroke-width="0.5"/>
<path d="M48.3933 17.2662C48.3404 17.1097 48.2477 16.9532 48.2875 16.8619C48.6051 16.2751 48.9492 15.6883 49.3066 15.1275C49.3463 15.0623 49.5316 15.0493 49.611 15.0884C49.6639 15.1145 49.7301 15.284 49.6904 15.3492C49.3595 15.9491 49.0022 16.5359 48.6448 17.1227C48.6183 17.1749 48.5389 17.1879 48.3801 17.2662H48.3933Z" fill="#1EC29D" stroke="#1EC29D" stroke-width="0.5"/>
<path d="M57.2078 17.2389C57.1283 17.1737 57.0357 17.1216 56.996 17.0433C56.6783 16.5217 56.3739 16.0001 56.0828 15.4785C56.0298 15.3741 56.1092 15.2177 56.1357 15.0742C56.2548 15.1264 56.4269 15.1525 56.4798 15.2437C56.7975 15.7523 57.1151 16.2739 57.393 16.8086C57.446 16.9129 57.3666 17.0825 57.3533 17.2259C57.3004 17.2259 57.2607 17.2259 57.2078 17.2389Z" fill="#1EC29D" stroke="#1EC29D" stroke-width="0.5"/>
<path d="M48.6183 1.66992C48.658 1.78729 48.6977 1.90465 48.7507 2.00897C49.0418 2.53059 49.3595 3.02613 49.6374 3.56079C49.6904 3.65208 49.6374 3.80856 49.6242 3.93897C49.4918 3.88681 49.3065 3.88681 49.2404 3.78248C48.9095 3.2739 48.6051 2.75228 48.3139 2.21762C48.261 2.1133 48.3404 1.94377 48.3536 1.80033L48.6183 1.68296V1.66992Z" fill="#1EC29D" stroke="#1EC29D" stroke-width="0.5"/>
</g>
<defs>
<clipPath id="clip0_312_4692">
<rect width="18" height="19" fill="white" transform="translate(43.8535)"/>
</clipPath>
</defs>
</svg>
