<svg width="54" height="54" viewBox="0 0 54 54" fill="none" xmlns="http://www.w3.org/2000/svg">
<path d="M24.162 40.5125C23.6372 40.0225 23.2646 39.6846 22.8583 39.296C21.5545 40.428 20.5894 41.7966 20.0137 43.4524C19.929 43.689 19.6581 44.0438 19.4719 44.0438C18.9639 44.0438 18.4052 44.3141 18.0157 43.5876C16.204 40.1915 15.0865 36.6095 14.6293 32.791C14.206 29.2766 14.4261 25.7792 14.6801 22.2817C14.6801 22.0789 14.7648 21.8931 14.8156 21.6565C16.7289 21.7241 18.6083 21.8255 20.5047 21.8593C26.2447 21.9438 31.9508 21.6903 37.5045 20.0514C39.9258 19.3418 42.1947 18.328 44.091 16.6215C44.1588 16.5708 44.2434 16.537 44.2942 16.4863C45.1578 18.4801 45.9705 20.4738 46.8679 22.4168C47.6637 24.1571 48.595 25.8298 49.9326 27.2491C50.0511 27.3843 50.1188 27.6039 50.1358 27.7898C50.2712 34.2441 48.8997 40.2929 45.1747 45.6658C42.7703 49.1295 39.6718 51.7146 35.4896 52.779C32.7804 53.4549 30.1391 53.2521 27.5315 52.3059C27.2945 52.2215 27.0744 52.137 26.7865 52.0187C26.668 52.8128 26.1092 52.6777 25.5674 52.7621C24.6023 52.8973 23.9927 52.4918 23.3662 51.816C20.5047 48.724 20.5555 44.0776 23.5525 41.0363C23.7218 40.8673 23.9419 40.7321 24.2128 40.5294L24.162 40.5125ZM32.3402 49.7546C33.5932 49.687 34.7446 49.366 35.6758 48.4874C37.0135 47.2371 36.9965 45.3279 35.6589 44.0776C33.9318 42.4724 30.9179 42.4555 29.1739 44.0269C27.7686 45.2941 27.7516 47.2371 29.157 48.5212C30.0713 49.3491 31.1719 49.6702 32.3741 49.7377L32.3402 49.7546ZM34.0334 40.2084C34.0334 40.2084 34.0842 40.1239 34.0842 40.0901C34.1858 39.0876 33.7399 38.5807 32.7466 38.5695C32.0185 38.5695 31.6291 38.2315 31.5613 37.4881C31.5444 37.2009 31.5613 36.8967 31.6291 36.6264C31.9169 35.072 32.2048 33.5175 32.5095 31.8955C31.9169 31.7941 31.3751 31.7097 30.8163 31.6083C30.4946 33.3486 30.2068 34.9706 29.8681 36.5926C29.6988 37.4374 29.8343 38.1977 30.2406 38.9243C30.9349 40.1577 32.1201 40.5632 34.0165 40.2084H34.0334ZM25.3473 41.6783C21.8085 44.5676 22.5704 49.3322 25.2796 51.1401C25.7029 50.7853 26.1262 50.4474 26.5664 50.0757C25.3642 49.0788 24.67 47.9299 24.67 46.4261C24.67 44.9224 25.4827 43.8241 26.5325 42.8273C26.1092 42.4218 25.7367 42.0669 25.3473 41.6783ZM19.8952 27.2491C22.7906 25.8974 25.6351 25.644 28.4628 27.2829C28.7337 26.7084 28.9707 26.2353 29.1909 25.7792C26.3632 24.022 21.6561 24.022 19.2687 25.7623C19.4719 26.2353 19.6581 26.7084 19.8952 27.266V27.2491ZM45.4795 25.7623C43.2783 24.022 38.131 24.022 35.5742 25.796C35.6758 26.0326 35.7943 26.2691 35.9129 26.5226C36.0314 26.7591 36.1499 26.9957 36.3023 27.2998C39.1638 25.644 41.9915 25.9481 44.853 27.266C45.0731 26.7253 45.2763 26.2522 45.4625 25.7792L45.4795 25.7623ZM27.4807 30.0707C25.2626 31.7772 23.0615 31.4393 20.8603 30.1045C20.5725 30.6452 20.3354 31.1014 20.0984 31.5745C22.7059 33.4331 26.2785 33.3993 28.3612 31.4731C28.0903 31.0507 27.8363 30.6114 27.4977 30.0707H27.4807ZM44.0064 30.3073C42.7703 30.6452 41.6867 31.0507 40.5522 31.2197C39.3501 31.4055 38.3003 30.7297 37.2674 30.1045C36.9627 30.5945 36.6917 31.0507 36.4208 31.49C39.0114 33.45 41.9068 33.3993 44.6837 31.5407C44.4466 31.0845 44.2096 30.6283 44.0233 30.2904L44.0064 30.3073Z" fill="#1EC29D"/>
<path d="M13.5962 19.7635C14.3751 15.945 15.1201 12.211 16.7794 8.73039C18.5403 5.03016 21.5034 2.88436 25.4825 2.20852C30.2404 1.38061 34.9983 1.39751 39.7054 2.51265C45.53 3.86433 49.0349 7.64905 50.6435 13.2923C51.6933 16.9757 51.9811 20.7604 51.9642 24.5789C51.9642 25.1364 51.6933 25.6771 51.5578 26.2347C51.4731 26.2516 51.3885 26.2685 51.3207 26.2854C50.8297 25.6602 50.3048 25.052 49.8815 24.393C48.1714 21.6728 47.02 18.6991 45.9194 15.7085C45.5808 14.7792 45.2591 13.8499 44.8866 12.7685C44.7681 12.9544 44.7003 13.0558 44.6326 13.1741C43.1087 15.8098 40.6874 17.2291 37.8937 18.1584C34.8797 19.1721 31.7812 19.6283 28.6318 19.8987C24.7375 20.2366 20.8431 20.2197 16.9487 20.017C15.8482 19.9663 14.7476 19.8649 13.5962 19.7804V19.7635Z" fill="#1EC29D"/>
<path d="M3.99596 1.73521H0.626485V0.0625H6.99293C5.67223 2.30967 4.36846 4.52306 2.99697 6.83781H6.58656V8.49363H0C1.33763 6.24645 2.62446 4.04997 3.99596 1.73521Z" fill="#1EC29D"/>
<path d="M8.78769 12.9043C7.97495 14.3405 7.21301 15.6752 6.40027 17.1283H8.2628V18.8348H3.4541C4.24991 17.4324 4.99492 16.0808 5.77379 14.7122C5.6722 14.6615 5.6214 14.6108 5.5706 14.6108C4.5434 14.5432 4.10881 13.98 4.26684 12.9212H8.80462L8.78769 12.9043Z" fill="#1EC29D"/>
<path d="M52.0488 28.1953C53.488 29.1922 53.9283 30.7297 53.8436 32.4024C53.742 34.4637 52.997 36.2378 50.999 37.184C51.3546 34.1934 51.6932 31.2197 52.0488 28.1953Z" fill="#1EC29D"/>
<path d="M13.4777 37.0303C11.9877 36.253 11.2935 34.8845 11.0057 33.2456C10.684 31.387 11.0395 29.6974 12.4788 28.3457C12.8174 31.2687 13.1391 34.141 13.4608 37.0303H13.4777Z" fill="#1EC29D"/>
<path d="M32.408 44.416C33.1022 44.7032 33.8133 44.8722 34.389 45.2608C35.2018 45.8015 35.151 46.7308 34.389 47.3559C33.3562 48.2176 31.409 48.2176 30.3761 47.3559C29.5973 46.7139 29.5803 45.7508 30.4439 45.2101C31.0026 44.8553 31.6968 44.6864 32.408 44.416Z" fill="#1EC29D"/>
</svg>
