<svg width="37" height="51" viewBox="0 0 37 51" fill="none" xmlns="http://www.w3.org/2000/svg">
<path d="M18.6089 50.6698C15.6147 50.441 11.4313 50.7127 7.23384 50.7127C4.15572 50.7127 8.49307 46.6081 8.63298 42.1317C8.71693 39.1712 4.21168 36.0534 4.37958 33.8366L4.58945 30.9906C4.78533 28.1589 3.54009 22.1235 5.84868 22.1235C10.0461 22.1235 18.3291 21.6945 24.0376 22.1235L31.0333 14.9727C35.2727 15.2873 35.0908 17.7043 35.1748 21.1081C35.2587 24.5119 35.5945 28.9455 35.2867 33.2789L35.0768 36.1249C34.8809 38.8423 31.0193 32.1204 30.5296 43.2758C30.4177 45.9359 24.2195 43.8479 22.6384 45.0063C19.8121 47.0658 26.8359 50.727 18.6229 50.6841L18.6089 50.6698Z" fill="#1EC29D"/>
<path d="M33.9573 15.5311C33.7474 15.2594 33.5795 14.8446 33.5935 14.5014C33.6355 11.0403 31.5228 8.36592 28.2068 7.63653C27.9689 7.57932 27.7311 7.27899 27.6192 7.03586C27.3813 6.49239 27.2694 5.87742 27.0175 5.34825C24.8349 0.785997 19.1683 -1.25915 14.5511 0.814601C13.152 1.44388 11.9907 2.37349 10.9973 3.58914C10.7874 3.47472 10.6196 3.37461 10.4377 3.2745C7.82126 1.87293 4.75713 2.40209 2.70039 4.61886C0.629656 6.83563 0.251887 9.96771 1.79095 12.5563C2.08477 13.0569 2.16872 13.443 1.95884 14.0151C1.76296 14.5729 1.67901 15.2021 1.69301 15.7885C1.73498 18.1626 2.6864 20.079 4.6452 21.4949C4.61722 21.6093 4.60323 21.6665 4.57524 21.738C2.32262 27.9593 3.05018 33.823 6.78589 39.2291C7.84924 40.7594 8.04512 42.3612 7.86324 44.0917C7.63937 46.1368 6.78589 47.9102 5.42872 49.4262C5.09293 49.7981 4.91104 50.2414 5.26083 50.5846C5.51267 50.8278 5.98838 50.9565 6.36615 50.9565C12.3685 50.9851 18.3568 50.9851 24.3592 50.9994C24.8489 50.9994 25.2686 50.9136 25.4225 50.3558C25.5764 49.7838 25.2406 49.4977 24.7789 49.2975C23.3658 48.6825 22.7222 47.0235 23.044 45.1643C25.3386 45.1643 27.6611 45.1643 29.9697 45.1643C30.8932 45.1643 31.117 44.8926 31.117 43.9343C31.117 42.3326 31.117 40.7308 31.117 39.129C31.117 37.5987 31.8866 36.7978 33.3696 36.7978C34.1252 36.7978 34.8667 36.7978 35.6223 36.7978C36.5877 36.7978 36.8395 36.5546 36.8395 35.5821C36.8395 31.6062 36.8395 27.6447 36.8395 23.6688C36.8395 20.6082 35.8461 17.9052 33.9433 15.5311H33.9573ZM21.393 13.1427C22.2045 12.4991 23.3658 12.4705 24.1773 13.0998C25.2266 13.915 25.6604 15.0448 25.7163 16.4178C27.3813 15.7742 28.0109 13.5718 27.0315 12.0129C26.9336 11.8555 26.8216 11.7125 26.6957 11.5695C26.3739 11.1834 26.304 10.74 26.6677 10.3825C27.0455 10.0106 27.5212 10.0535 27.885 10.4254C28.7245 11.2692 29.0463 12.3561 29.1023 13.5145C29.2142 15.7599 27.913 17.5333 25.7863 18.1912C25.5484 18.2627 25.3246 18.5202 25.1986 18.749C24.2892 20.3651 22.946 21.2375 21.1131 21.3376C20.4136 21.3805 19.9518 21.0516 19.9798 20.5367C20.0218 19.9074 20.4555 19.6786 21.0152 19.6643C22.0506 19.6357 22.8761 19.178 23.5616 18.277C23.1699 18.1054 22.8201 17.9767 22.4843 17.8051C21.6308 17.3617 20.9452 16.7324 20.6094 15.7885C20.2597 14.816 20.5675 13.7434 21.365 13.1141L21.393 13.1427ZM13.3619 6.23496C13.8096 6.13485 14.0335 5.93462 14.2293 5.50557C14.761 4.33283 15.6425 3.47472 16.8038 2.93126C17.4474 2.63092 17.9651 2.74534 18.147 3.2459C18.3568 3.84657 18.063 4.20411 17.5313 4.43294C16.7758 4.76188 16.2021 5.29105 15.8244 6.02043C16.5939 6.32077 17.3774 6.52099 18.035 6.93575C18.7346 7.3791 19.4062 7.95117 19.9099 8.60905C20.7074 9.65308 20.5535 11.0689 19.728 11.9986C18.8465 12.9997 17.4894 13.2428 16.3281 12.542C14.6351 11.5266 13.7816 9.96771 13.6417 7.97977C11.7808 7.97977 9.64015 10.2824 9.892 12.8853C11.7808 12.0844 13.4458 12.3275 14.719 14.0437C15.3766 14.9304 15.2787 16.1032 14.6491 17.0471C13.8096 18.2627 12.4804 18.7919 11.0953 18.4486C11.571 19.0207 12.7043 19.3211 13.6557 19.1923C15.5166 18.9492 16.7758 17.8051 17.8112 16.332C18.4128 15.4882 18.7626 15.288 19.2523 15.5883C19.756 15.9172 19.756 16.475 19.1683 17.2902C17.6293 19.4069 15.7264 20.9371 12.9841 20.9085C10.6475 20.8799 8.75869 19.2638 8.29697 16.9327C8.255 16.7038 8.18504 16.4607 8.241 16.2462C8.50684 15.1592 8.241 14.1009 8.22701 13.014C8.12907 9.49576 10.0179 7.03586 13.3619 6.24926V6.23496ZM35.2165 34.4094V35.1245C34.5169 35.1245 33.8733 35.1245 33.2157 35.1245C31.0471 35.1531 29.508 36.7263 29.494 38.9573C29.494 40.4447 29.494 41.9178 29.494 43.5911C28.0109 43.5911 26.5698 43.6197 25.1287 43.5911C23.9954 43.5625 22.8481 43.5625 21.7428 43.348C19.8539 42.9904 19.2663 42.261 19.0424 40.3303C18.9864 39.8297 18.8185 39.4865 18.2729 39.4436C17.6852 39.4007 17.3634 39.7868 17.4054 40.4876C17.5453 42.7473 18.5107 44.0631 20.7214 44.8068C21.2111 44.9784 21.337 45.1929 21.323 45.6792C21.295 46.9377 21.4629 48.1677 22.2604 49.3118H7.77929C8.21302 48.2821 8.70272 47.3382 9.03852 46.3513C9.78006 44.1775 9.80805 41.9893 9.02453 39.8154C8.8986 39.4579 8.68873 39.1147 8.45088 38.8C4.77112 33.7658 4.04357 28.2882 6.05834 22.3387C6.81388 22.4388 7.49946 22.5246 8.18504 22.6391C8.29697 22.6534 8.39491 22.7964 8.46487 22.9108C9.91998 25.0417 11.9208 26.0429 14.4532 25.9571C14.5232 25.9571 14.5791 25.9714 14.6771 25.9857C15.6565 29.2751 18.1609 30.1761 21.1551 30.2476C22.0366 30.2619 22.918 30.1475 23.7855 29.9901C24.0653 29.9329 24.4711 29.604 24.5131 29.3323C24.555 29.0605 24.3172 28.6315 24.0653 28.4313C23.5337 28.0165 22.8901 27.7448 22.3304 27.3443C21.8407 27.0011 21.407 26.572 21.4349 25.814C22.3444 25.814 23.2678 25.9571 24.1213 25.7854C26.7237 25.2706 28.4447 23.6688 29.2282 21.0659C29.3541 20.6511 29.508 20.4223 29.8998 20.2221C31.2569 19.5642 32.2223 18.4772 33.0199 16.9184C33.5515 17.9338 34.1532 18.7776 34.433 19.7072C34.8108 20.9514 35.1186 22.2672 35.1466 23.5687C35.2445 27.187 35.1745 30.8053 35.1745 34.438L35.2165 34.4094Z" fill="#1EC29D"/>
<path d="M16.7619 10.8691C17.3636 11.3697 18.0771 11.3554 18.4829 10.8977C18.8886 10.4544 18.8047 9.61055 18.273 9.08139C17.4755 8.29479 16.4681 7.98015 15.3208 7.76562C15.3208 9.12429 15.8385 10.0968 16.7759 10.8691H16.7619Z" fill="#1EC29D"/>
<path d="M11.3329 16.5742C11.6967 16.9461 12.1305 16.9747 12.5782 16.7459C13.2078 16.4169 13.5576 15.802 13.4177 15.2442C13.2638 14.6006 12.5082 14.0857 11.6408 13.957C11.193 14.2431 10.6614 14.4433 10.3535 14.8437C10.2276 15.0154 10.5914 15.6017 10.7873 15.9593C10.9132 16.2024 11.1231 16.3883 11.3189 16.5886L11.3329 16.5742Z" fill="#1EC29D"/>
<path d="M22.3866 15.6732C22.8343 16.0593 23.366 16.3453 23.8697 16.6743C23.9676 16.6028 24.0656 16.517 24.1635 16.4455C23.9676 15.8734 23.8277 15.2727 23.5479 14.7436C23.31 14.2716 22.6944 14.1715 22.3866 14.4861C22.0228 14.858 22.0228 15.3299 22.3866 15.6446V15.6732Z" fill="#1EC29D"/>
<path d="M4.43555 23.0256C5.19109 23.1257 7.27581 23.2115 7.96139 23.3259C8.07332 23.3402 8.17126 23.4832 8.24122 23.5976C9.69633 25.7286 11.6971 26.7297 14.2296 26.6439C14.2995 26.6439 14.3555 26.6582 14.4534 26.6725C15.4328 29.9619 17.9373 30.8629 20.9315 30.9344C21.8129 30.9487 22.6944 30.8343 23.5619 30.677C23.8417 30.6198 24.2474 30.2908 24.2894 30.0191C24.3314 29.7474 24.0935 29.3183 23.8417 29.1181C23.31 28.7033 22.6664 28.4316 22.1067 28.0312C21.617 27.6879 21.1833 27.2589 21.2113 26.5009C22.1207 26.5009 23.0442 26.6439 23.8977 26.4723C26.5001 25.9574 28.221 24.3556 29.0045 21.7527C29.1305 21.3379 29.2844 21.1091 29.6761 20.9089C31.0333 20.251 33.7057 17.219 34.5032 15.6602" stroke="white" stroke-linecap="round" stroke-linejoin="round"/>
</svg>
