<svg width="49" height="51" viewBox="0 0 49 51" fill="none" xmlns="http://www.w3.org/2000/svg">
<path d="M44.2876 39.1727C43.5758 39.1685 42.9943 38.7404 42.838 38.0555C42.786 37.8286 42.6775 37.743 42.4735 37.6745C42.1176 37.5589 41.9787 37.332 42.0916 37.088C42.2304 36.7798 42.4822 36.8141 42.7469 36.9168C42.838 36.9511 42.9335 36.9725 43.029 36.9939C43.5802 37.118 43.5845 37.1266 43.6062 37.6873C43.6192 38.0298 43.8449 38.308 44.1574 38.3722C44.4829 38.4365 44.8388 38.2952 44.9473 37.9827C45.0905 37.576 45.3162 37.499 45.7285 37.5675C46.3404 37.6745 46.5964 37.4305 46.7093 36.8398C46.7397 36.6899 46.8785 36.5144 47.0174 36.4374C47.7856 36.005 47.9852 35.3116 47.5339 34.571C47.1997 34.0274 47.204 34.0145 47.7075 33.6507C48.1545 33.3296 48.1545 32.9187 47.6945 32.589C47.4992 32.4521 47.369 32.3065 47.4341 32.0454C47.6033 31.3562 47.2691 30.7612 46.5747 30.5001C46.0019 30.286 45.5115 30.4102 45.1339 30.8768C44.9733 31.078 44.7867 31.1593 44.561 31.0138C44.3353 30.8682 44.3353 30.667 44.4568 30.4401C44.8084 29.7938 45.7588 29.4427 46.5834 29.6525C47.6294 29.9222 48.3107 30.7783 48.3454 31.8442C48.3454 31.9512 48.3975 32.0796 48.467 32.1653C48.9921 32.8245 49.0095 33.3853 48.467 34.0359C48.3368 34.1943 48.3368 34.3056 48.4062 34.4854C48.8011 35.4699 48.5321 36.3518 47.6728 36.9896C47.5816 37.0538 47.5035 37.1608 47.4688 37.2678C47.2474 37.9656 46.7397 38.368 45.9845 38.4022C45.7718 38.4108 45.6286 38.4536 45.4941 38.6334C45.2033 39.0186 44.7823 39.1685 44.3006 39.1685L44.2876 39.1727Z" fill="#1EC29D"/>
<path d="M27.9521 51C28.4598 51 28.6291 50.3322 28.1821 50.0968C28.1777 50.0968 28.1691 50.0925 28.1647 50.0882C26.8758 49.4162 24.9315 46.9376 25.2222 45.6406C25.6953 43.5516 26.381 41.5055 26.9973 39.378C27.8002 39.6305 28.4381 39.8317 29.0805 40.0372C29.7749 40.2598 30.4606 40.5209 31.1636 40.7178C32.9387 41.2144 34.6703 40.6065 35.4645 39.0612C36.1893 37.6486 36.7362 36.1503 37.3958 34.6136C36.211 34.1727 35.1173 33.7617 33.7112 33.2352C34.3579 32.9184 34.7094 32.5974 35.0479 32.6059C38.0598 32.6873 39.479 31.3731 38.841 28.3124C42.3173 27.5462 42.4519 27.3749 41.4407 24.3314C40.3817 21.1594 39.3445 18.0174 39.9 14.58C40.0606 13.5954 39.6917 12.5381 39.6873 11.515C39.6873 10.9757 39.9304 10.4277 40.117 9.90121C40.551 8.6641 41.0978 7.45267 41.4146 6.18559C41.4971 5.86454 40.985 5.11542 40.6074 4.99984C35.1694 3.37318 29.7792 1.50252 24.2371 0.33818C16.7593 -1.23283 10.2971 2.75676 7.68878 9.85841C6.26093 13.7453 6.25659 17.7263 7.35894 21.5661C8.40053 25.1961 10.1278 28.6335 11.5296 32.165C11.7249 32.6573 12.0201 33.3037 11.8551 33.7189C10.2537 37.7213 9.6244 42.276 5.55351 44.9386C5.1716 45.1868 4.89384 45.5978 4.57702 45.936C3.28371 47.3186 2.06852 48.7484 0.948812 50.2338C0.710114 50.5505 0.948812 50.9957 1.34375 50.9957H27.9564L27.9521 51Z" fill="#1EC29D"/>
<path d="M14.9016 45.5944C14.8756 45.5944 14.8496 45.5944 14.8279 45.5859C14.5935 45.5431 14.4329 45.3248 14.4763 45.0893C14.4763 45.0765 14.5371 44.7554 14.6716 44.2246C14.728 43.9935 14.9624 43.8565 15.1968 43.9164C15.4311 43.9763 15.57 44.2075 15.5092 44.4344C15.3834 44.9352 15.327 45.2349 15.327 45.2391C15.2879 45.4489 15.1056 45.5944 14.9016 45.5944Z" fill="white"/>
<path d="M15.622 43.0125C15.5743 43.0125 15.5265 43.004 15.4788 42.9911C15.2531 42.9141 15.1316 42.6701 15.2097 42.4475C15.4137 41.861 15.6437 41.2746 15.8954 40.7138C15.9909 40.4998 16.247 40.397 16.4683 40.4955C16.6897 40.5897 16.7895 40.8422 16.6897 41.0605C16.451 41.5999 16.2253 42.165 16.03 42.73C15.9692 42.9098 15.8 43.0168 15.6177 43.0168L15.622 43.0125ZM17.115 39.6736C17.0455 39.6736 16.9718 39.6565 16.9067 39.6222C16.6983 39.5067 16.6202 39.2455 16.7374 39.0401C17.0499 38.4836 17.3884 37.9485 17.7399 37.4519C17.8788 37.2593 18.1479 37.2122 18.3432 37.3449C18.5385 37.4819 18.5862 37.7473 18.4517 37.9399C18.1175 38.4108 17.7963 38.9202 17.4969 39.451C17.4188 39.5923 17.2712 39.6736 17.115 39.6736ZM19.2416 36.6943C19.1374 36.6943 19.0332 36.66 18.9508 36.583C18.7728 36.4246 18.7598 36.1549 18.9204 35.9794C19.3587 35.5042 19.8188 35.0633 20.3005 34.6738C20.4828 34.524 20.7605 34.5496 20.9124 34.7294C21.0643 34.9092 21.0383 35.1832 20.856 35.333C20.409 35.6969 19.975 36.1078 19.5671 36.553C19.4803 36.6472 19.3631 36.6943 19.2459 36.6943H19.2416ZM22.0886 34.3912C21.941 34.3912 21.7935 34.3142 21.711 34.1772C21.5895 33.9717 21.6633 33.7106 21.8672 33.5908C22.4228 33.274 23.0086 33 23.6076 32.786C23.8332 32.7047 24.0806 32.8202 24.1631 33.0386C24.2455 33.2612 24.1284 33.5051 23.907 33.5865C23.3558 33.7877 22.8177 34.036 22.3056 34.327C22.2361 34.3656 22.1624 34.3827 22.0886 34.3827V34.3912ZM25.5388 33.1413C25.3349 33.1413 25.1482 32.9957 25.1135 32.7903C25.0701 32.5591 25.2264 32.3365 25.4651 32.2937C26.0813 32.1867 26.7237 32.1225 27.3703 32.1096C27.6177 32.1011 27.8086 32.2937 27.813 32.5292C27.8173 32.7646 27.6264 32.9615 27.3877 32.9658C26.7844 32.9786 26.1898 33.0343 25.617 33.137C25.5909 33.1413 25.5649 33.1456 25.5388 33.1456V33.1413Z" fill="white"/>
<path d="M30.0914 33.1806C30.0654 33.1806 30.0437 33.1806 30.0176 33.1763C29.7355 33.1292 29.4578 33.0864 29.1844 33.0564C28.9457 33.0307 28.7764 32.8167 28.8024 32.5813C28.8285 32.3458 29.0455 32.1746 29.2842 32.2046C29.575 32.2388 29.8657 32.2773 30.1695 32.3287C30.4039 32.3672 30.5645 32.5898 30.5211 32.8253C30.4864 33.035 30.2997 33.1806 30.0958 33.1806H30.0914Z" fill="white"/>
</svg>
