<svg width="51" height="85" viewBox="0 0 51 85" fill="none" xmlns="http://www.w3.org/2000/svg">
<path d="M44.7703 77.8701H5.76074V76.3927C5.76074 57.9667 5.76074 39.5407 5.76074 21.1147C5.76074 19.9657 5.96648 19.5142 7.28326 19.5553C19.34 19.5963 31.3556 19.5553 43.4124 19.5553C44.4 19.5553 44.8938 19.6374 44.8938 20.8685C44.8938 39.4997 44.8938 58.1719 44.8938 76.8031C44.8938 77.0904 44.8938 77.4187 44.8526 77.8701H44.7703ZM28.5986 32.5232C28.5986 30.4714 28.5575 28.5836 28.5986 26.6959C28.5986 25.5468 28.2694 24.9723 27.0349 25.0954C26.0885 25.1775 25.1009 25.0954 24.1133 25.0954C22.6868 25.0954 21.9736 25.7794 21.9736 27.1473C21.9736 28.9119 21.9736 30.6355 21.9736 32.5232C19.8338 32.5232 17.8175 32.5232 15.8423 32.5232C14.8136 32.5232 14.4021 32.9336 14.4433 33.9185C14.4844 35.0676 14.4433 36.2166 14.4433 37.3657C14.4433 38.5421 15.0331 39.1303 16.2127 39.1303C18.1055 39.1303 19.9573 39.1303 21.9324 39.1303C21.9324 41.3874 21.9324 43.3983 21.9324 45.4091C21.9324 46.312 22.2616 46.7223 23.1669 46.6813C24.2368 46.6813 25.2655 46.6813 26.3354 46.6813C27.7894 46.6813 28.5163 45.9563 28.5163 44.5063C28.5163 42.7827 28.5163 41.0181 28.5163 39.2124C30.6561 39.2124 32.549 39.1714 34.4418 39.2124C35.6763 39.2535 36.129 38.802 36.0055 37.6119C35.9232 36.627 36.0055 35.6011 36.0055 34.5751C36.0055 33.2346 35.3471 32.5643 34.0303 32.5643C32.2609 32.5643 30.5326 32.5643 28.5163 32.5643L28.5986 32.5232ZM25.1421 71.345C20.6157 71.345 16.0481 71.345 11.5216 71.345C11.1925 71.345 10.8221 71.7554 10.4929 72.0017C10.8221 72.2479 11.1513 72.5352 11.5216 72.7814C11.6862 72.8635 11.9743 72.7814 12.18 72.7814C20.9037 72.7814 29.6685 72.7814 38.3922 72.7814C38.8037 72.7814 39.2152 72.7814 39.5855 72.6993C39.7913 72.6583 40.0793 72.33 40.0381 72.1658C40.0381 71.9196 39.7913 71.5503 39.5855 71.4682C39.2152 71.3451 38.8037 71.345 38.4333 71.345C34.0303 71.345 29.6274 71.345 25.1832 71.345H25.1421ZM25.4301 58.295C21.0271 58.295 16.6242 58.295 12.2212 58.295C11.8508 58.295 11.4805 58.254 11.1513 58.295C10.9044 58.3771 10.5341 58.7054 10.5752 58.8285C10.6164 59.1158 10.9044 59.403 11.1513 59.5262C11.3982 59.6493 11.7685 59.5672 12.0566 59.5672C20.8625 59.5672 29.6685 59.5672 38.5156 59.5672C38.8037 59.5672 39.174 59.6493 39.4209 59.5262C39.6678 59.403 39.9558 59.1158 39.997 58.8285C39.997 58.7054 39.6678 58.3361 39.4209 58.254C39.0917 58.1719 38.7214 58.2129 38.351 58.2129C34.0303 58.2129 29.7097 58.2129 25.389 58.2129L25.4301 58.295ZM25.3067 66.2153C25.677 66.2153 26.0062 66.2153 26.3766 66.2153C30.5738 66.2153 34.771 66.2153 38.9271 66.2153C39.2974 66.2153 39.6678 65.7639 40.0793 65.4767C39.709 65.2715 39.3386 65.0252 38.9271 64.8611C38.7625 64.779 38.5979 64.8611 38.3922 64.8611C29.6685 64.8611 20.9448 64.8611 12.18 64.8611C11.7685 64.8611 11.357 64.8611 10.9867 64.9431C10.781 64.9842 10.5341 65.3125 10.5341 65.4767C10.5341 65.7229 10.781 66.0512 10.9867 66.1743C11.2747 66.2974 11.6862 66.2564 12.0154 66.2564C16.4184 66.2564 20.8214 66.2564 25.2655 66.2564L25.3067 66.2153ZM29.0101 51.6879C25.7182 51.6879 22.3851 51.6879 19.0931 51.6879C18.7639 51.6879 18.3936 52.1394 18.0644 52.4266C18.3936 52.6318 18.7228 52.837 19.052 53.0011C19.1754 53.0422 19.2989 53.0011 19.4635 53.0011C25.8416 53.0011 32.2609 53.0011 38.6391 53.0011C38.886 53.0011 39.2152 53.0422 39.4209 53.0011C39.6678 52.878 40.0381 52.5907 39.997 52.4676C39.9147 52.1804 39.6678 51.8931 39.4209 51.729C39.174 51.6058 38.8037 51.6879 38.5156 51.6879C35.3471 51.6879 32.1786 51.6879 29.0101 51.6879Z" fill="#1EC29D"/>
<path d="M6.6662 13.1944V18.0368C5.12996 18.3104 4.36184 19.2543 4.36184 20.8685C4.36184 39.7459 4.36184 58.6233 4.36184 77.5007C4.36184 79.3884 4.36183 79.3885 6.29585 79.3885C18.9699 79.3885 31.6027 79.3885 44.2767 79.3885C45.566 79.3885 46.2107 78.7592 46.2107 77.5007C46.2107 58.6233 46.2107 39.7459 46.2107 20.8685C46.2107 19.2543 45.4289 18.3104 43.8652 18.0368V13.2354C45.182 13.2354 46.4988 13.1123 47.8155 13.2354C49.2146 13.3996 50.3257 14.7128 50.4491 16.1081C50.4903 16.6416 50.4491 17.175 50.4491 17.7085C50.4491 38.4327 50.4491 59.1568 50.4491 79.8809C50.4491 83.3691 49.3792 84.4361 45.8815 84.4361C32.0142 84.4361 18.188 84.4361 4.32069 84.4361C1.19334 84.4361 0.0411493 83.2871 0 80.1271C0 59.2389 0 38.3095 0 17.4213C0 14.1793 1.06989 13.1123 4.23839 13.1123C4.97907 13.1123 5.71976 13.1123 6.5839 13.1123L6.6662 13.1944Z" fill="#1EC29D"/>
<path d="M8.271 18.1191V10.9785H42.3015V18.1191H8.271Z" fill="#1EC29D"/>
<path d="M29.998 9.3783H20.4102C20.5748 7.20329 20.5336 5.02827 20.9863 3.01742C21.3978 1.08864 23.7844 -0.183532 25.7596 0.0216571C28.0228 0.267884 29.7922 1.99148 29.998 4.37168C30.1214 5.97215 29.998 7.61367 29.998 9.3783Z" fill="#1EC29D"/>
</svg>
